SplineFontDB: 3.2
FontName: D-DIN-PRO-Condensed-ExtraBold-Italic
FullName: D-DIN-PRO-Condensed-ExtraBold-Italic
FamilyName: D-DIN-PRO-Condensed
Weight: Extrabold
Copyright: Copyright (c) CyberFei. All rights reserved
Version: 1.1.0
ItalicAngle: -13
UnderlinePosition: -150
UnderlineWidth: 50
Ascent: 831
Descent: 169
InvalidEm: 0
sfntRevision: 0x0001199a
LayerCount: 2
Layer: 0 0 "Back" 1
Layer: 1 0 "Fore" 0
XUID: [1021 868 -1451673819 8384]
StyleMap: 0x0020
FSType: 4
OS2Version: 3
OS2_WeightWidthSlopeOnly: 0
OS2_UseTypoMetrics: 0
CreationTime: 1462909513
ModificationTime: 1778060080
PfmFamily: 17
TTFWeight: 800
TTFWidth: 3
LineGap: 86
VLineGap: 0
Panose: 2 11 8 6 3 2 2 3 2 4
OS2TypoAscent: 831
OS2TypoAOffset: 0
OS2TypoDescent: -169
OS2TypoDOffset: 0
OS2TypoLinegap: 86
OS2WinAscent: 902
OS2WinAOffset: 0
OS2WinDescent: 184
OS2WinDOffset: 0
HheadAscent: 831
HheadAOffset: 0
HheadDescent: -169
HheadDOffset: 0
OS2SubXSize: 650
OS2SubYSize: 600
OS2SubXOff: 0
OS2SubYOff: 75
OS2SupXSize: 650
OS2SupYSize: 600
OS2SupXOff: 0
OS2SupYOff: 350
OS2StrikeYSize: 50
OS2StrikeYPos: 316
OS2CapHeight: 690
OS2XHeight: 528
OS2Vendor: 'MONO'
OS2CodePages: 20000001.00000000
OS2UnicodeRanges: 8000006f.4000000a.00000000.00000000
Lookup: 1 0 0 "'rtla' Right to Left Alternates lookup 0" { "'rtla' Right to Left Alternates lookup 0 subtable"  } ['rtla' ('DFLT' <'dflt' > ) ]
Lookup: 1 0 0 "'sups' Superscript lookup 1" { "'sups' Superscript lookup 1 subtable" ("superior") } ['sups' ('DFLT' <'dflt' > ) ]
Lookup: 4 0 0 "'frac' Diagonal Fractions lookup 2" { "'frac' Diagonal Fractions lookup 2 subtable"  } ['frac' ('DFLT' <'dflt' > ) ]
Lookup: 4 0 0 "'dlig' Discretionary Ligatures in Latin lookup 3" { "'dlig' Discretionary Ligatures in Latin lookup 3 subtable"  } ['dlig' ('latn' <'dflt' > ) ]
Lookup: 4 0 1 "'liga' Standard Ligatures in Latin lookup 4" { "'liga' Standard Ligatures in Latin lookup 4 subtable"  } ['liga' ('latn' <'dflt' > ) ]

StartChar: .notdef
Encoding: 65536 -1 0
Width: 597
GlyphClass: 1
Flags: MW
HStem: 0.320312 50.6992<78.9736 382.198 78.9736 421.194> 639.92 50.7002<214.933 518.157 214.933 214.933>
VStem: 100.484 50.7002 454.409 50.7002
LayerCount: 2
Fore
SplineSet
175.9375 690.620117188 m 1
 580.5625 690.620117188 l 1
 421.194335938 0.3203125 l 1
 16.5693359375 0.3203125 l 1
 175.9375 690.620117188 l 1
78.9736328125 51.01953125 m 1
 382.198242188 51.01953125 l 1
 518.157226562 639.919921875 l 1
 214.932617188 639.919921875 l 1
 78.9736328125 51.01953125 l 1
EndSplineSet
EndChar

StartChar: exclam
Encoding: 33 33 3
Width: 214
GlyphClass: 2
Flags: MW
HStem: 0.320312 141.375<-1.49219 89.6943 -34.1309 122.333> 670.62 20G<116.978 258.297 258.297 258.297>
VStem: 49.7842 123.825 65.8203 92.7275
LayerCount: 2
Fore
SplineSet
116.977539062 690.620117188 m 1xd0
 258.296875 690.620117188 l 1
 124.153320312 214.8203125 l 1
 31.42578125 214.8203125 l 1
 116.977539062 690.620117188 l 1xd0
-1.4921875 141.6953125 m 1xe0
 122.333007812 141.6953125 l 1
 89.6943359375 0.3203125 l 1
 -34.130859375 0.3203125 l 1
 -1.4921875 141.6953125 l 1xe0
EndSplineSet
EndChar

StartChar: quotedbl
Encoding: 34 34 4
Width: 354
GlyphClass: 2
Flags: MW
HStem: 388.37 302.25<105.737 163.682 35.957 233.462 211.457 211.457 211.457 233.462 281.237 339.182>
VStem: 30.2842 127.725 205.784 127.725
LayerCount: 2
Fore
SplineSet
105.737304688 690.620117188 m 1
 233.461914062 690.620117188 l 1
 163.681640625 388.370117188 l 1
 35.95703125 388.370117188 l 1
 105.737304688 690.620117188 l 1
281.237304688 690.620117188 m 1
 408.961914062 690.620117188 l 1
 339.181640625 388.370117188 l 1
 211.45703125 388.370117188 l 1
 281.237304688 690.620117188 l 1
EndSplineSet
EndChar

StartChar: numbersign
Encoding: 35 35 5
Width: 462
GlyphClass: 2
Flags: MW
HStem: 0.320312 21G<-30.21 77.1348 -30.21 -30.21 146.266 252.635 146.266 146.266> 207.995 97.5<2.19922 39.1855 -20.3105 72.292 178.663 215.661 2.19922 146.53 355.138 401.864> 400.07 97.5<66.043 103.994 43.5332 136.148 66.043 210.366 243.449 279.494 418.998 464.733> 670.62 20G<201.193 307.519 307.519 307.519 376.653 484.043 484.043 484.043>
LayerCount: 2
Fore
SplineSet
487.243164062 497.5703125 m 1
 464.733398438 400.0703125 l 1
 386.840820312 400.0703125 l 1
 355.137695312 305.495117188 l 1
 424.374023438 305.495117188 l 1
 401.864257812 207.995117188 l 1
 322.030273438 207.995117188 l 1
 252.634765625 0.3203125 l 1
 146.265625 0.3203125 l 1
 215.661132812 207.995117188 l 1
 146.530273438 207.995117188 l 1
 77.134765625 0.3203125 l 1
 -30.2099609375 0.3203125 l 1
 39.185546875 207.995117188 l 1
 -20.310546875 207.995117188 l 1
 2.19921875 305.495117188 l 1
 72.2919921875 305.495117188 l 1
 103.994140625 400.0703125 l 1
 43.533203125 400.0703125 l 1
 66.04296875 497.5703125 l 1
 136.1484375 497.5703125 l 1
 201.193359375 690.620117188 l 1
 307.518554688 690.620117188 l 1
 243.44921875 497.5703125 l 1
 312.583984375 497.5703125 l 1
 376.653320312 690.620117188 l 1
 484.04296875 690.620117188 l 1
 418.998046875 497.5703125 l 1
 487.243164062 497.5703125 l 1
247.791992188 305.495117188 m 1
 279.494140625 400.0703125 l 1
 210.366210938 400.0703125 l 1
 178.663085938 305.495117188 l 1
 247.791992188 305.495117188 l 1
EndSplineSet
EndChar

StartChar: dollar
Encoding: 36 36 6
Width: 429
GlyphClass: 2
Flags: MW
HStem: -43.5547 189.149<129.203 166.283 129.203 172.192 71.7666 166.283> 546.32 207.675<255.894 267.69>
VStem: 20.3203 129.475 26.3838 133.575 165.81 100.425 252.586 133.573
LayerCount: 2
Fore
SplineSet
130.153320312 309.166015625 m 2xe4
 52.255859375 347.569335938 34.8671875 400.541992188 54.791015625 486.844726562 c 0
 65.9599609375 535.221679688 88.3251953125 575.657226562 122.16015625 607.0703125 c 0
 153.995117188 636.62890625 191.900390625 655.25390625 234.87109375 662.9375 c 1
 255.893554688 753.995117188 l 1
 356.318359375 753.995117188 l 1
 334.193359375 658.16015625 l 1
 376.811523438 643.469726562 430.737304688 601.119140625 405.995117188 479.29296875 c 2
 404.162109375 470.26953125 l 1
 277.387695312 470.26953125 l 1
 287.750976562 520.780273438 286.482421875 546.3203125 248.897460938 546.3203125 c 0
 225.340820312 546.3203125 200.188476562 538.051757812 189.717773438 492.6953125 c 0xd8
 182.947265625 463.373046875 187.515625 441.345703125 225.09765625 424.784179688 c 2
 266.692382812 406.237304688 l 2
 350.270507812 368.20703125 374.145507812 311.762695312 351.764648438 214.8203125 c 0
 340.663085938 166.731445312 320.705078125 126.630859375 291.359375 95.2177734375 c 0
 263.6875 65.5947265625 229.693359375 45.5927734375 190.427734375 35.4326171875 c 1
 172.192382812 -43.5546875 l 1
 71.7666015625 -43.5546875 l 1
 88.41796875 28.568359375 l 1
 44.9638671875 34.5048828125 13.8017578125 53.103515625 -3.5458984375 84.6240234375 c 0
 -30.5615234375 133.70703125 -17.875 195.14453125 -11.59765625 225.544921875 c 1
 117.876953125 225.544921875 l 1
 111.171875 188.729492188 105.919921875 145.594726562 152.485351562 145.594726562 c 0
 180.080078125 145.594726562 204.635742188 156.1015625 217.516601562 211.89453125 c 0
 224.497070312 242.129882812 219.391601562 263.860351562 172.9375 287.735351562 c 0
 172.875976562 287.766601562 130.153320312 309.166015625 130.153320312 309.166015625 c 2xe4
170.987304688 681.84375 m 1024
EndSplineSet
EndChar

StartChar: percent
Encoding: 37 37 7
Width: 755
GlyphClass: 2
Flags: MW
HStem: -6.50488 89.7002<545.811 555.18 545.811 583.24> 259.67 89.7002<141.21 150.579 141.21 178.64> 340.595 89.7002<605.169 614.667> 606.77 89.7002<200.569 210.07>
VStem: 32.2344 97.501 169.711 96.5234 498.286 97.501 635.761 96.5254
LayerCount: 2
Fore
SplineSet
540.19140625 698.419921875 m 1x9f
 638.872070312 698.419921875 l 1
 217.666015625 0.3203125 l 1
 118.984375 0.3203125 l 1
 540.19140625 698.419921875 l 1x9f
125.194335938 259.669921875 m 0xdf
 66.6796875 259.669921875 13.64453125 283.275390625 35.4306640625 377.64453125 c 2
 81.80078125 578.495117188 l 2
 91.1484375 618.981445312 119.147460938 696.469726562 226.038085938 696.469726562 c 0
 284.552734375 696.469726562 337.587890625 672.865234375 315.80078125 578.495117188 c 2
 269.430664062 377.64453125 l 2
 260.083984375 337.158203125 232.084960938 259.669921875 125.194335938 259.669921875 c 0xdf
175.609375 389.344726562 m 2
 216.576171875 566.794921875 l 2
 220.971679688 585.833984375 221.025390625 597.510742188 219.552734375 601.022460938 c 0
 218.228515625 604.181640625 214.809570312 606.76953125 205.331054688 606.76953125 c 0
 195.807617188 606.76953125 191.568359375 604.176757812 189.168945312 601.290039062 c 0
 186.1953125 597.709960938 180.998046875 585.842773438 176.600585938 566.794921875 c 2
 135.633789062 389.344726562 l 2
 131.396484375 370.995117188 131.045898438 359.283203125 132.444335938 355.176757812 c 0
 133.537109375 351.966796875 136.516601562 349.370117188 145.904296875 349.370117188 c 0
 155.25390625 349.370117188 159.801757812 351.97265625 162.75 355.44140625 c 0
 166.178710938 359.475585938 171.376953125 371.013671875 175.609375 389.344726562 c 2
529.794921875 -6.5048828125 m 0
 471.280273438 -6.5048828125 418.245117188 17.1005859375 440.03125 111.469726562 c 2
 486.401367188 312.3203125 l 2
 495.749023438 352.806640625 523.748046875 430.294921875 630.638671875 430.294921875 c 0xbf
 689.153320312 430.294921875 742.188476562 406.689453125 720.401367188 312.3203125 c 2
 674.03125 111.469726562 l 2
 664.684570312 70.9833984375 636.685546875 -6.5048828125 529.794921875 -6.5048828125 c 0
580.20703125 123.169921875 m 2
 621.174804688 300.620117188 l 2
 625.5703125 319.659179688 625.623046875 331.334960938 624.15234375 334.846679688 c 0
 622.82421875 338.010742188 619.403320312 340.594726562 609.930664062 340.594726562 c 0
 600.408203125 340.594726562 596.16796875 338.000976562 593.770507812 335.115234375 c 0
 590.795898438 331.53515625 585.598632812 319.66796875 581.201171875 300.620117188 c 2
 540.233398438 123.169921875 l 2
 535.997070312 104.8203125 535.646484375 93.1083984375 537.044921875 89.001953125 c 0
 538.137695312 85.7919921875 541.1171875 83.1953125 550.504882812 83.1953125 c 0
 559.85546875 83.1953125 564.403320312 85.7978515625 567.350585938 89.2666015625 c 0
 570.779296875 93.2998046875 575.975585938 104.837890625 580.20703125 123.169921875 c 2
EndSplineSet
EndChar

StartChar: ampersand
Encoding: 38 38 8
Width: 513
GlyphClass: 2
Flags: MW
HStem: -9.43262 121.875<133.861 152.088> 0.317383 116.024<321.698 425.556 343.194 425.556> 594.092 106.278<291.35 303.691>
VStem: 39.0596 130.651 77.084 125.776 270.135 125.774
LayerCount: 2
Fore
SplineSet
437.372070312 543.39453125 m 0xac
 420.936523438 472.201171875 363.803710938 410.409179688 298.068359375 353.115234375 c 1
 327.979492188 271.649414062 l 1
 385.717773438 339.376953125 l 1
 466.0859375 273.784179688 l 1
 368.426757812 162.010742188 l 1
 368.426757812 162.010742188 377.501953125 137.424804688 377.55859375 137.266601562 c 0
 383.102539062 121.005859375 391.133789062 116.341796875 405.080078125 116.341796875 c 2
 425.555664062 116.341796875 l 1
 398.76953125 0.3173828125 l 1
 343.194335938 0.3173828125 l 2x6c
 300.202148438 0.3173828125 283.859375 13.224609375 267.098632812 49.91796875 c 1
 236.520507812 22.140625 190.408203125 -9.4326171875 113.768554688 -9.4326171875 c 0
 66.37109375 -9.4326171875 30.55078125 5.6728515625 7.83203125 36.1103515625 c 0
 -14.9072265625 66.57421875 -20.2001953125 107.115234375 -8.8408203125 156.317382812 c 0xb4
 8.447265625 231.203125 60.5498046875 294.759765625 146.319335938 369.013671875 c 1
 112.610351562 459.266601562 107.958007812 497.526367188 118.546875 543.39453125 c 0
 129.192382812 589.505859375 152.833984375 627.8359375 189.327148438 656.921875 c 0
 225.7890625 685.982421875 268.010742188 700.370117188 314.688476562 700.370117188 c 0
 360.75 700.370117188 395.989257812 685.956054688 419.01171875 656.921875 c 0
 442.075195312 627.8359375 448.017578125 589.505859375 437.372070312 543.39453125 c 0xac
290.153320312 594.091796875 m 0
 275.381835938 594.091796875 254.369140625 586.905273438 245.673828125 549.2421875 c 0
 239.2265625 521.318359375 248.783203125 488.41015625 257.348632812 463.001953125 c 1
 287.13671875 491.313476562 304.715820312 513.583007812 312.948242188 549.2421875 c 0
 317.844726562 570.451171875 317.229492188 594.091796875 290.153320312 594.091796875 c 0
186.802734375 261.346679688 m 1
 155.05859375 231.364257812 132.750976562 203.70703125 124.51171875 168.016601562 c 0
 122.075195312 157.463867188 112.166015625 112.442382812 155.555664062 112.442382812 c 0xb4
 179.059570312 112.442382812 198.913085938 124.654296875 227.674804688 153.853515625 c 1
 186.802734375 261.346679688 l 1
EndSplineSet
EndChar

StartChar: quotesingle
Encoding: 39 39 9
Width: 178
GlyphClass: 2
Flags: MW
HStem: 388.37 302.25<105.737 163.682 35.957 233.462>
VStem: 30.2842 127.725
LayerCount: 2
Fore
SplineSet
105.737304688 690.620117188 m 1
 233.461914062 690.620117188 l 1
 163.681640625 388.370117188 l 1
 35.95703125 388.370117188 l 1
 105.737304688 690.620117188 l 1
EndSplineSet
EndChar

StartChar: parenleft
Encoding: 40 40 10
Width: 276
GlyphClass: 2
Flags: MW
VStem: 39.0596 128.699
LayerCount: 2
Fore
SplineSet
31.0009765625 328.892578125 m 0
 61.8330078125 462.442382812 121.165039062 602.010742188 223.76953125 739.368164062 c 1
 338.752929688 739.368164062 l 1
 283.451171875 653.39453125 253.561523438 593.759765625 226.767578125 531.435546875 c 0
 197.517578125 463.399414062 175.16796875 395.891601562 159.700195312 328.893554688 c 0
 139.46875 241.258789062 117.532226562 93.0166015625 147.0234375 -69.4658203125 c 2
 149.22265625 -81.580078125 l 1
 34.2392578125 -81.580078125 l 1
 1.546875 33.021484375 -5.92578125 168.944335938 31.0009765625 328.892578125 c 0
EndSplineSet
Substitution2: "'rtla' Right to Left Alternates lookup 0 subtable" parenright
EndChar

StartChar: parenright
Encoding: 41 41 11
Width: 276
GlyphClass: 2
Flags: MW
VStem: 119.009 128.7
LayerCount: 2
Fore
SplineSet
110.951171875 328.89453125 m 0
 131.18359375 416.53125 153.120117188 564.774414062 123.62890625 727.254882812 c 2
 121.430664062 739.370117188 l 1
 236.4140625 739.370117188 l 1
 269.10546875 624.767578125 276.578125 488.844726562 239.651367188 328.89453125 c 0
 208.818359375 195.345703125 149.487304688 55.77734375 46.8828125 -81.580078125 c 1
 -68.1005859375 -81.580078125 l 1
 -12.798828125 4.3935546875 17.08984375 64.0283203125 43.884765625 126.352539062 c 0
 73.134765625 194.388671875 95.4833984375 261.897460938 110.951171875 328.89453125 c 0
EndSplineSet
Substitution2: "'rtla' Right to Left Alternates lookup 0 subtable" parenleft
EndChar

StartChar: asterisk
Encoding: 42 42 12
Width: 339
GlyphClass: 2
Flags: MW
HStem: 382.52 308.101<209.087 219.856 137.956 290.987>
VStem: 133.634 81.9004
LayerCount: 2
Fore
SplineSet
219.856445312 382.51953125 m 1
 137.956054688 382.51953125 l 1
 158.743164062 472.55859375 l 1
 90.9111328125 437.751953125 l 1
 68.9580078125 502.747070312 l 1
 139.001953125 538.55859375 l 1
 84.765625 575.29296875 l 1
 138.1015625 642.221679688 l 1
 189.875 607.40625 l 1
 209.086914062 690.620117188 l 1
 290.987304688 690.620117188 l 1
 271.325195312 605.456054688 l 1
 339.158203125 640.263671875 l 1
 361.125976562 575.220703125 l 1
 290.098632812 539.36328125 l 1
 345.104492188 501.677734375 l 1
 291.913085938 435.829101562 l 1
 240.193359375 470.608398438 l 1
 219.856445312 382.51953125 l 1
EndSplineSet
EndChar

StartChar: plus
Encoding: 43 43 13
Width: 420
GlyphClass: 2
Flags: MW
HStem: 214.82 125.774<27.8525 117.765 -1.18555 146.803 272.578 362.489 27.8525 243.54>
VStem: 152.159 125.775
LayerCount: 2
Fore
SplineSet
243.540039062 214.8203125 m 1
 216.078125 95.8701171875 l 1
 90.302734375 95.8701171875 l 1
 117.764648438 214.8203125 l 1
 -1.185546875 214.8203125 l 1
 27.8525390625 340.594726562 l 1
 146.802734375 340.594726562 l 1
 174.263671875 459.544921875 l 1
 300.0390625 459.544921875 l 1
 272.578125 340.594726562 l 1
 391.52734375 340.594726562 l 1
 362.489257812 214.8203125 l 1
 243.540039062 214.8203125 l 1
EndSplineSet
EndChar

StartChar: comma
Encoding: 44 44 14
Width: 178
GlyphClass: 2
Flags: MW
HStem: -165.236 312.781<-91.8525 108.083>
VStem: 30.2842 127.725
LayerCount: 2
Fore
SplineSet
-19.6416015625 147.544921875 m 1
 108.083007812 147.544921875 l 1
 59.6181640625 -62.3779296875 l 1
 -91.8525390625 -165.236328125 l 1
 -19.6416015625 147.544921875 l 1
EndSplineSet
EndChar

StartChar: hyphen
Encoding: 45 45 15
Width: 354
GlyphClass: 2
Flags: MW
HStem: 284.045 124.8<49.459 306.322 20.6475 335.134>
VStem: 39.0596 285.675
LayerCount: 2
Fore
SplineSet
49.458984375 408.844726562 m 1
 335.133789062 408.844726562 l 1
 306.322265625 284.044921875 l 1
 20.6474609375 284.044921875 l 1
 49.458984375 408.844726562 l 1
EndSplineSet
EndChar

StartChar: period
Encoding: 46 46 16
Width: 182
GlyphClass: 2
Flags: MW
HStem: 0.320312 146.25<-19.8672 77.9941 -53.6309 111.758>
VStem: 30.2842 131.625
LayerCount: 2
Fore
SplineSet
-19.8671875 146.5703125 m 1
 111.7578125 146.5703125 l 1
 77.994140625 0.3203125 l 1
 -53.630859375 0.3203125 l 1
 -19.8671875 146.5703125 l 1
EndSplineSet
EndChar

StartChar: slash
Encoding: 47 47 17
Width: 302
GlyphClass: 2
Flags: MW
HStem: 678.42 20G<244.526 352.087 352.087 352.087>
VStem: 37.2998 237.533
LayerCount: 2
Fore
SplineSet
352.086914062 698.419921875 m 1
 57.6943359375 -9.4296875 l 1
 -48.8662109375 -9.4296875 l 1
 244.526367188 698.419921875 l 1
 352.086914062 698.419921875 l 1
EndSplineSet
EndChar

StartChar: zero
Encoding: 48 48 18
Width: 410
GlyphClass: 2
Flags: MW
HStem: -9.42969 125.775<146.017 159.495 146.017 190.465> 575.571 125.773<251.582 265.516>
VStem: 39.0596 137.475 244.785 136.499
LayerCount: 2
Fore
SplineSet
123.518554688 -9.4296875 m 0
 -18.53125 -9.4296875 -23.1640625 94.2763671875 -0.9619140625 190.446289062 c 2
 71.0693359375 502.446289062 l 2
 93.435546875 599.326171875 146.8125 701.344726562 287.61328125 701.344726562 c 0
 416.448242188 701.344726562 439.973632812 618.009765625 413.293945312 502.4453125 c 2
 341.262695312 190.4453125 l 2
 315.877929688 80.4912109375 257.411132812 -9.4296875 123.518554688 -9.4296875 c 0
204.989257812 191.420898438 m 2
 276.569335938 501.470703125 l 2
 283.495117188 531.467773438 284.668945312 551.827148438 281.739257812 561.743164062 c 0
 279.020507812 570.944335938 272.455078125 575.571289062 258.576171875 575.571289062 c 0
 244.586914062 575.571289062 236.453125 571.056640625 230.298828125 562.477539062 c 0
 223.415039062 552.881835938 215.40625 532.170898438 208.318359375 501.470703125 c 2
 136.73828125 191.420898438 l 2
 129.655273438 160.744140625 128.228515625 139.947265625 130.901367188 130.01171875 c 0
 133.381835938 120.794921875 139.477539062 116.345703125 152.555664062 116.345703125 c 0
 166.434570312 116.345703125 175.135742188 120.97265625 182.1015625 130.173828125 c 0
 189.58203125 140.051757812 197.91015625 160.759765625 204.989257812 191.420898438 c 2
EndSplineSet
EndChar

StartChar: one
Encoding: 49 49 19
Width: 297
GlyphClass: 2
Flags: MW
HStem: 0.320312 21G<37.0439 176.469 37.0439 37.0439> 670.62 20G<202.08 335.837 335.837 335.837>
VStem: 120.959 139.425
LayerCount: 2
Fore
SplineSet
47.990234375 448.938476562 m 1
 85.3935546875 610.951171875 l 1
 202.080078125 690.620117188 l 1
 335.836914062 690.620117188 l 1
 176.46875 0.3203125 l 1
 37.0439453125 0.3203125 l 1
 157.947265625 524.013671875 l 1
 47.990234375 448.938476562 l 1
EndSplineSet
Substitution2: "'sups' Superscript lookup 1 subtable" uni00B9
EndChar

StartChar: two
Encoding: 50 50 20
Width: 398
GlyphClass: 2
Flags: MW
HStem: 0.320312 125.774<138.471 289.569> 575.571 124.8<248.968 310.347>
VStem: 39.0596 133.574 237.959 135.525
LayerCount: 2
Fore
SplineSet
402.341796875 488.794921875 m 2
 390.946289062 439.43359375 373.313476562 400.818359375 316.525390625 334.000976562 c 2
 316.525390625 334.000976562 179.53125 174.040039062 138.470703125 126.094726562 c 1
 318.606445312 126.094726562 l 1
 289.569335938 0.3203125 l 1
 -48.755859375 0.3203125 l 1
 -22.0693359375 115.913085938 l 1
 214.009765625 393.901367188 l 2
 250.004882812 437.232421875 259.653320312 457.765625 267.717773438 492.696289062 c 2
 276.49609375 530.720703125 l 2
 286.250976562 572.97265625 266.173828125 575.571289062 253.701171875 575.571289062 c 0
 244.235351562 575.571289062 221.37890625 574.9375 210.045898438 525.845703125 c 2
 197.665039062 472.220703125 l 1
 64.0908203125 472.220703125 l 1
 79.84765625 540.470703125 l 2
 90.943359375 588.529296875 115.495117188 627.931640625 153.4296875 657.061523438 c 0
 191.260742188 686.110351562 235.659179688 700.37109375 285.438476562 700.37109375 c 0
 335.254882812 700.37109375 372.612304688 685.743164062 395.903320312 655.91015625 c 0
 419.197265625 626.076171875 424.735351562 585.791015625 413.372070312 536.5703125 c 2
 402.341796875 488.794921875 l 2
EndSplineSet
Substitution2: "'sups' Superscript lookup 1 subtable" uni00B2
EndChar

StartChar: three
Encoding: 51 51 21
Width: 400
GlyphClass: 2
Flags: MW
HStem: -9.42969 125.775<137.296 141.889> 292.821 124.8<172.386 177.698 143.573 208.461> 574.596 125.775<254.736 256.503>
VStem: 34.1855 133.574 234.061 137.474
LayerCount: 2
Fore
SplineSet
314.022460938 360.387695312 m 1
 344.513671875 340.771484375 359.912109375 313.455078125 340.741210938 230.419921875 c 2
 324.759765625 161.1953125 l 2
 312.6796875 108.87109375 288.220703125 66.6591796875 250.92578125 36.0771484375 c 0
 213.594726562 5.4658203125 168.060546875 -9.4296875 115.717773438 -9.4296875 c 0
 62.833984375 -9.4296875 24.1875 4.8857421875 1.6708984375 34.6162109375 c 0
 -20.7265625 64.189453125 -25.6533203125 104.607421875 -14.1640625 154.37109375 c 2
 -0.658203125 212.87109375 l 1
 132.916015625 212.87109375 l 1
 120.760742188 160.220703125 l 2
 111.307617188 119.276367188 130.810546875 116.345703125 143.78125 116.345703125 c 0
 158.440429688 116.345703125 166.639648438 120.500976562 171.791992188 126.701171875 c 0
 178.037109375 134.21875 184.163085938 147.66796875 188.63671875 167.045898438 c 2
 204.618164062 236.270507812 l 2
 210.021484375 259.673828125 210.0234375 274.991210938 206.919921875 282.112304688 c 0
 204.296875 288.12890625 196.088867188 292.821289062 177.698242188 292.821289062 c 2
 143.573242188 292.821289062 l 1
 172.385742188 417.62109375 l 1
 208.4609375 417.62109375 l 2
 226.215820312 417.62109375 236.014648438 422.157226562 240.999023438 427.783203125 c 0
 247.213867188 434.798828125 253.563476562 448.280273438 258.190429688 468.321289062 c 2
 271.021484375 523.895507812 l 2
 275.486328125 543.236328125 275.397460938 556.579101562 272.38671875 564.060546875 c 0
 269.768554688 570.564453125 263.4296875 574.595703125 249.576171875 574.595703125 c 0
 236.60546875 574.595703125 215.749023438 571.666015625 206.295898438 530.720703125 c 2
 194.81640625 480.99609375 l 1
 61.2421875 480.99609375 l 1
 74.2978515625 537.545898438 l 2
 85.66015625 586.763671875 109.768554688 626.912109375 146.801757812 656.434570312 c 0
 183.888671875 686 228.909179688 700.37109375 280.563476562 700.37109375 c 0
 332.856445312 700.37109375 371.418945312 685.84375 394.469726562 655.875 c 0
 417.538085938 625.880859375 422.287109375 583.634765625 410.071289062 530.719726562 c 2
 399.491210938 484.89453125 l 2
 382.086914062 409.5078125 350.499023438 379.708007812 314.022460938 360.387695312 c 1
EndSplineSet
Substitution2: "'sups' Superscript lookup 1 subtable" uni00B3
EndChar

StartChar: four
Encoding: 52 52 22
Width: 428
GlyphClass: 2
Flags: MW
HStem: 0.320312 21G<146.244 283.719 146.244 146.244> 112.445 125.774<139.784 172.13 338.642 351.53 139.784 309.604> 670.62 20G<239.577 377.805 377.805 377.805>
VStem: 230.159 137.475
LayerCount: 2
Fore
SplineSet
338.641601562 238.219726562 m 1
 380.567382812 238.219726562 l 1
 351.530273438 112.4453125 l 1
 309.604492188 112.4453125 l 1
 283.71875 0.3203125 l 1
 146.244140625 0.3203125 l 1
 172.129882812 112.4453125 l 1
 -29.6953125 112.4453125 l 1
 -2.3896484375 230.719726562 l 1
 239.577148438 690.620117188 l 1
 377.8046875 690.620117188 l 1
 139.784179688 238.219726562 l 1
 201.166992188 238.219726562 l 1
 235.381835938 386.419921875 l 1
 372.856445312 386.419921875 l 1
 338.641601562 238.219726562 l 1
EndSplineSet
EndChar

StartChar: five
Encoding: 53 53 23
Width: 407
GlyphClass: 2
Flags: MW
HStem: -9.42969 124.801<142.598 149.308> 334.746 121.875<190.766 298.307> 563.871 126.75<219.798 424.548 219.798 219.798>
VStem: 39.0586 135.524 46.8574 126.75 240.883 137.475
LayerCount: 2
Fore
SplineSet
122.541992188 -9.4296875 m 0xec
 94.3896484375 -9.4296875 -47.0498046875 -9.1796875 -7.265625 163.145507812 c 2
 1.9638671875 203.12109375 l 1
 137.48828125 203.12109375 l 1
 129.383789062 168.020507812 l 2xf4
 117.989257812 118.665039062 134.815429688 115.37109375 150.379882812 115.37109375 c 0
 165.9453125 115.37109375 184.290039062 118.666015625 195.68359375 168.020507812 c 2
 222.920898438 285.99609375 l 2
 233.848632812 333.330078125 211.76953125 334.74609375 201.026367188 334.74609375 c 0
 180.504882812 334.74609375 170.469726562 322.12109375 155.950195312 300.62109375 c 1
 32.271484375 300.62109375 l 1
 122.310546875 690.62109375 l 1
 453.810546875 690.62109375 l 1
 424.547851562 563.87109375 l 1
 219.797851562 563.87109375 l 1
 191.172851562 439.881835938 l 1
 212.338867188 451.159179688 236.22265625 456.62109375 262.311523438 456.62109375 c 0
 334.301757812 456.62109375 391.538085938 420.888671875 361.520507812 290.87109375 c 2
 332.708984375 166.071289062 l 2
 319.633789062 109.4375 295.251953125 65.2470703125 258.5 35.103515625 c 0
 221.853515625 5.0458984375 176.07421875 -9.4296875 122.541992188 -9.4296875 c 0xec
EndSplineSet
EndChar

StartChar: six
Encoding: 54 54 24
Width: 401
GlyphClass: 2
Flags: MW
HStem: -9.42969 125.774<141.904 146.089> 670.62 20G<265.779 408.699 408.699 408.699>
VStem: 35.1592 137.475 238.935 137.475
LayerCount: 2
Fore
SplineSet
-10.9404296875 164.120117188 m 2
 12.2451171875 264.544921875 l 2
 24.271484375 316.63671875 38.08203125 351.579101562 81.404296875 417.271484375 c 2
 265.779296875 690.620117188 l 1
 408.69921875 690.620117188 l 1
 237.397460938 433.337890625 l 1
 244.421875 434.572265625 251.729492188 435.169921875 259.311523438 435.169921875 c 0
 300.3671875 435.169921875 330.516601562 421.014648438 347.84375 392.543945312 c 0
 365.1015625 364.190429688 367.615234375 325.708984375 356.646484375 278.1953125 c 2
 329.409179688 160.219726562 l 2
 317.331054688 107.900390625 292.905273438 65.8251953125 255.643554688 35.5537109375 c 0
 218.353515625 5.2578125 172.559570312 -9.4296875 119.618164062 -9.4296875 c 0
 65.4423828125 -9.4296875 26.0302734375 5.205078125 3.3310546875 35.626953125 c 0
 -19.3388671875 66.009765625 -23.583984375 109.354492188 -10.9404296875 164.120117188 c 2
148.655273438 116.344726562 m 0
 170.755859375 116.344726562 185.181640625 130.969726562 191.934570312 160.21875 c 2
 217.145507812 269.418945312 l 2
 226.291992188 309.03515625 207.40234375 312.319335938 193.899414062 312.319335938 c 0
 184.095703125 312.319335938 160.396484375 310.793945312 151.970703125 274.294921875 c 2
 125.409179688 159.245117188 l 2
 116.262695312 119.62890625 135.15234375 116.344726562 148.655273438 116.344726562 c 0
EndSplineSet
EndChar

StartChar: seven
Encoding: 55 55 25
Width: 383
GlyphClass: 2
Flags: MW
HStem: 0.320312 21G<-20.4854 117.726 -20.4854 -20.4854> 564.845 125.775<99.8877 274.62 70.8496 444.062>
LayerCount: 2
Fore
SplineSet
444.0625 690.620117188 m 1
 416.759765625 572.359375 l 1
 117.725585938 0.3203125 l 1
 -20.4853515625 0.3203125 l 1
 274.620117188 564.844726562 l 1
 70.849609375 564.844726562 l 1
 99.8876953125 690.620117188 l 1
 444.0625 690.620117188 l 1
EndSplineSet
EndChar

StartChar: eight
Encoding: 56 56 26
Width: 411
GlyphClass: 2
Flags: MW
HStem: -9.42969 123.824<145.843 151.296> 295.745 121.875<188.068 230.369> 576.544 123.827<262.829 272.755>
VStem: 39.0596 138.449 243.81 138.449
LayerCount: 2
Fore
SplineSet
124.493164062 -9.4296875 m 0
 93.734375 -9.4296875 -46.775390625 -7.9951171875 -5.9140625 168.99609375 c 2
 10.0673828125 238.220703125 l 2
 22.4970703125 292.056640625 48.8505859375 333.693359375 89.251953125 360.813476562 c 1
 76.7890625 372.17578125 68.34765625 387.067382812 64.05078125 405.12890625 c 0
 58.845703125 427.010742188 58.908203125 449.772460938 64.31640625 473.196289062 c 2
 78.947265625 536.571289062 l 2
 90.333984375 585.890625 115.233398438 626.250976562 153.643554688 656.048828125 c 0
 191.981445312 685.791015625 237.293945312 700.37109375 288.36328125 700.37109375 c 0
 340.049804688 700.37109375 378.827148438 685.815429688 403.1328125 656.014648438 c 0
 427.4453125 626.20703125 433.52734375 585.864257812 422.146484375 536.5703125 c 2
 407.515625 473.1953125 l 2
 405.01953125 462.38671875 388.235351562 398.926757812 330.68359375 361.014648438 c 1
 358.744140625 334.350585938 365.822265625 292.6015625 353.266601562 238.220703125 c 2
 337.28515625 168.99609375 l 2
 324.197265625 112.307617188 299.336914062 67.6591796875 261.806640625 36.6005859375 c 0
 224.345703125 5.599609375 178.098632812 -9.4296875 124.493164062 -9.4296875 c 0
259.775390625 576.543945312 m 0
 242.348632812 576.543945312 224.57421875 567.659179688 217.170898438 535.59375 c 2
 201.4140625 467.34375 l 2
 197.270507812 449.395507812 197.37109375 436.537109375 200.428710938 428.533203125 c 0
 203.036132812 421.708007812 209.32421875 417.620117188 223.084960938 417.620117188 c 0
 237.65234375 417.620117188 245.825195312 421.831054688 251.119140625 428.354492188 c 0
 257.643554688 436.39453125 263.561523438 449.3515625 267.71484375 467.34375 c 2
 283.471679688 535.59375 l 2
 288.44140625 557.120117188 285.734375 576.543945312 259.775390625 576.543945312 c 0
216.84375 246.995117188 m 2
 227.771484375 294.329101562 205.692382812 295.745117188 194.948242188 295.745117188 c 0
 181.1875 295.745117188 173.01171875 291.657226562 167.252929688 284.831054688 c 0
 160.448242188 276.767578125 154.526367188 264.251953125 150.54296875 246.995117188 c 2
 132.309570312 168.01953125 l 2
 127.684570312 147.983398438 127.40625 133.787109375 130.150390625 125.512695312 c 0
 132.423828125 118.658203125 138.60546875 114.39453125 153.080078125 114.39453125 c 0
 168.365234375 114.39453125 176.5 118.784179688 181.487304688 125.328125 c 0
 187.829101562 133.650390625 193.9765625 147.946289062 198.610351562 168.01953125 c 2
 216.84375 246.995117188 l 2
EndSplineSet
EndChar

StartChar: nine
Encoding: 57 57 27
Width: 401
GlyphClass: 2
Flags: MW
HStem: 0.320312 21G<-5.59277 137.309 -5.59277 -5.59277> 574.595 125.775<257.682 261.626>
VStem: 35.1592 137.476 238.936 137.474
LayerCount: 2
Fore
SplineSet
143.793945312 255.76953125 m 0
 102.73828125 255.76953125 72.58984375 269.92578125 55.26171875 298.395507812 c 0
 38.00390625 326.75 35.490234375 365.231445312 46.4599609375 412.745117188 c 2
 73.6962890625 530.719726562 l 2
 85.775390625 583.040039062 110.201171875 625.114257812 147.4609375 655.385742188 c 0
 184.78125 685.706054688 230.901367188 700.370117188 284.462890625 700.370117188 c 0
 338.633789062 700.370117188 377.91015625 685.737304688 400.2890625 655.275390625 c 0
 422.616210938 624.885742188 426.684570312 581.565429688 414.045898438 526.8203125 c 2
 390.860351562 426.39453125 l 2
 378.115234375 371.185546875 363.0234375 333.896484375 322.66015625 273.64453125 c 2
 137.30859375 0.3203125 l 1
 -5.5927734375 0.3203125 l 1
 165.572265625 257.397460938 l 1
 158.797851562 256.283203125 151.544921875 255.76953125 143.793945312 255.76953125 c 0
210.181640625 378.620117188 m 0
 217.712890625 378.620117188 242.513671875 379.294921875 251.135742188 416.64453125 c 2
 277.697265625 531.6953125 l 2
 286.986328125 571.9296875 267.826171875 574.594726562 255.42578125 574.594726562 c 0
 241.357421875 574.594726562 220.483398438 571.051757812 211.171875 530.719726562 c 2
 185.9609375 421.51953125 l 2
 176.9609375 382.53515625 195.544921875 378.620117188 210.181640625 378.620117188 c 0
EndSplineSet
EndChar

StartChar: colon
Encoding: 58 58 28
Width: 182
GlyphClass: 2
Flags: MW
HStem: 0.320312 146.25<-19.8672 77.9941 -53.6309 111.758> 329.87 146.25<56.2158 154.076 22.4512 187.841>
VStem: 30.2842 131.625
LayerCount: 2
Fore
SplineSet
-19.8671875 146.5703125 m 1
 111.7578125 146.5703125 l 1
 77.994140625 0.3203125 l 1
 -53.630859375 0.3203125 l 1
 -19.8671875 146.5703125 l 1
56.2158203125 476.120117188 m 1
 187.840820312 476.120117188 l 1
 154.076171875 329.870117188 l 1
 22.451171875 329.870117188 l 1
 56.2158203125 476.120117188 l 1
EndSplineSet
EndChar

StartChar: semicolon
Encoding: 59 59 29
Width: 182
GlyphClass: 2
Flags: MW
HStem: 329.87 146.25<56.2158 154.076 22.4512 187.841>
VStem: 34.1846 127.725
LayerCount: 2
Fore
SplineSet
56.2158203125 476.120117188 m 1
 187.840820312 476.120117188 l 1
 154.076171875 329.870117188 l 1
 22.451171875 329.870117188 l 1
 56.2158203125 476.120117188 l 1
-15.7412109375 147.544921875 m 1
 111.983398438 147.544921875 l 1
 63.5185546875 -62.3779296875 l 1
 -87.9521484375 -165.236328125 l 1
 -15.7412109375 147.544921875 l 1
EndSplineSet
EndChar

StartChar: less
Encoding: 60 60 30
Width: 420
GlyphClass: 2
Flags: W
LayerCount: 2
Fore
SplineSet
2.1748046875 229.372070312 m 1
 24.7177734375 327.018554688 l 1
 408.416015625 468.649414062 l 1
 381.732421875 353.069335938 l 1
 167.787109375 278.1953125 l 1
 347.16015625 203.3203125 l 1
 320.475585938 87.740234375 l 1
 2.1748046875 229.372070312 l 1
EndSplineSet
Substitution2: "'rtla' Right to Left Alternates lookup 0 subtable" greater
EndChar

StartChar: equal
Encoding: 61 61 31
Width: 420
GlyphClass: 2
Flags: MW
HStem: 129.02 110.176<4.44238 330.006 -20.9941 355.442> 317.195 109.199<47.6602 373.45 22.4502 398.66>
LayerCount: 2
Fore
SplineSet
47.66015625 426.39453125 m 1
 398.66015625 426.39453125 l 1
 373.450195312 317.1953125 l 1
 22.4501953125 317.1953125 l 1
 47.66015625 426.39453125 l 1
4.4423828125 239.1953125 m 1
 355.442382812 239.1953125 l 1
 330.005859375 129.01953125 l 1
 -20.994140625 129.01953125 l 1
 4.4423828125 239.1953125 l 1
EndSplineSet
EndChar

StartChar: greater
Encoding: 62 62 32
Width: 420
GlyphClass: 2
Flags: W
LayerCount: 2
Fore
SplineSet
30.734375 353.080078125 m 1
 57.416015625 468.649414062 l 1
 375.717773438 327.018554688 l 1
 353.174804688 229.372070312 l 1
 -30.5244140625 87.740234375 l 1
 -3.8427734375 203.310546875 l 1
 209.229492188 278.1953125 l 1
 30.734375 353.080078125 l 1
EndSplineSet
Substitution2: "'rtla' Right to Left Alternates lookup 0 subtable" less
EndChar

StartChar: question
Encoding: 63 63 33
Width: 378
GlyphClass: 2
Flags: MW
HStem: 0.320312 141.375<76.5078 168.669 43.8691 201.308> 579.47 119.925<230.926 246.449>
VStem: 21.5088 130.65 127.784 124.8 227.235 133.574
LayerCount: 2
Fore
SplineSet
51.4921875 493.669921875 m 2xe8
 85.9345703125 642.856445312 162.048828125 699.39453125 268.63671875 699.39453125 c 0
 319.72265625 699.39453125 358.004882812 684.6328125 381.887695312 654.481445312 c 0
 405.854492188 624.2265625 411.2109375 582.110351562 399.12109375 529.745117188 c 0xe8
 385.48046875 470.659179688 363.411132812 435.774414062 321.288085938 389.2734375 c 2
 270.272460938 333.524414062 l 2
 244.868164062 306.806640625 235.823242188 291.198242188 225.16796875 245.044921875 c 2
 213.237304688 193.370117188 l 1
 88.4375 193.370117188 l 1
 100.142578125 244.0703125 l 2xd0
 114.911132812 308.040039062 128.598632812 332.729492188 172.831054688 384.236328125 c 0
 172.844726562 384.251953125 219.630859375 438.916015625 219.630859375 438.916015625 c 2
 245.935546875 469.120117188 255.963867188 488.236328125 264.872070312 526.8203125 c 0
 276.4609375 577.015625 252.920898438 579.469726562 239.977539062 579.469726562 c 0
 221.875 579.469726562 212.252929688 573.771484375 205.997070312 563.63671875 c 0
 198.416015625 551.35546875 189.98828125 527.65234375 182.142578125 493.669921875 c 2
 180.116210938 484.89453125 l 1
 49.4658203125 484.89453125 l 1
 51.4921875 493.669921875 l 2xe8
76.5078125 141.6953125 m 1xd0
 201.307617188 141.6953125 l 1
 168.668945312 0.3203125 l 1
 43.869140625 0.3203125 l 1
 76.5078125 141.6953125 l 1xd0
EndSplineSet
EndChar

StartChar: at
Encoding: 64 64 34
Width: 708
GlyphClass: 2
Flags: MW
HStem: -130.33 107.251<215.994 302.263> 54.9199 105.301<476.641 486.698> 401.045 107.251<363.061 371.891 328.273 372.347> 595.071 107.249<358.31 446.237>
VStem: 39.0596 115.049 211.633 118.952 388.11 118.949 565.56 113.1
LayerCount: 2
Fore
SplineSet
244.78125 -130.330078125 m 0
 35.560546875 -130.330078125 -43.02734375 8.2421875 1.9638671875 203.120117188 c 2
 40.4560546875 369.844726562 l 2
 87.5185546875 573.698242188 243.936523438 702.3203125 437.013671875 702.3203125 c 0
 631.580078125 702.3203125 726.897460938 572.7421875 680.956054688 373.745117188 c 2
 645.390625 219.6953125 l 2
 633.395507812 167.739257812 612.143554688 126.7578125 580.52734375 97.9306640625 c 0
 548.809570312 69.0107421875 509.374023438 54.919921875 464.022460938 54.919921875 c 0
 430.893554688 54.919921875 383.09375 63.5849609375 361.986328125 109.418945312 c 1
 336.522460938 74.1123046875 303.116210938 54.919921875 251.47265625 54.919921875 c 0
 165.638671875 54.919921875 155.426757812 120.342773438 176.11328125 209.946289062 c 2
 211.678710938 363.99609375 l 2
 240.086914062 487.046875 303.327148438 508.295898438 353.21875 508.295898438 c 0
 390.5625 508.295898438 406.4765625 493.099609375 414.424804688 482.008789062 c 1
 418.693359375 500.49609375 l 1
 538.619140625 500.49609375 l 1
 468.388671875 196.295898438 l 2
 464.818359375 180.830078125 463.970703125 160.220703125 489.310546875 160.220703125 c 0
 501.619140625 160.220703125 508.625976562 163.955078125 513.75390625 170.387695312 c 0
 520.022460938 178.247070312 525.451171875 190.068359375 529.139648438 206.045898438 c 2
 569.881835938 382.520507812 l 2
 585.895507812 451.881835938 579.850585938 503.952148438 553.1796875 540.225585938 c 0
 526.55078125 576.443359375 480.220703125 595.071289062 412.252929688 595.071289062 c 0
 304.3671875 595.071289062 196.848632812 548.927734375 155.279296875 368.87109375 c 2
 119.264648438 212.87109375 l 2
 75.45703125 23.12109375 162.447265625 -23.0791015625 269.541015625 -23.0791015625 c 0
 350.9921875 -23.0791015625 394.28125 0.5546875 438.268554688 27.1494140625 c 1
 478.564453125 -57.24609375 l 1
 437.190429688 -83.0673828125 359.745117188 -130.330078125 244.78125 -130.330078125 c 0
367.459960938 401.044921875 m 0
 358.661132812 401.044921875 339.02734375 400.364257812 329.504882812 359.120117188 c 2
 294.389648438 207.01953125 l 2
 290.536132812 190.327148438 290.602539062 178.5703125 293.228515625 171.58984375 c 0
 295.45703125 165.66796875 300.6015625 162.169921875 312.310546875 162.169921875 c 0
 325.3359375 162.169921875 332.3046875 166.072265625 337.123046875 172.522460938 c 0
 343.282226562 180.76953125 348.732421875 193.233398438 352.590820312 209.9453125 c 2
 387.030273438 359.120117188 l 2
 396.423828125 399.806640625 377.233398438 401.044921875 367.459960938 401.044921875 c 0
EndSplineSet
EndChar

StartChar: A
Encoding: 65 65 35
Width: 484
GlyphClass: 2
Flags: MW
HStem: 0.320312 21G<-78.5928 -78.5928 -78.5928 64.6514 261.962 261.962 261.962 405.19> 130.97 124.8<176.999 264.824 122.113 268.538> 670.62 20G<257.853 388.481 388.481 388.481>
LayerCount: 2
Fore
SplineSet
-78.5927734375 0.3203125 m 1
 257.852539062 690.620117188 l 1
 388.481445312 690.620117188 l 1
 405.190429688 0.3203125 l 1
 261.961914062 0.3203125 l 1
 264.82421875 130.969726562 l 1
 122.11328125 130.969726562 l 1
 64.6513671875 0.3203125 l 1
 -78.5927734375 0.3203125 l 1
176.999023438 255.76953125 m 1
 268.538085938 255.76953125 l 1
 273.780273438 476.7265625 l 1
 176.999023438 255.76953125 l 1
EndSplineSet
EndChar

StartChar: B
Encoding: 66 66 36
Width: 456
GlyphClass: 2
Flags: MW
HStem: 0.321289 124.799<124.355 150.144> 299.645 120.9<192.561 205.599 164.648 234.485> 565.821 124.8<226.1 268.024 226.1 226.1>
VStem: 42.958 136.501 289.634 137.476
LayerCount: 2
Fore
SplineSet
456.716796875 500.495117188 m 0
 433.975585938 401.98828125 380.608398438 372.28125 361.818359375 362.209960938 c 1
 381.536132812 348.84765625 393.844726562 330.661132812 397.938476562 307.844726562 c 0
 402.760742188 280.959960938 400.010742188 246.419921875 390.239257812 204.095703125 c 0
 374.243164062 134.807617188 348.23046875 82.85546875 310.358398438 49.5224609375 c 0
 272.161132812 15.9013671875 218.235351562 0.3212890625 150.143554688 0.3212890625 c 2
 -40.95703125 0.3212890625 l 1
 118.411132812 690.62109375 l 1
 309.51171875 690.62109375 l 2
 376.250976562 690.62109375 422.407226562 676.071289062 445.584960938 644.553710938 c 0
 468.624023438 613.228515625 471.538085938 564.692382812 456.716796875 500.495117188 c 0
192.560546875 420.544921875 m 1
 234.485351562 420.544921875 l 2
 261.359375 420.544921875 279.3203125 426.801757812 290.0625 436.543945312 c 0
 301.272460938 446.709960938 311.061523438 465.055664062 317.443359375 492.6953125 c 0
 324.145507812 521.729492188 322.827148438 540.518554688 316.383789062 550.223632812 c 0
 310.102539062 559.684570312 294.936523438 565.821289062 268.024414062 565.821289062 c 2
 226.099609375 565.821289062 l 1
 192.560546875 420.544921875 l 1
254.7890625 212.870117188 m 0
 262.389648438 245.7890625 261.428710938 268.072265625 254.30078125 280.500976562 c 0
 247.357421875 292.607421875 232.127929688 299.64453125 205.598632812 299.64453125 c 2
 164.6484375 299.64453125 l 1
 124.35546875 125.120117188 l 1
 165.305664062 125.120117188 l 2
 194.057617188 125.120117188 212.822265625 132.25 223.984375 143.565429688 c 0
 235.817382812 155.561523438 246.858398438 178.518554688 254.7890625 212.870117188 c 0
EndSplineSet
EndChar

StartChar: C
Encoding: 67 67 37
Width: 468
GlyphClass: 2
Flags: MW
HStem: -7.48047 125.776<171.186 179.434> 574.596 125.775<290.46 319.228>
VStem: 39.0605 137.474 301.334 137.476
LayerCount: 2
Fore
SplineSet
183.23046875 118.295898438 m 0
 212.28515625 118.295898438 248.337890625 134.248046875 263.11328125 198.24609375 c 2
 269.19140625 224.571289062 l 1
 405.69140625 224.571289062 l 1
 399.387695312 197.270507812 l 2
 384.018554688 130.697265625 353.48828125 78.9775390625 307.02734375 44.041015625 c 0
 261.19921875 9.580078125 208.576171875 -7.48046875 150.291992188 -7.48046875 c 0
 90.7744140625 -7.48046875 46.3623046875 9.541015625 18.646484375 44.23828125 c 0
 -9.259765625 79.171875 -14.9677734375 129.776367188 -0.060546875 194.345703125 c 2
 69.9443359375 497.571289062 l 2
 85.021484375 562.875 115.256835938 613.916992188 161.331054688 648.822265625 c 0
 206.9296875 683.3671875 260.380859375 700.37109375 320.5390625 700.37109375 c 0
 378.168945312 700.37109375 421.88671875 683.467773438 450.274414062 649.228515625 c 0
 479.047851562 614.526367188 484.65625 562.380859375 469.018554688 494.645507812 c 2
 462.265625 465.395507812 l 1
 324.790039062 465.395507812 l 1
 331.317382812 493.670898438 l 2
 335.104492188 510.072265625 349.87890625 574.595703125 288.576171875 574.595703125 c 0
 263.3984375 574.595703125 223.779296875 568.440429688 202.916015625 478.071289062 c 2
 140.564453125 207.99609375 l 2
 121.49609375 125.400390625 159.141601562 118.295898438 183.23046875 118.295898438 c 0
EndSplineSet
EndChar

StartChar: D
Encoding: 68 68 38
Width: 463
GlyphClass: 2
Flags: MW
HStem: 0.320312 124.801<124.356 148.194> 564.846 125.774<225.875 281.45 225.875 225.875>
VStem: 42.959 136.5 296.459 137.476
LayerCount: 2
Fore
SplineSet
462.79296875 488.795898438 m 2
 396.614257812 202.145507812 l 2
 381.681640625 137.466796875 351.499023438 86.75390625 305.451171875 51.8681640625 c 0
 259.903320312 17.361328125 207.100585938 0.3203125 148.194335938 0.3203125 c 2
 -40.9560546875 0.3203125 l 1
 118.412109375 690.620117188 l 1
 313.412109375 690.620117188 l 2
 371.6640625 690.620117188 415.573242188 673.737304688 443.661132812 639.450195312 c 0
 472.028320312 604.817382812 477.84765625 554.004882812 462.79296875 488.795898438 c 2
320.590820312 468.322265625 m 2
 342.674804688 563.982421875 296.459960938 564.845703125 281.450195312 564.845703125 c 2
 225.875 564.845703125 l 1
 124.356445312 125.12109375 l 1
 179.931640625 125.12109375 l 2
 200.244140625 125.12109375 216.163085938 132.46875 230.044921875 147.623046875 c 0
 244.256835938 163.137695312 255.3359375 185.673828125 262.290039062 215.796875 c 2
 320.590820312 468.322265625 l 2
EndSplineSet
EndChar

StartChar: E
Encoding: 69 69 39
Width: 377
GlyphClass: 2
Flags: MW
HStem: 0.320312 124.8<124.355 276.895> 288.92 124.8<190.984 318.172 162.172 346.984> 564.845 125.775<225.874 407.225 225.874 225.874>
VStem: 42.959 136.5 42.959 317.851
LayerCount: 2
Fore
SplineSet
124.35546875 125.120117188 m 1xf0
 305.706054688 125.120117188 l 1
 276.89453125 0.3203125 l 1
 -40.9560546875 0.3203125 l 1
 118.412109375 690.620117188 l 1
 436.262695312 690.620117188 l 1
 407.224609375 564.844726562 l 1xe8
 225.874023438 564.844726562 l 1
 190.984375 413.719726562 l 1
 346.984375 413.719726562 l 1
 318.171875 288.919921875 l 1
 162.171875 288.919921875 l 1
 124.35546875 125.120117188 l 1xf0
EndSplineSet
EndChar

StartChar: F
Encoding: 70 70 40
Width: 373
GlyphClass: 2
Flags: MW
HStem: 0.320312 21G<-40.9561 96.5195 -40.9561 -40.9561> 285.02 125.775<162.247 347.285 191.285 318.247> 564.845 125.775<226.85 407.225 226.85 226.85>
VStem: 42.959 137.476
LayerCount: 2
Fore
SplineSet
162.247070312 285.01953125 m 1
 96.51953125 0.3203125 l 1
 -40.9560546875 0.3203125 l 1
 118.412109375 690.620117188 l 1
 436.262695312 690.620117188 l 1
 407.224609375 564.844726562 l 1
 226.849609375 564.844726562 l 1
 191.28515625 410.794921875 l 1
 347.28515625 410.794921875 l 1
 318.247070312 285.01953125 l 1
 162.247070312 285.01953125 l 1
EndSplineSet
EndChar

StartChar: G
Encoding: 71 71 41
Width: 468
GlyphClass: 2
Flags: MW
HStem: -7.48047 125.775<171.186 179.756> 264.545 112.125<233.131 278.42 207.245 441.781> 574.595 125.775<290.459 297.947>
VStem: 39.0596 137.475 301.334 137.476
LayerCount: 2
Fore
SplineSet
183.23046875 118.294921875 m 0
 197.741210938 118.294921875 244.7890625 118.873046875 264.013671875 202.14453125 c 2
 278.419921875 264.544921875 l 1
 207.245117188 264.544921875 l 1
 233.130859375 376.669921875 l 1
 441.78125 376.669921875 l 1
 399.688476562 194.344726562 l 2
 384.895507812 130.268554688 354.548828125 79.7294921875 308.153320312 44.5576171875 c 0
 262.2265625 9.7412109375 209.220703125 -7.48046875 150.291992188 -7.48046875 c 0
 90.7744140625 -7.48046875 46.3623046875 9.541015625 18.646484375 44.23828125 c 0
 -9.259765625 79.171875 -14.96875 129.775390625 -0.0615234375 194.344726562 c 2
 69.943359375 497.5703125 l 2
 85.01953125 562.874023438 115.255859375 613.916015625 161.330078125 648.822265625 c 0
 206.928710938 683.366210938 260.379882812 700.370117188 320.538085938 700.370117188 c 0
 378.127929688 700.370117188 421.893554688 683.828125 450.448242188 650.263671875 c 0
 479.3359375 616.307617188 485.5859375 566.412109375 470.818359375 502.4453125 c 2
 464.065429688 473.1953125 l 1
 326.58984375 473.1953125 l 1
 333.342773438 502.4453125 l 2
 339.01953125 527.03515625 336.955078125 544.568359375 328.65625 556.43359375 c 0
 320.178710938 568.556640625 307.318359375 574.594726562 288.575195312 574.594726562 c 0
 263.397460938 574.594726562 223.779296875 568.439453125 202.916015625 478.0703125 c 2
 140.564453125 207.995117188 l 2
 121.495117188 125.399414062 159.141601562 118.294921875 183.23046875 118.294921875 c 0
EndSplineSet
EndChar

StartChar: H
Encoding: 72 72 42
Width: 460
GlyphClass: 2
Flags: MW
HStem: 0.320312 21G<-40.9561 96.5195 -40.9561 -40.9561 205.719 343.194 205.719 205.719> 288.92 124.8<191.96 272.347 163.147 301.159> 670.62 20G<118.412 255.888 255.888 255.888 365.087 502.562 502.562 502.562>
VStem: 42.959 137.476 289.634 137.476
LayerCount: 2
Fore
SplineSet
502.5625 690.620117188 m 1
 343.194335938 0.3203125 l 1
 205.71875 0.3203125 l 1
 272.346679688 288.919921875 l 1
 163.147460938 288.919921875 l 1
 96.51953125 0.3203125 l 1
 -40.9560546875 0.3203125 l 1
 118.412109375 690.620117188 l 1
 255.887695312 690.620117188 l 1
 191.959960938 413.719726562 l 1
 301.159179688 413.719726562 l 1
 365.086914062 690.620117188 l 1
 502.5625 690.620117188 l 1
EndSplineSet
EndChar

StartChar: I
Encoding: 73 73 43
Width: 220
GlyphClass: 2
Flags: MW
HStem: 0.320312 21G<-37.0557 99.4443 -37.0557 -37.0557> 670.62 20G<122.312 258.812 258.812 258.812>
VStem: 46.8594 136.5
LayerCount: 2
Fore
SplineSet
122.3125 690.620117188 m 1
 258.8125 690.620117188 l 1
 99.4443359375 0.3203125 l 1
 -37.0556640625 0.3203125 l 1
 122.3125 690.620117188 l 1
EndSplineSet
EndChar

StartChar: J
Encoding: 74 74 44
Width: 271
GlyphClass: 2
Flags: MW
HStem: 0.320312 125.774<-36.2939 -33.1562 -65.3311 -11.9189> 670.62 20G<172.037 309.513 309.513 309.513>
VStem: 96.584 137.476
LayerCount: 2
Fore
SplineSet
189.0859375 168.995117188 m 2
 168.323242188 79.060546875 109.430664062 0.3203125 -33.15625 0.3203125 c 2
 -65.3310546875 0.3203125 l 1
 -36.2939453125 126.094726562 l 1
 -11.9189453125 126.094726562 l 2
 19.1552734375 126.094726562 44.5634765625 138.470703125 54.76171875 182.64453125 c 2
 172.037109375 690.620117188 l 1
 309.512695312 690.620117188 l 1
 189.0859375 168.995117188 l 2
EndSplineSet
EndChar

StartChar: K
Encoding: 75 75 45
Width: 460
GlyphClass: 2
Flags: MW
HStem: 0.320312 21G<-40.9561 95.5439 -40.9561 -40.9561 237.765 384.538 237.765 237.765> 670.62 20G<118.412 254.912 254.912 254.912 383.799 523.676 523.676 523.676>
VStem: 42.959 136.5
LayerCount: 2
Fore
SplineSet
237.764648438 0.3203125 m 1
 197.547851562 247.966796875 l 1
 132.202148438 159.10546875 l 1
 95.5439453125 0.3203125 l 1
 -40.9560546875 0.3203125 l 1
 118.412109375 690.620117188 l 1
 254.912109375 690.620117188 l 1
 189.125 405.666015625 l 1
 383.798828125 690.620117188 l 1
 523.67578125 690.620117188 l 1
 312.584960938 404.5546875 l 1
 384.538085938 0.3203125 l 1
 237.764648438 0.3203125 l 1
EndSplineSet
EndChar

StartChar: L
Encoding: 76 76 46
Width: 369
GlyphClass: 2
Flags: MW
HStem: 0.320312 124.8<125.331 276.895> 670.62 20G<118.412 255.888 255.888 255.888>
VStem: 42.959 137.476
LayerCount: 2
Fore
SplineSet
118.412109375 690.620117188 m 1
 255.887695312 690.620117188 l 1
 125.331054688 125.120117188 l 1
 305.706054688 125.120117188 l 1
 276.89453125 0.3203125 l 1
 -40.9560546875 0.3203125 l 1
 118.412109375 690.620117188 l 1
EndSplineSet
EndChar

StartChar: M
Encoding: 77 77 47
Width: 569
GlyphClass: 2
Flags: MW
HStem: 0.320312 21G<-40.9561 96.5195 -40.9561 -40.9561 313.944 451.419 313.944 313.944> 670.62 20G<118.412 253.461 253.461 253.461 475.755 610.787 610.787 610.787>
VStem: 42.959 137.476 397.859 137.475
LayerCount: 2
Fore
SplineSet
610.787109375 690.620117188 m 1
 451.418945312 0.3203125 l 1
 313.944335938 0.3203125 l 1
 394.154296875 347.749023438 l 1
 273.452148438 130.969726562 l 1
 196.359375 130.969726562 l 1
 176.05078125 344.810546875 l 1
 96.51953125 0.3203125 l 1
 -40.9560546875 0.3203125 l 1
 118.412109375 690.620117188 l 1
 253.4609375 690.620117188 l 1
 286.6328125 354.872070312 l 1
 475.754882812 690.620117188 l 1
 610.787109375 690.620117188 l 1
EndSplineSet
EndChar

StartChar: N
Encoding: 78 78 48
Width: 473
GlyphClass: 2
Flags: MW
HStem: 0.320312 21G<-40.9561 96.5195 -40.9561 -40.9561 222.153 356.844 222.153 222.153> 670.62 20G<118.412 253.195 253.195 253.195 378.737 516.212 516.212 516.212>
VStem: 42.959 137.476 303.284 137.475
LayerCount: 2
Fore
SplineSet
516.211914062 690.620117188 m 1
 356.84375 0.3203125 l 1
 222.153320312 0.3203125 l 1
 170.642578125 321.384765625 l 1
 96.51953125 0.3203125 l 1
 -40.9560546875 0.3203125 l 1
 118.412109375 690.620117188 l 1
 253.1953125 690.620117188 l 1
 301.447265625 355.840820312 l 1
 378.737304688 690.620117188 l 1
 516.211914062 690.620117188 l 1
EndSplineSet
EndChar

StartChar: O
Encoding: 79 79 49
Width: 468
GlyphClass: 2
Flags: MW
HStem: -7.48047 125.774<171.186 179.756> 574.594 125.776<290.459 296.08>
VStem: 39.0596 137.475 301.334 137.476
LayerCount: 2
Fore
SplineSet
-0.0615234375 194.344726562 m 2
 69.943359375 497.5703125 l 2
 85.01953125 562.874023438 115.255859375 613.916015625 161.330078125 648.822265625 c 0
 206.928710938 683.366210938 260.379882812 700.370117188 320.538085938 700.370117188 c 0
 378.809570312 700.370117188 422.6953125 683.306640625 450.698242188 648.681640625 c 0
 478.959960938 613.735351562 484.749023438 562.783203125 469.693359375 497.5703125 c 2
 399.688476562 194.344726562 l 2
 384.895507812 130.268554688 354.548828125 79.7294921875 308.153320312 44.5576171875 c 0
 262.2265625 9.7412109375 209.220703125 -7.48046875 150.291992188 -7.48046875 c 0
 90.7744140625 -7.48046875 46.3623046875 9.541015625 18.646484375 44.23828125 c 0
 -9.259765625 79.171875 -14.96875 129.775390625 -0.0615234375 194.344726562 c 2
140.564453125 207.994140625 m 2
 121.495117188 125.3984375 159.141601562 118.293945312 183.23046875 118.293945312 c 0
 203.604492188 118.293945312 219.512695312 125.541015625 233.2890625 140.37109375 c 0
 247.36328125 155.521484375 258.408203125 177.865234375 265.364257812 207.995117188 c 2
 327.715820312 478.0703125 l 2
 349.80078125 573.73046875 303.584960938 574.59375 288.575195312 574.59375 c 0
 263.397460938 574.59375 223.779296875 568.438476562 202.916015625 478.069335938 c 2
 140.564453125 207.994140625 l 2
EndSplineSet
EndChar

StartChar: P
Encoding: 80 80 50
Width: 434
GlyphClass: 2
Flags: MW
HStem: 0.320312 21G<-40.9561 95.5439 -40.9561 -40.9561> 248.945 125.774<181.981 206.568 152.943 231.707> 565.82 124.8<226.101 275.826 226.101 226.101>
VStem: 42.959 136.5 288.66 137.475
LayerCount: 2
Fore
SplineSet
450.715820312 470.26953125 m 0
 433.961914062 397.69921875 406.598632812 342.211914062 367.125 304.794921875 c 0
 327.213867188 266.962890625 273.02734375 248.9453125 206.568359375 248.9453125 c 2
 152.943359375 248.9453125 l 1
 95.5439453125 0.3203125 l 1
 -40.9560546875 0.3203125 l 1
 118.412109375 690.620117188 l 1
 308.537109375 690.620117188 l 2
 376.232421875 690.620117188 422.5078125 672.657226562 444.32421875 634.693359375 c 0
 465.818359375 597.293945312 467.317382812 542.180664062 450.715820312 470.26953125 c 0
313.241210938 470.26953125 m 0
 321.323242188 505.276367188 321.90234375 530.130859375 316.557617188 544.760742188 c 0
 311.56640625 558.42578125 299.241210938 565.8203125 275.826171875 565.8203125 c 2
 226.100585938 565.8203125 l 1
 181.981445312 374.719726562 l 1
 231.70703125 374.719726562 l 2
 255.122070312 374.719726562 270.861328125 382.11328125 282.163085938 395.779296875 c 0
 294.26171875 410.409179688 305.159179688 435.263671875 313.241210938 470.26953125 c 0
EndSplineSet
EndChar

StartChar: Q
Encoding: 81 81 51
Width: 468
GlyphClass: 2
Flags: MW
HStem: 574.594 125.776<290.459 296.08>
VStem: 39.0596 137.475 301.334 137.476
LayerCount: 2
Fore
SplineSet
-0.0615234375 194.344726562 m 2
 69.943359375 497.5703125 l 2
 85.01953125 562.874023438 115.255859375 613.916015625 161.330078125 648.822265625 c 0
 206.928710938 683.366210938 260.379882812 700.370117188 320.538085938 700.370117188 c 0
 378.809570312 700.370117188 422.6953125 683.306640625 450.698242188 648.681640625 c 0
 478.959960938 613.735351562 484.749023438 562.783203125 469.693359375 497.5703125 c 2
 399.688476562 194.344726562 l 2
 390.122070312 152.909179688 373.829101562 117.091796875 350.477539062 87.2529296875 c 0
 329.086914062 59.919921875 303.555664062 38.2646484375 274.282226562 22.7099609375 c 1
 290.189453125 -100.4765625 l 1
 162.338867188 -143.557617188 l 1
 145.080078125 -7.4365234375 l 1
 88.1767578125 -6.4638671875 45.5478515625 10.5615234375 18.646484375 44.2373046875 c 0
 -9.259765625 79.1708984375 -14.96875 129.775390625 -0.0615234375 194.344726562 c 2
140.564453125 207.994140625 m 2
 121.495117188 125.3984375 159.141601562 118.293945312 183.23046875 118.293945312 c 0
 203.603515625 118.293945312 219.512695312 125.541992188 233.2890625 140.372070312 c 0
 247.36328125 155.522460938 258.408203125 177.865234375 265.364257812 207.995117188 c 2
 327.715820312 478.0703125 l 2
 349.80078125 573.73046875 303.584960938 574.59375 288.575195312 574.59375 c 0
 263.397460938 574.59375 223.779296875 568.438476562 202.916015625 478.069335938 c 2
 140.564453125 207.994140625 l 2
EndSplineSet
EndChar

StartChar: R
Encoding: 82 82 52
Width: 460
GlyphClass: 2
Flags: MW
HStem: 0.320312 21G<-40.9561 96.5195 -40.9561 -40.9561 223.65 367.187 223.65 223.65> 565.82 124.8<227.075 227.075 227.075 280.7>
VStem: 42.959 137.476 288.659 137.475
LayerCount: 2
Fore
SplineSet
453.190429688 480.995117188 m 0
 425.158203125 359.57421875 371.612304688 317.53515625 333.756835938 297.55859375 c 1
 367.186523438 0.3203125 l 1
 223.650390625 0.3203125 l 1
 201.177734375 270.39453125 l 1
 158.87109375 270.39453125 l 1
 96.51953125 0.3203125 l 1
 -40.9560546875 0.3203125 l 1
 118.412109375 690.620117188 l 1
 310.487304688 690.620117188 l 2
 377.9921875 690.620117188 424.2109375 674.484375 446.276367188 639.815429688 c 0
 468.115234375 605.500976562 469.627929688 552.190429688 453.190429688 480.995117188 c 0
227.075195312 565.8203125 m 1
 187.68359375 395.1953125 l 1
 241.30859375 395.1953125 l 2
 263.459960938 395.1953125 277.83984375 402.112304688 287.900390625 414.651367188 c 0
 298.989257812 428.473632812 308.696289062 450.58984375 315.715820312 480.995117188 c 0
 322.743164062 511.431640625 323.359375 533.428710938 318.891601562 546.90234375 c 0
 314.908203125 558.912109375 303.668945312 565.8203125 280.700195312 565.8203125 c 2
 227.075195312 565.8203125 l 1
EndSplineSet
EndChar

StartChar: S
Encoding: 83 83 53
Width: 427
GlyphClass: 2
Flags: MW
HStem: -7.48047 120.899<129.26 157.611> 580.444 120.899<266.562 278.25>
VStem: 20.5342 130.312 26.3828 134.551 274.033 134.55
LayerCount: 2
Fore
SplineSet
267.5 580.444335938 m 0xd8
 241.223632812 580.444335938 208.874023438 571.44921875 195.193359375 512.194335938 c 0xd8
 186.204101562 473.255859375 194.165039062 449.03515625 240.41796875 426.618164062 c 2
 279.791015625 407.118164062 l 2
 373.389648438 360.762695312 392.612304688 294.62109375 369.912109375 196.294921875 c 0
 355.163085938 132.412109375 326.7734375 81.79296875 283.994140625 45.9150390625 c 0
 241.189453125 10.0166015625 188.330078125 -7.48046875 126.892578125 -7.48046875 c 0
 66.0517578125 -7.48046875 22.212890625 10.4013671875 -2.5400390625 47.0830078125 c 0
 -27.2041015625 83.6328125 -31.5341796875 135.387695312 -17.0322265625 201.079101562 c 2
 -15.07421875 209.944335938 l 1
 115.327148438 209.944335938 l 1xe8
 106.518554688 163.985351562 100.791015625 113.418945312 157.728515625 113.418945312 c 0
 190.415039062 113.418945312 219.188476562 126.23828125 234.912109375 194.34375 c 0
 240.609375 219.021484375 239.189453125 237.541992188 231.79296875 250.834960938 c 0
 224.241210938 264.408203125 208.344726562 277.971679688 183.375 290.653320312 c 0
 183.328125 290.67578125 142.271484375 311.130859375 142.271484375 311.130859375 c 2
 57.171875 353.627929688 37.6572265625 412.630859375 59.2919921875 506.34375 c 0
 72.7451171875 564.61328125 100.81640625 612.295898438 143.709960938 647.98046875 c 0
 186.661132812 683.712890625 237.7109375 701.34375 295.412109375 701.34375 c 0
 352.44921875 701.34375 393.930664062 683.865234375 417.876953125 648.233398438 c 0
 441.7578125 612.700195312 446.5390625 562.178710938 433.67578125 497.844726562 c 2
 431.866210938 488.793945312 l 1
 304.05078125 488.793945312 l 1
 308.267578125 508.916015625 314.924804688 540.676757812 306.004882812 561.484375 c 0
 300.735351562 573.774414062 289.000976562 580.444335938 267.5 580.444335938 c 0xd8
EndSplineSet
EndChar

StartChar: T
Encoding: 84 84 54
Width: 371
GlyphClass: 2
Flags: MW
HStem: 0.320312 21G<38.9941 175.494 38.9941 38.9941> 564.845 125.775<81.3623 169.324 52.3242 450.888 305.824 305.824 305.824 421.85>
VStem: 122.909 136.5
LayerCount: 2
Fore
SplineSet
169.32421875 564.844726562 m 1
 52.32421875 564.844726562 l 1
 81.3623046875 690.620117188 l 1
 450.887695312 690.620117188 l 1
 421.849609375 564.844726562 l 1
 305.82421875 564.844726562 l 1
 175.494140625 0.3203125 l 1
 38.994140625 0.3203125 l 1
 169.32421875 564.844726562 l 1
EndSplineSet
EndChar

StartChar: U
Encoding: 85 85 55
Width: 460
GlyphClass: 2
Flags: MW
HStem: -7.48047 125.776<162.415 189.909 162.415 204.091> 670.621 20G<118.412 255.888 255.888 255.888 365.087 502.562 502.562 502.562>
VStem: 42.959 137.476 289.634 137.476
LayerCount: 2
Fore
SplineSet
149.317382812 -7.48046875 m 0
 37.2607421875 -7.48046875 -24.541015625 71.4228515625 1.8125 185.571289062 c 2
 118.412109375 690.62109375 l 1
 255.887695312 690.62109375 l 1
 139.962890625 188.49609375 l 2
 126.932617188 132.056640625 146.474609375 118.295898438 178.35546875 118.295898438 c 0
 201.462890625 118.295898438 234.62109375 125.510742188 249.162109375 188.49609375 c 2
 365.086914062 690.62109375 l 1
 502.5625 690.62109375 l 1
 385.962890625 185.571289062 l 2
 358.66796875 67.345703125 258.864257812 -7.48046875 149.317382812 -7.48046875 c 0
EndSplineSet
EndChar

StartChar: V
Encoding: 86 86 56
Width: 449
GlyphClass: 2
Flags: MW
HStem: 0.320312 21G<76.8203 214.693 76.8203 76.8203> 670.62 20G<81.1211 231.189 231.189 231.189 379.074 529.129 529.129 529.129>
LayerCount: 2
Fore
SplineSet
81.12109375 690.620117188 m 1
 231.189453125 690.620117188 l 1
 199.197265625 233.68359375 l 1
 379.07421875 690.620117188 l 1
 529.12890625 690.620117188 l 1
 214.693359375 0.3203125 l 1
 76.8203125 0.3203125 l 1
 81.12109375 690.620117188 l 1
EndSplineSet
EndChar

StartChar: W
Encoding: 87 87 57
Width: 669
GlyphClass: 2
Flags: MW
HStem: 0.320312 21G<45.2939 188.688 45.2939 45.2939 321.209 465.595 321.209 321.209> 670.62 20G<81.6084 221.672 221.672 221.672 334.923 496.652 496.652 496.652 609.902 748.016 748.016 748.016>
LayerCount: 2
Fore
SplineSet
321.208984375 0.3203125 m 1
 341.295898438 372.43359375 l 1
 188.6875 0.3203125 l 1
 45.2939453125 0.3203125 l 1
 81.6083984375 690.620117188 l 1
 221.671875 690.620117188 l 1
 176.948242188 247.915039062 l 1
 334.922851562 690.620117188 l 1
 496.65234375 690.620117188 l 1
 450.211914062 247.915039062 l 1
 609.90234375 690.620117188 l 1
 748.015625 690.620117188 l 1
 465.594726562 0.3203125 l 1
 321.208984375 0.3203125 l 1
EndSplineSet
EndChar

StartChar: X
Encoding: 88 88 58
Width: 416
GlyphClass: 2
Flags: MW
HStem: 0.320312 21G<-80.1699 -80.1699 -80.1699 57.0039 201.334 201.334 201.334 338.533> 670.62 20G<88.9395 226.167 226.167 226.167 350.905 488.159 488.159 488.159>
LayerCount: 2
Fore
SplineSet
-80.169921875 0.3203125 m 1
 143.370117188 358.141601562 l 1
 88.939453125 690.620117188 l 1
 226.166992188 690.620117188 l 1
 244.862304688 499.53125 l 1
 350.905273438 690.620117188 l 1
 488.159179688 690.620117188 l 1
 280.211914062 358.141601562 l 1
 338.533203125 0.3203125 l 1
 201.333984375 0.3203125 l 1
 179.495117188 216.3671875 l 1
 57.00390625 0.3203125 l 1
 -80.169921875 0.3203125 l 1
EndSplineSet
EndChar

StartChar: Y
Encoding: 89 89 59
Width: 416
GlyphClass: 2
Flags: MW
HStem: 0.320312 21G<60.4443 197.919 60.4443 60.4443> 670.62 20G<79.9014 230.565 230.565 230.565 345.56 497.18 497.18 497.18>
VStem: 144.359 137.475
LayerCount: 2
Fore
SplineSet
345.559570312 690.620117188 m 1
 497.1796875 690.620117188 l 1
 260.166015625 269.943359375 l 1
 197.918945312 0.3203125 l 1
 60.4443359375 0.3203125 l 1
 123.140625 271.887695312 l 1
 79.9013671875 690.620117188 l 1
 230.565429688 690.620117188 l 1
 234.96484375 460.631835938 l 1
 345.559570312 690.620117188 l 1
EndSplineSet
EndChar

StartChar: Z
Encoding: 90 90 60
Width: 361
GlyphClass: 2
Flags: MW
HStem: 0.320312 125.774<108.443 267.145> 564.845 125.775<107.688 253.687 78.6494 422.612>
VStem: 22.4844 328.575
LayerCount: 2
Fore
SplineSet
296.181640625 126.094726562 m 1
 267.14453125 0.3203125 l 1
 -61.4306640625 0.3203125 l 1
 -34.015625 119.0703125 l 1
 253.686523438 564.844726562 l 1
 78.6494140625 564.844726562 l 1
 107.6875 690.620117188 l 1
 422.612304688 690.620117188 l 1
 395.198242188 571.877929688 l 1
 108.443359375 126.094726562 l 1
 296.181640625 126.094726562 l 1
EndSplineSet
EndChar

StartChar: bracketleft
Encoding: 91 91 61
Width: 287
GlyphClass: 2
Flags: MW
HStem: -81.5801 125.775<97.873 155.611> 613.595 125.775<229.329 316.104 229.329 229.329>
VStem: 42.959 128.7 42.959 215.476
LayerCount: 2
Fore
SplineSet
129.666992188 739.370117188 m 1xd0
 345.142578125 739.370117188 l 1
 316.104492188 613.594726562 l 1xd0
 229.329101562 613.594726562 l 1
 97.873046875 44.1953125 l 1xe0
 184.6484375 44.1953125 l 1
 155.611328125 -81.580078125 l 1
 -59.8642578125 -81.580078125 l 1
 129.666992188 739.370117188 l 1xd0
EndSplineSet
Substitution2: "'rtla' Right to Left Alternates lookup 0 subtable" bracketright
EndChar

StartChar: backslash
Encoding: 92 92 62
Width: 302
GlyphClass: 2
Flags: MW
HStem: 678.42 20G<114.554 221.114 221.114 221.114>
VStem: 37.2998 237.533
LayerCount: 2
Fore
SplineSet
114.553710938 698.419921875 m 1
 221.114257812 698.419921875 l 1
 188.666992188 -9.4296875 l 1
 81.1064453125 -9.4296875 l 1
 114.553710938 698.419921875 l 1
EndSplineSet
EndChar

StartChar: bracketright
Encoding: 93 93 63
Width: 287
GlyphClass: 2
Flags: MW
HStem: -81.5801 125.775<-34.7266 51.0732 -34.7266 151.711 -63.7637 51.0732> 613.595 125.775<125.768 182.529 96.7295 341.242>
VStem: 39.0596 215.475 124.859 129.675
LayerCount: 2
Fore
SplineSet
182.529296875 613.594726562 m 1xd0
 96.7294921875 613.594726562 l 1
 125.767578125 739.370117188 l 1
 341.2421875 739.370117188 l 1
 151.7109375 -81.580078125 l 1
 -63.763671875 -81.580078125 l 1
 -34.7265625 44.1953125 l 1xe0
 51.0732421875 44.1953125 l 1
 182.529296875 613.594726562 l 1xd0
EndSplineSet
Substitution2: "'rtla' Right to Left Alternates lookup 0 subtable" bracketleft
EndChar

StartChar: asciicircum
Encoding: 94 94 64
Width: 420
GlyphClass: 2
Flags: MW
HStem: 678.42 20G<236.581 339.245 339.245 339.245>
LayerCount: 2
Fore
SplineSet
236.581054688 698.419921875 m 1
 339.245117188 698.419921875 l 1
 372.055664062 272.344726562 l 1
 264.908203125 272.344726562 l 1
 247.749023438 524.451171875 l 1
 114.18359375 272.344726562 l 1
 7.0361328125 272.344726562 l 1
 236.581054688 698.419921875 l 1
EndSplineSet
EndChar

StartChar: underscore
Encoding: 95 95 65
Width: 426
GlyphClass: 2
Flags: MW
HStem: -113.755 84.8252<-88.6592 323.683 -108.243 343.267>
LayerCount: 2
Fore
SplineSet
-88.6591796875 -28.9296875 m 1
 343.266601562 -28.9296875 l 1
 323.682617188 -113.754882812 l 1
 -108.243164062 -113.754882812 l 1
 -88.6591796875 -28.9296875 l 1
EndSplineSet
EndChar

StartChar: grave
Encoding: 96 96 66
Width: 499
GlyphClass: 2
Flags: MW
HStem: 575.57 150.149<311.232 354.256 210.101 428.891 311.232 311.232>
VStem: 126.544 253.455
LayerCount: 2
Fore
SplineSet
210.100585938 725.719726562 m 1
 354.255859375 725.719726562 l 1
 428.890625 575.5703125 l 1
 311.232421875 575.5703125 l 1
 210.100585938 725.719726562 l 1
EndSplineSet
EndChar

StartChar: a
Encoding: 97 97 67
Width: 406
GlyphClass: 2
Flags: MW
HStem: -7.48145 116.024<61.5732 155.152> 0.319336 21G<167.695 290.545 167.695 167.695> 223.594 96.5254<163.833 233.727 199.602 211.441> 423.47 117<224.923 226.217>
VStem: 31.2607 130.65 44.9102 121.875 243.811 130.65
LayerCount: 2
Fore
SplineSet
218.586914062 423.469726562 m 0xba
 208.100585938 423.469726562 179.719726562 419.825195312 170.8828125 381.544921875 c 2
 167.055664062 364.969726562 l 1
 45.1806640625 364.969726562 l 1
 48.1064453125 377.64453125 l 2
 60.1845703125 429.958007812 84.572265625 471.108398438 121.943359375 499.188476562 c 0
 158.752929688 526.84765625 201.323242188 540.469726562 248.5234375 540.469726562 c 0
 300.307617188 540.469726562 338.287109375 524.995117188 360.561523438 493.319335938 c 0
 382.713867188 461.817382812 387.334960938 419.561523438 375.40625 367.893554688 c 2
 290.544921875 0.3193359375 l 1
 167.6953125 0.3193359375 l 1x76
 174.149414062 28.2724609375 l 1
 145.463867188 4.0732421875 121.48046875 -7.4814453125 83.994140625 -7.4814453125 c 0
 39.15234375 -7.4814453125 7.1884765625 7.421875 -9.482421875 37.8330078125 c 0
 -25.94140625 67.857421875 -27.576171875 108.94921875 -15.7392578125 160.21875 c 0
 -4.2197265625 210.114257812 20.3876953125 250.111328125 58.32421875 278.379882812 c 0
 96.2236328125 306.62109375 143.65234375 320.119140625 199.6015625 320.119140625 c 2
 233.7265625 320.119140625 l 1
 246.782226562 376.668945312 l 2
 256.584960938 419.131835938 233.84765625 423.469726562 218.586914062 423.469726562 c 0xba
143.930664062 108.54296875 m 0xba
 166.374023438 108.54296875 189.133789062 126.96484375 197.486328125 163.143554688 c 2
 211.44140625 223.59375 l 1
 190.966796875 223.59375 l 2
 136.698242188 223.59375 122.552734375 193.31640625 116.036132812 165.092773438 c 0
 103.418945312 110.44140625 131.986328125 108.54296875 143.930664062 108.54296875 c 0xba
EndSplineSet
EndChar

StartChar: b
Encoding: 98 98 68
Width: 411
GlyphClass: 2
Flags: MW
HStem: -7.48047 118.949<146.137 162.804 140.601 182.609> 0.318359 21G<-41.9326 84.8174 -41.9326 -41.9326> 421.519 118.949<216.422 311.361> 670.618 20G<117.436 248.085 248.085 248.085>
VStem: 41.9834 128.699 251.608 130.65
LayerCount: 2
Fore
SplineSet
206.176757812 509.090820312 m 1x7c
 227.421875 526.817382812 255.456054688 540.467773438 291.419921875 540.467773438 c 0
 331.302734375 540.467773438 360.725585938 526.0390625 377.916992188 497.314453125 c 0
 395.323242188 468.224609375 396.109375 423.791992188 382.529296875 364.96875 c 2
 337.059570312 168.018554688 l 2
 323.46875 109.150390625 301.618164062 64.6142578125 269.720703125 35.5302734375 c 0
 238.393554688 6.966796875 202.250976562 -7.48046875 162.967773438 -7.48046875 c 0xbc
 129.305664062 -7.48046875 107.668945312 3.7236328125 90.2021484375 23.640625 c 1
 84.8173828125 0.318359375 l 1
 -41.9326171875 0.318359375 l 1
 117.435546875 690.618164062 l 1
 248.084960938 690.618164062 l 1
 206.176757812 509.090820312 l 1x7c
153.376953125 111.46875 m 0
 172.231445312 111.46875 195.21875 119.545898438 210.686523438 186.543945312 c 2
 247.6015625 346.444335938 l 2
 263.668945312 416.0390625 241.045898438 421.518554688 224.958984375 421.518554688 c 0
 207.885742188 421.518554688 182.393554688 414.5234375 166.67578125 346.444335938 c 2
 129.760742188 186.543945312 l 2
 117.001953125 131.280273438 127.825195312 111.46875 153.376953125 111.46875 c 0
EndSplineSet
EndChar

StartChar: c
Encoding: 99 99 69
Width: 408
GlyphClass: 2
Flags: MW
HStem: -7.48047 118.95<143.866 152.382> 421.52 118.95<224.99 240.863>
VStem: 39.0596 130.65 252.585 126.75
LayerCount: 2
Fore
SplineSet
152.405273438 111.469726562 m 0
 169.815429688 111.469726562 195.873046875 118.150390625 208.286132812 171.919921875 c 2
 214.138671875 197.26953125 l 1
 340.888671875 197.26953125 l 1
 335.036132812 171.919921875 l 2
 321.53125 113.422851562 297.139648438 68.142578125 260.6171875 37.6142578125 c 0
 224.233398438 7.203125 178.846679688 -7.48046875 125.91796875 -7.48046875 c 0
 71.0517578125 -7.48046875 31.2314453125 7.681640625 8.455078125 39.1103515625 c 0
 -14.529296875 70.82421875 -17.0419921875 120.794921875 -1.6376953125 187.51953125 c 2
 34.828125 345.469726562 l 2
 50.2333984375 412.1953125 75.8193359375 462.165039062 113.447265625 493.879882812 c 0
 150.735351562 525.30859375 197.556640625 540.469726562 252.422851562 540.469726562 c 0
 325.53125 540.469726562 413.525390625 511.893554688 379.380859375 363.995117188 c 2
 372.852539062 335.719726562 l 1
 246.102539062 335.719726562 l 1
 252.180664062 362.044921875 l 2
 259.526367188 393.862304688 256.764648438 421.51953125 224.9609375 421.51953125 c 0
 206.985351562 421.51953125 181.491210938 414.826171875 165.704101562 346.4453125 c 2
 128.788085938 186.544921875 l 2
 113.072265625 118.47265625 135.327148438 111.469726562 152.405273438 111.469726562 c 0
EndSplineSet
EndChar

StartChar: d
Encoding: 100 100 70
Width: 411
GlyphClass: 2
Flags: MW
HStem: -7.48047 118.952<67.9507 165.183> 0.320312 21G<169.645 295.419 169.645 169.645> 421.521 118.948<214.968 223.111 192.507 232.006> 670.62 20G<325.112 454.787 454.787 454.787>
VStem: 39.0605 130.651 251.611 127.723
LayerCount: 2
Fore
SplineSet
212.44921875 540.469726562 m 0xbc
 233.772460938 540.469726562 263.700195312 535.098632812 283.17578125 508.974609375 c 1
 325.112304688 690.620117188 l 1
 454.787109375 690.620117188 l 1
 295.418945312 0.3203125 l 1
 169.64453125 0.3203125 l 1x7c
 175.0078125 23.5537109375 l 1
 147.309570312 3.107421875 118.004882812 -7.48046875 87.8935546875 -7.48046875 c 0
 48.0078125 -7.48046875 18.1865234375 6.9296875 0.0244140625 35.5302734375 c 0
 -18.4443359375 64.6142578125 -19.728515625 109.15234375 -6.138671875 168.020507812 c 2
 39.3310546875 364.970703125 l 2
 52.9150390625 423.80859375 74.4013671875 468.276367188 105.592773438 497.364257812 c 0
 136.350585938 526.047851562 172.565429688 540.469726562 212.44921875 540.469726562 c 0xbc
128.790039062 186.546875 m 2
 113.220703125 119.107421875 132.720703125 111.471679688 152.407226562 111.471679688 c 0xbc
 177.958984375 111.471679688 197.930664062 131.283203125 210.689453125 186.546875 c 2
 247.60546875 346.447265625 l 2
 263.390625 414.818359375 240.999023438 421.521484375 223.012695312 421.521484375 c 0
 206.922851562 421.521484375 181.772460938 416.037109375 165.706054688 346.447265625 c 2
 128.790039062 186.546875 l 2
EndSplineSet
EndChar

StartChar: e
Encoding: 101 101 71
Width: 412
GlyphClass: 2
Flags: MW
HStem: -7.48047 116.999<147.104 152.357> 217.745 99.4492<158.949 241.824 158.949 349.516 135.99 241.824> 421.519 118.951<215.437 232.972>
VStem: 39.0586 130.648 252.583 130.651
LayerCount: 2
Fore
SplineSet
31.0009765625 328.89453125 m 2
 48.91015625 406.46875 93.40625 540.469726562 249.497070312 540.469726562 c 0
 304.024414062 540.469726562 343.625976562 523.067382812 366.298828125 487.734375 c 0
 389.076171875 452.23828125 391.337890625 398.899414062 375.176757812 328.89453125 c 2
 349.515625 217.745117188 l 1
 135.990234375 217.745117188 l 1
 133.063476562 205.069335938 130.135742188 192.39453125 127.208984375 179.71875 c 0
 111.22265625 110.473632812 141.28125 109.518554688 152.926757812 109.518554688 c 0
 168.102539062 109.518554688 194.686523438 113.024414062 206.932617188 166.069335938 c 2
 210.083984375 179.71875 l 1
 336.833984375 179.71875 l 1
 333.458007812 165.09375 l 2
 320.676757812 109.735351562 296.623046875 66.3603515625 260.299804688 36.5654296875 c 0
 224.055664062 6.8359375 178.799804688 -7.48046875 125.915039062 -7.48046875 c 0
 72.1484375 -7.48046875 32.8662109375 8.8388671875 10.009765625 42.1689453125 c 0
 -13.130859375 75.912109375 -14.91796875 129.998046875 1.962890625 203.120117188 c 2
 31.0009765625 328.89453125 l 2
223.984375 421.518554688 m 0
 206.889648438 421.518554688 181.413085938 414.498046875 165.701171875 346.444335938 c 2
 158.94921875 317.194335938 l 1
 241.82421875 317.194335938 l 1
 248.576171875 346.444335938 l 2
 264.364257812 414.828125 241.958984375 421.518554688 223.984375 421.518554688 c 0
EndSplineSet
EndChar

StartChar: f
Encoding: 102 102 72
Width: 291
GlyphClass: 2
Flags: MW
HStem: 0.320312 21G<-3.90625 125.77 -3.90625 -3.90625> 436.145 96.5254<67.3213 96.7109 45.0361 118.996 248.672 295.611> 593.12 97.5<298.87 308.452 308.452 331.853>
VStem: 80.0088 129.676
LayerCount: 2
Fore
SplineSet
123.72265625 553.14453125 m 2
 138.866210938 618.735351562 180.86328125 690.620117188 296.836914062 690.620117188 c 2
 354.362304688 690.620117188 l 1
 331.852539062 593.120117188 l 1
 308.452148438 593.120117188 l 2
 289.287109375 593.120117188 276.900390625 588.875976562 270.061523438 583.140625 c 0
 263.141601562 577.336914062 256.189453125 565.234375 251.59765625 545.344726562 c 2
 248.671875 532.669921875 l 1
 317.896484375 532.669921875 l 1
 295.611328125 436.14453125 l 1
 226.38671875 436.14453125 l 1
 125.76953125 0.3203125 l 1
 -3.90625 0.3203125 l 1
 96.7109375 436.14453125 l 1
 45.0361328125 436.14453125 l 1
 67.3212890625 532.669921875 l 1
 118.99609375 532.669921875 l 1
 123.72265625 553.14453125 l 2
EndSplineSet
EndChar

StartChar: g
Encoding: 103 103 73
Width: 411
GlyphClass: 2
Flags: MW
HStem: -163.48 115.051<106.765 114.86> -19.6797 20G<-36.3184 86.7715 86.7715 86.7715> 40.2959 118.95<78.9839 176.213> 421.521 118.948<214.969 223.112 192.508 232.007> 512.669 20G<288.647 418.322 418.322 418.322>
VStem: 39.0615 130.651 251.612 127.723
LayerCount: 2
Fore
SplineSet
212.450195312 540.46875 m 0xf6
 233.7734375 540.46875 263.701171875 535.09765625 283.176757812 508.973632812 c 1
 288.647460938 532.668945312 l 1
 418.322265625 532.668945312 l 1xee
 298.795898438 14.9443359375 l 2
 286.423828125 -38.6435546875 261.661132812 -82.345703125 224.0859375 -114.837890625 c 0
 186.372070312 -147.450195312 140.791015625 -163.48046875 88.9287109375 -163.48046875 c 0
 59.9716796875 -163.48046875 -69.2197265625 -161.080078125 -38.1572265625 -8.6962890625 c 2
 -36.318359375 0.3203125 l 1
 86.771484375 0.3203125 l 1
 84.7451171875 -8.455078125 l 2
 77.0087890625 -41.9638671875 97.0625 -48.4296875 116.466796875 -48.4296875 c 0
 130.84765625 -48.4296875 159.290039062 -44.537109375 170.546875 4.220703125 c 2
 186.040039062 71.330078125 l 1
 158.341796875 50.8828125 129.038085938 40.2958984375 98.9267578125 40.2958984375 c 0
 59.041015625 40.2958984375 29.2197265625 54.705078125 11.056640625 83.306640625 c 0
 -7.4111328125 112.389648438 -8.6982421875 156.92578125 4.892578125 215.794921875 c 2
 39.33203125 364.969726562 l 2
 52.916015625 423.807617188 74.4013671875 468.275390625 105.59375 497.36328125 c 0
 136.3515625 526.046875 172.56640625 540.46875 212.450195312 540.46875 c 0xf6
139.821289062 234.321289062 m 2
 124.250976562 166.881835938 143.750976562 159.24609375 163.4375 159.24609375 c 0
 188.989257812 159.24609375 208.961914062 179.057617188 221.720703125 234.321289062 c 2
 247.606445312 346.446289062 l 2
 263.390625 414.817382812 241 421.520507812 223.013671875 421.520507812 c 0xf6
 206.923828125 421.520507812 181.7734375 416.036132812 165.70703125 346.446289062 c 2
 139.821289062 234.321289062 l 2
EndSplineSet
EndChar

StartChar: h
Encoding: 104 104 74
Width: 411
GlyphClass: 2
Flags: MW
HStem: 0.320312 21G<-41.9307 88.7188 -41.9307 -41.9307 164.771 164.771 164.771 295.42> 421.52 118.949<212.473 306.314> 670.62 20G<117.438 248.086 248.086 248.086>
VStem: 41.9844 130.649 248.686 130.649
LayerCount: 2
Fore
SplineSet
223.986328125 421.51953125 m 0
 200.958984375 421.51953125 182.608398438 407.001953125 175.380859375 375.6953125 c 2
 88.71875 0.3203125 l 1
 -41.9306640625 0.3203125 l 1
 117.4375 690.620117188 l 1
 248.0859375 690.620117188 l 1
 206.817382812 511.868164062 l 1
 232.744140625 530.62109375 259.208007812 540.46875 285.572265625 540.46875 c 0
 327.056640625 540.46875 417.978515625 531.180664062 382.306640625 376.669921875 c 2
 295.419921875 0.3203125 l 1
 164.770507812 0.3203125 l 1
 251.432617188 375.6953125 l 2
 255.158203125 391.8359375 253.704101562 402.866210938 248.583007812 410.180664062 c 0
 243.240234375 417.811523438 235.509765625 421.51953125 223.986328125 421.51953125 c 0
EndSplineSet
EndChar

StartChar: i
Encoding: 105 105 75
Width: 212
GlyphClass: 2
Flags: MW
HStem: 0.320312 21G<-38.0312 92.6191 -38.0312 -38.0312> 512.67 20G<84.8711 215.521 215.521 215.521> 578.495 112.125<121.337 226.101 95.4502 251.987>
VStem: 45.8838 130.65
LayerCount: 2
Fore
SplineSet
84.87109375 532.669921875 m 1
 215.521484375 532.669921875 l 1
 92.619140625 0.3203125 l 1
 -38.03125 0.3203125 l 1
 84.87109375 532.669921875 l 1
121.336914062 690.620117188 m 1
 251.987304688 690.620117188 l 1
 226.100585938 578.495117188 l 1
 95.4501953125 578.495117188 l 1
 121.336914062 690.620117188 l 1
EndSplineSet
EndChar

StartChar: j
Encoding: 106 106 76
Width: 212
GlyphClass: 2
Flags: MW
HStem: -153.73 118.95<-140.871 -99.7598 -140.871 -99.7598> 512.67 20G<84.8711 215.521 215.521 215.521> 578.495 112.125<121.337 226.101 95.4502 251.987>
VStem: 45.8838 130.65
LayerCount: 2
Fore
SplineSet
121.336914062 690.620117188 m 1
 251.987304688 690.620117188 l 1
 226.100585938 578.495117188 l 1
 95.4501953125 578.495117188 l 1
 121.336914062 690.620117188 l 1
95.9951171875 14.9453125 m 2
 75.232421875 -74.9892578125 16.33984375 -153.73046875 -126.24609375 -153.73046875 c 2
 -140.87109375 -153.73046875 l 1
 -113.409179688 -34.7802734375 l 1
 -99.759765625 -34.7802734375 l 2
 -68.685546875 -34.7802734375 -43.2783203125 -22.404296875 -33.080078125 21.76953125 c 2
 84.87109375 532.669921875 l 1
 215.521484375 532.669921875 l 1
 95.9951171875 14.9453125 l 2
EndSplineSet
EndChar

StartChar: k
Encoding: 107 107 77
Width: 420
GlyphClass: 2
Flags: MW
HStem: 0.320312 21G<-41.9307 88.7188 -41.9307 -41.9307 194.901 339.046 194.901 194.901> 512.67 20G<320.668 459.87 459.87 459.87> 670.62 20G<117.438 248.087 248.087 248.087>
VStem: 41.9844 130.649
LayerCount: 2
Fore
SplineSet
194.901367188 0.3203125 m 1
 161.983398438 194.953125 l 1
 123.678710938 151.75 l 1
 88.71875 0.3203125 l 1
 -41.9306640625 0.3203125 l 1
 117.4375 690.620117188 l 1
 248.086914062 690.620117188 l 1
 168.663085938 346.598632812 l 1
 320.66796875 532.669921875 l 1
 459.870117188 532.669921875 l 1
 273.169921875 321.2421875 l 1
 339.045898438 0.3203125 l 1
 194.901367188 0.3203125 l 1
EndSplineSet
EndChar

StartChar: l
Encoding: 108 108 78
Width: 245
GlyphClass: 2
Flags: MW
HStem: 0.320312 118.949<107.559 183.455 141.369 183.455> 670.62 20G<117.438 248.087 248.087 248.087>
VStem: 41.9844 130.649
LayerCount: 2
Fore
SplineSet
141.369140625 0.3203125 m 2
 73.7490234375 0.3203125 -38.0751953125 17.0234375 -2.9892578125 168.995117188 c 2
 117.4375 690.620117188 l 1
 248.086914062 690.620117188 l 1
 129.235351562 175.8203125 l 2
 119.037109375 131.643554688 138.732421875 119.26953125 169.8046875 119.26953125 c 2
 183.455078125 119.26953125 l 1
 155.994140625 0.3203125 l 1
 141.369140625 0.3203125 l 2
EndSplineSet
EndChar

StartChar: m
Encoding: 109 109 79
Width: 619
GlyphClass: 2
Flags: MW
HStem: 0.320312 21G<-41.9307 88.7188 -41.9307 -41.9307 164.771 164.771 164.771 295.42 371.47 371.47 371.47 502.12> 421.52 118.951<212.473 297.034> 512.67 20G<80.9717 206.747 206.747 206.747>
VStem: 41.9844 130.649 248.686 130.649 455.385 130.65
LayerCount: 2
Fore
SplineSet
223.986328125 421.51953125 m 0xdc
 200.958984375 421.51953125 182.608398438 407.001953125 175.380859375 375.6953125 c 2
 88.71875 0.3203125 l 1
 -41.9306640625 0.3203125 l 1
 80.9716796875 532.669921875 l 1
 206.747070312 532.669921875 l 1xbc
 201.236328125 508.80078125 l 1
 228.006835938 529.637695312 256.732421875 540.470703125 286.547851562 540.470703125 c 0
 307.51953125 540.470703125 352.734375 535.131835938 376.540039062 492.096679688 c 1
 394.96875 507.73046875 439.40625 540.470703125 488.373046875 540.470703125 c 0
 536.6640625 540.470703125 570.104492188 526.950195312 585.490234375 498.009765625 c 0
 600.510742188 469.75390625 601.1015625 429.055664062 589.006835938 376.669921875 c 2
 502.120117188 0.3203125 l 1
 371.469726562 0.3203125 l 1
 458.131835938 375.6953125 l 2
 461.857421875 391.8359375 460.404296875 402.866210938 455.282226562 410.180664062 c 0
 449.940429688 417.811523438 442.208984375 421.51953125 430.686523438 421.51953125 c 0
 413.62109375 421.51953125 390.434570312 411.874023438 382.08203125 375.6953125 c 2
 295.419921875 0.3203125 l 1
 164.770507812 0.3203125 l 1
 251.432617188 375.6953125 l 2
 255.158203125 391.8359375 253.704101562 402.866210938 248.583007812 410.180664062 c 0
 243.240234375 417.811523438 235.509765625 421.51953125 223.986328125 421.51953125 c 0xdc
EndSplineSet
EndChar

StartChar: n
Encoding: 110 110 80
Width: 411
GlyphClass: 2
Flags: MW
HStem: 0.320312 21G<-41.9307 88.7188 -41.9307 -41.9307 164.771 164.771 164.771 295.42> 421.52 118.95<212.473 320.742> 512.67 20G<80.9717 206.747 206.747 206.747>
VStem: 41.9844 130.649 248.686 130.649
LayerCount: 2
Fore
SplineSet
223.986328125 421.51953125 m 0xd8
 200.958984375 421.51953125 182.608398438 407.001953125 175.380859375 375.6953125 c 2
 88.71875 0.3203125 l 1
 -41.9306640625 0.3203125 l 1
 80.9716796875 532.669921875 l 1
 206.747070312 532.669921875 l 1xb8
 201.177734375 508.545898438 l 1
 228.18359375 529.501953125 256.578125 540.469726562 285.573242188 540.469726562 c 0
 355.91015625 540.469726562 411.993164062 505.256835938 382.306640625 376.669921875 c 2
 295.419921875 0.3203125 l 1
 164.770507812 0.3203125 l 1
 251.432617188 375.6953125 l 2
 255.158203125 391.8359375 253.704101562 402.866210938 248.583007812 410.180664062 c 0
 243.240234375 417.811523438 235.509765625 421.51953125 223.986328125 421.51953125 c 0xd8
EndSplineSet
EndChar

StartChar: o
Encoding: 111 111 81
Width: 412
GlyphClass: 2
Flags: MW
HStem: -7.48047 118.95<143.865 153.349> 421.52 118.95<224.99 232.974>
VStem: 39.0596 130.649 252.585 130.65
LayerCount: 2
Fore
SplineSet
-1.6376953125 187.51953125 m 2
 34.828125 345.469726562 l 2
 50.2333984375 412.1953125 75.8193359375 462.165039062 113.447265625 493.879882812 c 0
 150.735351562 525.30859375 197.556640625 540.469726562 252.422851562 540.469726562 c 0
 307.28515625 540.469726562 346.970703125 525.310546875 369.42578125 493.842773438 c 0
 392.060546875 462.122070312 394.405273438 412.180664062 379.00390625 345.469726562 c 2
 342.538085938 187.51953125 l 2
 327.13671875 120.809570312 301.732421875 70.8681640625 264.451171875 39.1474609375 c 0
 227.465820312 7.6796875 180.780273438 -7.48046875 125.91796875 -7.48046875 c 0
 71.0517578125 -7.48046875 31.2314453125 7.681640625 8.455078125 39.1103515625 c 0
 -14.529296875 70.82421875 -17.0419921875 120.794921875 -1.6376953125 187.51953125 c 2
152.404296875 111.469726562 m 0
 170.369140625 111.469726562 195.873046875 118.151367188 211.663085938 186.544921875 c 2
 248.579101562 346.4453125 l 2
 264.366210938 414.829101562 241.9609375 421.51953125 223.986328125 421.51953125 c 0
 206.913085938 421.51953125 181.419921875 414.524414062 165.703125 346.4453125 c 2
 128.787109375 186.544921875 l 2
 113.071289062 118.47265625 135.326171875 111.469726562 152.404296875 111.469726562 c 0
EndSplineSet
EndChar

StartChar: p
Encoding: 112 112 82
Width: 411
GlyphClass: 2
Flags: MW
HStem: -7.48047 118.948<148.33 162.805 140.602 182.609> 421.518 118.95<216.422 311.361> 512.67 20G<80.9717 207.721 207.721 207.721>
VStem: 41.9844 130.649 251.609 130.649
LayerCount: 2
Fore
SplineSet
207.720703125 532.669921875 m 1xb8
 201.88671875 507.401367188 l 1
 228.71484375 529.243164062 258.91796875 540.467773438 291.419921875 540.467773438 c 0xd8
 331.302734375 540.467773438 360.725585938 526.0390625 377.916992188 497.314453125 c 0
 395.323242188 468.224609375 396.109375 423.791992188 382.529296875 364.96875 c 2
 337.059570312 168.018554688 l 2
 323.46875 109.150390625 301.618164062 64.6142578125 269.720703125 35.5302734375 c 0
 238.393554688 6.966796875 202.250976562 -7.48046875 162.967773438 -7.48046875 c 0
 133.692382812 -7.48046875 110.165039062 1.521484375 93.0810546875 19.2158203125 c 1
 53.1533203125 -153.73046875 l 1
 -77.49609375 -153.73046875 l 1
 80.9716796875 532.669921875 l 1
 207.720703125 532.669921875 l 1xb8
153.377929688 111.467773438 m 0
 172.232421875 111.467773438 195.21875 119.544921875 210.686523438 186.54296875 c 2
 247.602539062 346.443359375 l 2
 263.669921875 416.038085938 241.045898438 421.517578125 224.958984375 421.517578125 c 0
 207.885742188 421.517578125 182.39453125 414.522460938 166.676757812 346.443359375 c 2
 129.760742188 186.54296875 l 2
 117.002929688 131.279296875 127.826171875 111.467773438 153.377929688 111.467773438 c 0
EndSplineSet
EndChar

StartChar: q
Encoding: 113 113 83
Width: 411
GlyphClass: 2
Flags: MW
HStem: -7.47852 118.95<67.9517 165.182> 421.521 118.948<214.967 228.396 192.505 232.005> 512.67 20G<292.547 418.321 418.321 418.321>
VStem: 39.0596 130.651 249.659 129.675
LayerCount: 2
Fore
SplineSet
286.568359375 506.775390625 m 1xd8
 292.546875 532.669921875 l 1
 418.321289062 532.669921875 l 1xb8
 259.853515625 -153.73046875 l 1
 130.178710938 -153.73046875 l 1
 170.106445312 19.2158203125 l 1
 144.853515625 1.521484375 117.168945312 -7.478515625 87.89453125 -7.478515625 c 0
 48.0087890625 -7.478515625 18.1875 6.931640625 0.0244140625 35.5322265625 c 0
 -18.443359375 64.6162109375 -19.7294921875 109.15234375 -6.1396484375 168.020507812 c 2
 39.330078125 364.970703125 l 2
 52.9140625 423.80859375 74.3994140625 468.276367188 105.590820312 497.364257812 c 0
 136.348632812 526.047851562 172.563476562 540.469726562 212.447265625 540.469726562 c 0
 244.34375 540.469726562 269.254882812 528.977539062 286.568359375 506.775390625 c 1xd8
128.7890625 186.546875 m 2
 113.219726562 119.107421875 132.719726562 111.471679688 152.40625 111.471679688 c 0
 177.958007812 111.471679688 197.9296875 131.283203125 210.688476562 186.546875 c 2
 247.604492188 346.447265625 l 2
 263.389648438 414.818359375 240.998046875 421.521484375 223.01171875 421.521484375 c 0xd8
 206.921875 421.521484375 181.771484375 416.037109375 165.705078125 346.447265625 c 2
 128.7890625 186.546875 l 2
EndSplineSet
EndChar

StartChar: r
Encoding: 114 114 84
Width: 310
GlyphClass: 2
Flags: MW
HStem: 0.320312 21G<-41.9307 88.7188 -41.9307 -41.9307> 411.77 130.65<243.818 311.917> 512.67 20G<80.9717 206.746 206.746 206.746>
VStem: 41.9844 130.649
LayerCount: 2
Fore
SplineSet
199.840820312 502.758789062 m 1xb0
 212.643554688 514.284179688 245.754882812 542.419921875 301.622070312 542.419921875 c 0
 322.2109375 542.419921875 332.288085938 539.74609375 344.15234375 536.59765625 c 1
 312.198242188 398.185546875 l 1
 292.709960938 406.079101562 278.658203125 411.76953125 254.884765625 411.76953125 c 0xd0
 232.751953125 411.76953125 214.46484375 404.961914062 198.545898438 391.56640625 c 0
 182.844726562 378.353515625 171.583984375 359.25 165.4765625 332.794921875 c 2
 88.71875 0.3203125 l 1
 -41.9306640625 0.3203125 l 1
 80.9716796875 532.669921875 l 1
 206.74609375 532.669921875 l 1
 199.840820312 502.758789062 l 1xb0
EndSplineSet
EndChar

StartChar: s
Encoding: 115 115 85
Width: 393
GlyphClass: 2
Flags: MW
HStem: -7.48047 112.124<125.125 142.999> 429.32 111.148<218.067 236.508>
VStem: 31.2568 126.75 247.707 127.727
LayerCount: 2
Fore
SplineSet
216.034179688 429.3203125 m 0
 200.454101562 429.3203125 174.7890625 423.815429688 166.831054688 389.344726562 c 0
 161.072265625 364.40234375 168.473632812 351.240234375 196.451171875 337.93359375 c 2
 253.571289062 310.610351562 l 2
 323.141601562 276.659179688 344.612304688 230.297851562 326.858398438 153.39453125 c 0
 316.0390625 106.533203125 291.306640625 67.3701171875 252.994140625 37.365234375 c 0
 214.5546875 7.259765625 168.854492188 -7.48046875 117.142578125 -7.48046875 c 0
 65.478515625 -7.48046875 26.681640625 6.8935546875 2.2900390625 36.3525390625 c 0
 -22.1728515625 65.8994140625 -28.0830078125 106.768554688 -16.41796875 157.293945312 c 2
 -13.0419921875 171.918945312 l 1
 113.708007812 171.918945312 l 1
 110.33203125 157.293945312 l 2
 105.264648438 135.34765625 105.272460938 104.643554688 144.977539062 104.643554688 c 0
 166.34765625 104.643554688 189.709960938 112.5859375 198.681640625 151.4453125 c 0
 203.223632812 171.1171875 198.548828125 189.580078125 165.8203125 205.7890625 c 0
 165.75390625 205.822265625 113.215820312 231.118164062 113.215820312 231.118164062 c 2
 76.7060546875 248.37890625 52.517578125 268.9453125 41.8974609375 293.859375 c 0
 31.45703125 318.353515625 30.708984375 348.752929688 38.955078125 384.46875 c 0
 49.2021484375 428.853515625 73.5205078125 466.521484375 111.3203125 496.11328125 c 0
 149.263671875 525.817382812 193.463867188 540.46875 242.669921875 540.46875 c 0
 291.876953125 540.46875 329.311523438 525.817382812 353.540039062 496.11328125 c 0
 377.765625 466.411132812 384.266601562 427.403320312 373.454101562 380.569335938 c 2
 369.176757812 362.043945312 l 1
 242.426757812 362.043945312 l 1
 245.803710938 376.668945312 l 2
 248.538085938 388.514648438 256.982421875 429.3203125 216.034179688 429.3203125 c 0
EndSplineSet
EndChar

StartChar: t
Encoding: 116 116 86
Width: 306
GlyphClass: 2
Flags: MW
HStem: 0.320312 118.949<96.6045 221.48 181.344 221.48> 436.145 96.5254<59.5215 94.7617 37.2363 117.047 247.696 307.312>
VStem: 78.0596 130.649
LayerCount: 2
Fore
SplineSet
181.34375 0.3203125 m 2
 11.865234375 0.3203125 18.3603515625 105.211914062 33.0859375 168.995117188 c 2
 94.76171875 436.14453125 l 1
 37.236328125 436.14453125 l 1
 59.521484375 532.669921875 l 1
 117.046875 532.669921875 l 1
 137.3203125 620.484375 l 1
 280.190429688 673.419921875 l 1
 247.696289062 532.669921875 l 1
 329.596679688 532.669921875 l 1
 307.311523438 436.14453125 l 1
 225.411132812 436.14453125 l 1
 165.310546875 175.8203125 l 2
 155.803710938 134.640625 172.751953125 119.26953125 208.8046875 119.26953125 c 2
 221.48046875 119.26953125 l 1
 194.01953125 0.3203125 l 1
 181.34375 0.3203125 l 2
EndSplineSet
EndChar

StartChar: u
Encoding: 117 117 87
Width: 411
GlyphClass: 2
Flags: MW
HStem: -7.48047 118.95<135.596 146.525> 512.669 20G<287.672 418.321 418.321 418.321>
VStem: 41.9834 130.649 248.685 130.649
LayerCount: 2
Fore
SplineSet
135.987304688 205.0703125 m 2
 118.83984375 130.795898438 118.788085938 111.469726562 152.403320312 111.469726562 c 0
 170.744140625 111.469726562 185.546875 115.750976562 195.516601562 143.767578125 c 0
 199.880859375 156.030273438 205.48046875 176.66015625 212.0390625 205.069335938 c 2
 287.671875 532.668945312 l 1
 418.321289062 532.668945312 l 1
 337.286132812 181.668945312 l 2
 314.010742188 80.8505859375 278.374023438 39.0673828125 232.59765625 14.74609375 c 0
 203.986328125 -0.4560546875 168.108398438 -7.48046875 124.942382812 -7.48046875 c 0
 62.056640625 -7.48046875 20.0908203125 7.8076171875 2.916015625 41.4111328125 c 0
 -13.6826171875 73.890625 -14.1015625 120.866210938 -0.064453125 181.669921875 c 2
 80.970703125 532.669921875 l 1
 211.620117188 532.669921875 l 1
 135.987304688 205.0703125 l 2
EndSplineSet
EndChar

StartChar: v
Encoding: 118 118 88
Width: 410
GlyphClass: 2
Flags: MW
HStem: 0.320312 21G<59.4414 193.072 59.4414 59.4414> 512.67 20G<49.2559 192.545 192.545 192.545 305.752 449.062 449.062 449.062>
LayerCount: 2
Fore
SplineSet
49.255859375 532.669921875 m 1
 192.544921875 532.669921875 l 1
 181.149414062 236.258789062 l 1
 305.751953125 532.669921875 l 1
 449.061523438 532.669921875 l 1
 193.072265625 0.3203125 l 1
 59.44140625 0.3203125 l 1
 49.255859375 532.669921875 l 1
EndSplineSet
EndChar

StartChar: w
Encoding: 119 119 89
Width: 606
GlyphClass: 2
Flags: MW
HStem: 0.320312 21G<47.5879 171.068 47.5879 47.5879 274.473 398.938 274.473 274.473> 512.67 20G<49.502 192.82 192.82 192.82 292.081 400.262 400.262 400.262 499.522 643.836 643.836 643.836>
LayerCount: 2
Fore
SplineSet
49.501953125 532.669921875 m 1
 192.8203125 532.669921875 l 1
 170.603515625 241.67578125 l 1
 292.081054688 532.669921875 l 1
 400.26171875 532.669921875 l 1
 387.375976562 241.67578125 l 1
 499.522460938 532.669921875 l 1
 643.8359375 532.669921875 l 1
 398.9375 0.3203125 l 1
 274.47265625 0.3203125 l 1
 286.923828125 276.349609375 l 1
 171.068359375 0.3203125 l 1
 47.587890625 0.3203125 l 1
 49.501953125 532.669921875 l 1
EndSplineSet
EndChar

StartChar: x
Encoding: 120 120 90
Width: 382
GlyphClass: 2
Flags: MW
HStem: 0.320312 21G<-75.7852 59.6826 -75.7852 -75.7852 165.862 300.118 165.862 165.862> 512.67 20G<53.8604 188.08 188.08 188.08 281.551 417.396 417.396 417.396>
LayerCount: 2
Fore
SplineSet
165.862304688 0.3203125 m 1
 138.807617188 130.193359375 l 1
 59.6826171875 0.3203125 l 1
 -75.78515625 0.3203125 l 1
 107.735351562 276.21875 l 1
 53.8603515625 532.669921875 l 1
 188.080078125 532.669921875 l 1
 212.567382812 417.561523438 l 1
 281.55078125 532.669921875 l 1
 417.396484375 532.669921875 l 1
 241.456054688 278.122070312 l 1
 300.118164062 0.3203125 l 1
 165.862304688 0.3203125 l 1
EndSplineSet
EndChar

StartChar: y
Encoding: 121 121 91
Width: 410
GlyphClass: 2
Flags: MW
HStem: -153.73 117<-69.6963 7.03906 -69.6963 7.03906> 512.67 20G<49.1035 192.344 192.344 192.344 311.716 449.091 449.091 449.091>
LayerCount: 2
Fore
SplineSet
-57.021484375 -153.73046875 m 2
 -69.6962890625 -153.73046875 l 1
 -42.685546875 -36.73046875 l 1
 7.0390625 -36.73046875 l 2
 37.376953125 -36.73046875 56.3740234375 -29.3896484375 67.29296875 -17.75390625 c 1
 49.103515625 532.669921875 l 1
 192.34375 532.669921875 l 1
 189.634765625 252.974609375 l 1
 311.715820312 532.669921875 l 1
 449.090820312 532.669921875 l 1
 177.005859375 -30.0478515625 l 2
 159.91796875 -65.9638671875 125.584960938 -125.579101562 44.7548828125 -144.21875 c 0
 16.921875 -150.637695312 -16.9072265625 -153.73046875 -57.021484375 -153.73046875 c 2
EndSplineSet
EndChar

StartChar: z
Encoding: 122 122 92
Width: 386
GlyphClass: 2
Flags: MW
HStem: 0.320312 113.1<121.147 272.994> 419.57 113.1<51.9355 395.896 78.0469 232.698>
VStem: 39.0596 317.85
LayerCount: 2
Fore
SplineSet
51.935546875 419.5703125 m 1
 78.046875 532.669921875 l 1
 395.896484375 532.669921875 l 1
 371.274414062 426.021484375 l 1
 121.147460938 113.419921875 l 1
 299.104492188 113.419921875 l 1
 272.994140625 0.3203125 l 1
 -44.85546875 0.3203125 l 1
 -20.2265625 107 l 1
 232.698242188 419.5703125 l 1
 51.935546875 419.5703125 l 1
EndSplineSet
EndChar

StartChar: braceleft
Encoding: 123 123 93
Width: 322
GlyphClass: 2
Flags: MW
HStem: -81.5801 117.975<104.771 217.947 189.672 190.711> 272.344 117.976<17.9463 53.958 17.9463 53.958> 621.394 117.976<319.228 324.729 324.729 353.005>
VStem: 103.409 129.675
LayerCount: 2
Fore
SplineSet
127.3359375 -81.580078125 m 2
 82.2060546875 -81.580078125 4.2216796875 -65.83203125 30.5234375 48.09375 c 2
 68.1142578125 210.918945312 l 2
 73.7685546875 235.41015625 72.7431640625 251.240234375 67.7294921875 259.359375 c 0
 63.0478515625 266.939453125 50.4638671875 272.34375 26.720703125 272.34375 c 2
 17.9462890625 272.34375 l 1
 45.18359375 390.319335938 l 1
 53.9580078125 390.319335938 l 2
 77.701171875 390.319335938 92.7802734375 395.723632812 100.961914062 403.303710938 c 0
 109.669921875 411.372070312 118.125 427.538085938 123.938476562 452.71875 c 2
 160.178710938 609.694335938 l 2
 170.838867188 655.866210938 205.509765625 739.369140625 316.866210938 739.369140625 c 2
 380.241210938 739.369140625 l 1
 353.004882812 621.393554688 l 1
 324.729492188 621.393554688 l 2
 313.725585938 621.393554688 292.102539062 619.436523438 284.2265625 585.319335938 c 2
 255.638671875 461.494140625 l 2
 235.869140625 375.862304688 216.208007812 350.161132812 178.181640625 331.59765625 c 1
 206.977539062 312.474609375 215.2734375 286.651367188 195.538085938 201.169921875 c 2
 165.825195312 72.4697265625 l 2
 157.94921875 38.3515625 178.668945312 36.39453125 189.671875 36.39453125 c 2
 217.947265625 36.39453125 l 1
 190.7109375 -81.580078125 l 1
 127.3359375 -81.580078125 l 2
EndSplineSet
Substitution2: "'rtla' Right to Left Alternates lookup 0 subtable" braceright
EndChar

StartChar: bar
Encoding: 124 124 94
Width: 269
GlyphClass: 2
Flags: MW
VStem: 76.1094 126.75
LayerCount: 2
Fore
SplineSet
162.817382812 739.370117188 m 1
 289.567382812 739.370117188 l 1
 100.036132812 -81.580078125 l 1
 -26.7138671875 -81.580078125 l 1
 162.817382812 739.370117188 l 1
EndSplineSet
EndChar

StartChar: braceright
Encoding: 125 125 95
Width: 322
GlyphClass: 2
Flags: MW
HStem: -81.5801 117.975<-36.5273 -8.25195 -8.25195 -2.74951 -36.5273 0.585938 -63.7637 -8.25195> 272.345 117.976<251.773 299.656 263.645 299.656> 621.395 117.976<125.769 126.806 98.5312 190.118>
VStem: 99.5098 129.674
LayerCount: 2
Fore
SplineSet
156.297851562 48.0947265625 m 2
 151.168945312 25.8798828125 125.783203125 -81.580078125 0.5859375 -81.580078125 c 2
 -63.763671875 -81.580078125 l 1
 -36.52734375 36.39453125 l 1
 -8.251953125 36.39453125 l 2
 2.7529296875 36.39453125 24.375 38.3525390625 32.2509765625 72.4697265625 c 2
 61.9638671875 201.169921875 l 2
 81.1591796875 284.3125 101.58984375 311.708007812 139.720703125 331.48828125 c 1
 110.0703125 350.07421875 102.287109375 375.829101562 122.065429688 461.495117188 c 2
 150.65234375 585.3203125 l 2
 158.529296875 619.438476562 137.80859375 621.39453125 126.805664062 621.39453125 c 2
 98.53125 621.39453125 l 1
 125.768554688 739.370117188 l 1
 190.118164062 739.370117188 l 2
 237.241210938 739.370117188 311.9921875 722.477539062 285.954101562 609.6953125 c 2
 249.713867188 452.719726562 l 2
 243.900390625 427.5390625 244.889648438 411.373046875 249.874023438 403.3046875 c 0
 254.5546875 395.724609375 267.138671875 390.3203125 290.880859375 390.3203125 c 2
 299.65625 390.3203125 l 1
 272.419921875 272.344726562 l 1
 263.64453125 272.344726562 l 2
 239.901367188 272.344726562 224.822265625 266.940429688 216.640625 259.360351562 c 0
 207.876953125 251.241210938 199.54296875 235.411132812 193.888671875 210.919921875 c 2
 156.297851562 48.0947265625 l 2
EndSplineSet
Substitution2: "'rtla' Right to Left Alternates lookup 0 subtable" braceleft
EndChar

StartChar: asciitilde
Encoding: 126 126 96
Width: 420
GlyphClass: 2
Flags: MW
HStem: 197.269 104.324<245.196 255.152 245.196 271.442> 241.145 104.323<119.758 143.823>
LayerCount: 2
Fore
SplineSet
235.588867188 197.268554688 m 0x80
 179.54296875 197.268554688 157.953125 241.14453125 129.693359375 241.14453125 c 0
 109.822265625 241.14453125 96.138671875 225.220703125 68.51953125 189.080078125 c 1
 -5.4384765625 237.5703125 l 1
 27.52734375 283.895507812 74.0263671875 345.467773438 144.029296875 345.467773438 c 0x40
 164.134765625 345.467773438 182.283203125 341.71875 215.297851562 317.895507812 c 0
 221.362304688 313.810546875 239.494140625 301.592773438 250.8984375 301.592773438 c 0
 259.40625 301.592773438 266.154296875 304.0625 272.37890625 308.921875 c 0
 281.7890625 316.268554688 294.58203125 331.748046875 312.4765625 354.712890625 c 1
 384.875 305.111328125 l 1
 352.744140625 258.706054688 307.295898438 197.268554688 235.588867188 197.268554688 c 0x80
EndSplineSet
EndChar

StartChar: exclamdown
Encoding: 161 161 98
Width: 214
GlyphClass: 2
Flags: MW
HStem: 387.395 145.275<85.8467 182.956 52.3066 216.496>
VStem: 46.8594 130.649 65.8252 92.7178
LayerCount: 2
Fore
SplineSet
85.8466796875 532.669921875 m 1xc0
 216.49609375 532.669921875 l 1
 182.956054688 387.39453125 l 1
 52.306640625 387.39453125 l 1
 85.8466796875 532.669921875 l 1xc0
147.784179688 317.1953125 m 1xa0
 63.3681640625 -153.73046875 l 1
 -77.9609375 -153.73046875 l 1
 55.06640625 317.1953125 l 1
 147.784179688 317.1953125 l 1xa0
EndSplineSet
EndChar

StartChar: cent
Encoding: 162 162 99
Width: 443
GlyphClass: 2
Flags: MW
VStem: 39.0596 130.649 194.084 75.0752 252.584 126.75
LayerCount: 2
Fore
SplineSet
335.036132812 171.920898438 m 2xa0
 327.47265625 139.162109375 299.833007812 27.5 184.99609375 -0.751953125 c 1
 162.734375 -97.1787109375 l 1
 87.6591796875 -97.1787109375 l 1
 108.450195312 -7.12109375 l 1
 60.8251953125 -4.33203125 26.2216796875 11.53125 6.3330078125 41.2548828125 c 0
 -14.87890625 72.9541015625 -16.7333984375 122.130859375 -1.6376953125 187.520507812 c 2
 34.828125 345.470703125 l 2
 49.9248046875 410.860351562 74.486328125 460.037109375 110.334960938 491.737304688 c 0
 143.948242188 521.459960938 185.875976562 537.32421875 234.790039062 540.11328125 c 1
 257.157226562 636.99609375 l 1
 332.232421875 636.99609375 l 1
 308.391601562 533.733398438 l 1xc0
 377.404296875 514.560546875 400.620117188 455.998046875 379.379882812 363.995117188 c 2
 372.8515625 335.719726562 l 1
 246.1015625 335.719726562 l 1
 252.1796875 362.045898438 l 2
 259.525390625 393.86328125 256.763671875 421.520507812 224.959960938 421.520507812 c 0
 206.984375 421.520507812 181.490234375 414.827148438 165.703125 346.446289062 c 2
 128.787109375 186.545898438 l 2
 113.071289062 118.473632812 135.327148438 111.470703125 152.405273438 111.470703125 c 0
 169.815429688 111.470703125 195.872070312 118.151367188 208.286132812 171.920898438 c 2
 214.137695312 197.270507812 l 1
 340.887695312 197.270507812 l 1
 335.036132812 171.920898438 l 2xa0
EndSplineSet
EndChar

StartChar: sterling
Encoding: 163 163 100
Width: 421
GlyphClass: 2
Flags: MW
HStem: 0.322266 125.774<140.705 318.82> 282.095 125.775<227.659 315.622 198.622 344.659> 587.271 113.102<292.987 308.317>
VStem: 80.0098 137.475 278.91 131.625
LayerCount: 2
Fore
SplineSet
301.252929688 587.270507812 m 0
 284.720703125 587.270507812 268.0234375 582.708007812 258.947265625 543.39453125 c 2
 227.659179688 407.870117188 l 1
 344.659179688 407.870117188 l 1
 315.622070312 282.094726562 l 1
 198.622070312 282.094726562 l 1
 180.838867188 205.0703125 l 2
 171.276367188 163.650390625 155.66015625 141.290039062 140.705078125 126.096679688 c 1
 347.857421875 126.096679688 l 1
 318.8203125 0.322265625 l 1
 -46.8046875 0.322265625 l 1
 -17.9326171875 125.380859375 l 1
 -3.7734375 130.212890625 13.056640625 135.955078125 23.4443359375 151.534179688 c 0
 30.58984375 162.250976562 37.796875 180.955078125 43.8154296875 207.021484375 c 2
 61.1474609375 282.096679688 l 1
 1.6728515625 282.096679688 l 1
 30.7109375 407.872070312 l 1
 90.185546875 407.872070312 l 1
 119.447265625 534.622070312 l 2
 135.411132812 603.767578125 182.872070312 700.372070312 323.463867188 700.372070312 c 0
 377.5859375 700.372070312 416.21875 685.938476562 437.080078125 655.604492188 c 0
 457.739257812 625.563476562 461.25390625 583.486328125 449.072265625 530.720703125 c 2
 447.046875 521.946289062 l 1
 315.421875 521.946289062 l 1
 317.447265625 530.720703125 l 2
 329.927734375 584.78125 315.380859375 587.270507812 301.252929688 587.270507812 c 0
EndSplineSet
EndChar

StartChar: currency
Encoding: 164 164 101
Width: 569
GlyphClass: 2
Flags: MW
HStem: 104.645 117.976<243.479 246.621> 402.02 117.976<307.205 310.069>
VStem: 80.9834 121.876 375.435 121.875
LayerCount: 2
Fore
SplineSet
228.829101562 104.64453125 m 0
 192.1640625 104.64453125 160.580078125 112.69140625 134.462890625 128.85546875 c 1
 53.5986328125 63.96875 l 1
 -11.0380859375 149.489257812 l 1
 69.0947265625 215.403320312 l 1
 60.8837890625 244.541992188 60.9345703125 276.955078125 69.0986328125 312.3203125 c 0
 77.0263671875 346.657226562 92.314453125 379.061523438 114.819335938 409.236328125 c 1
 64.33984375 476.166015625 l 1
 169.620117188 561.700195312 l 1
 219.368164062 495.71875 l 1
 254.469726562 511.864257812 289.689453125 519.995117188 324.719726562 519.995117188 c 0
 359.733398438 519.995117188 390.92578125 511.868164062 418.014648438 495.708984375 c 1
 500.173828125 561.646484375 l 1
 564.846679688 476.078125 l 1
 483.760742188 410.202148438 l 1
 492.794921875 379.455078125 493.369140625 346.729492188 485.424804688 312.3203125 c 0
 477.497070312 277.982421875 462.208984375 245.578125 439.704101562 215.403320312 c 1
 490.182617188 148.473632812 l 1
 384.961914062 62.9873046875 l 1
 334.259765625 128.908203125 l 1
 299.665039062 112.751953125 264.412109375 104.64453125 228.829101562 104.64453125 c 0
363.549804688 312.3203125 m 0
 369.543945312 338.28125 366.138671875 359.2421875 353.512695312 376.426757812 c 0
 340.908203125 393.583007812 322.654296875 402.01953125 297.483398438 402.01953125 c 0
 272.311523438 402.01953125 250.36328125 393.590820312 230.192382812 376.484375 c 0
 209.94140625 359.309570312 196.977539062 338.322265625 190.974609375 312.3203125 c 0
 184.971679688 286.317382812 188.244140625 265.330078125 200.565429688 248.155273438 c 0
 212.837890625 231.049804688 230.893554688 222.620117188 256.065429688 222.620117188 c 0
 281.236328125 222.620117188 303.38671875 231.056640625 323.912109375 248.212890625 c 0
 344.47265625 265.3984375 357.556640625 286.358398438 363.549804688 312.3203125 c 0
EndSplineSet
EndChar

StartChar: yen
Encoding: 165 165 102
Width: 410
GlyphClass: 2
Flags: MW
HStem: 0.320312 21G<57.5195 194.994 57.5195 57.5195> 107.57 100.425<5.03906 82.2793 -18.1465 105.465 242.939 320.179> 242.12 100.425<36.1025 113.343 12.917 121.198 289.332 351.242> 670.62 20G<78.708 224.586 224.586 224.586 348.54 492.542 492.542 492.542>
VStem: 141.435 137.475
LayerCount: 2
Fore
SplineSet
219.75390625 107.5703125 m 1
 194.994140625 0.3203125 l 1
 57.51953125 0.3203125 l 1
 82.279296875 107.5703125 l 1
 -18.146484375 107.5703125 l 1
 5.0390625 207.995117188 l 1
 105.46484375 207.995117188 l 1
 113.342773438 242.120117188 l 1
 12.9169921875 242.120117188 l 1
 36.1025390625 342.544921875 l 1
 121.198242188 342.544921875 l 1
 78.7080078125 690.620117188 l 1
 224.5859375 690.620117188 l 1
 233.69140625 455.8984375 l 1
 348.540039062 690.620117188 l 1
 492.541992188 690.620117188 l 1
 289.33203125 342.544921875 l 1
 374.427734375 342.544921875 l 1
 351.2421875 242.120117188 l 1
 250.817382812 242.120117188 l 1
 242.939453125 207.995117188 l 1
 343.364257812 207.995117188 l 1
 320.178710938 107.5703125 l 1
 219.75390625 107.5703125 l 1
EndSplineSet
EndChar

StartChar: brokenbar
Encoding: 166 166 103
Width: 269
GlyphClass: 2
Flags: MW
VStem: 76.1094 126.75
LayerCount: 2
Fore
SplineSet
162.817382812 739.370117188 m 1
 289.567382812 739.370117188 l 1
 206.28125 378.620117188 l 1
 79.53125 378.620117188 l 1
 162.817382812 739.370117188 l 1
56.5712890625 279.169921875 m 1
 183.321289062 279.169921875 l 1
 100.036132812 -81.580078125 l 1
 -26.7138671875 -81.580078125 l 1
 56.5712890625 279.169921875 l 1
EndSplineSet
EndChar

StartChar: section
Encoding: 167 167 104
Width: 410
GlyphClass: 2
Flags: MW
HStem: -163.48 107.251<102.894 118 102.894 148.795> 602.869 107.25<259.955 274.776>
VStem: 42.957 124.801 55.6328 126.751 240.883 125.776 252.583 124.801
LayerCount: 2
Fore
SplineSet
282.293945312 -1.6298828125 m 0xc8
 262.634765625 -86.7802734375 210.61328125 -163.48046875 86.9775390625 -163.48046875 c 0
 32.404296875 -163.48046875 -4.982421875 -149.697265625 -21.9111328125 -119.697265625 c 0
 -38.4970703125 -90.3056640625 -38.931640625 -45.8046875 -25.3564453125 12.99609375 c 2
 -23.330078125 21.7705078125 l 1xd8
 96.595703125 21.7705078125 l 1
 94.5693359375 12.99609375 l 2
 88.0791015625 -15.119140625 86.255859375 -34.5234375 88.0322265625 -44.0849609375 c 0
 89.41796875 -51.54296875 95.025390625 -56.2294921875 110.762695312 -56.2294921875 c 0
 125.237304688 -56.2294921875 133.387695312 -51.9658203125 138.825195312 -45.111328125 c 0
 145.522460938 -36.669921875 151.46484375 -23.5126953125 155.6171875 -5.529296875 c 0
 164.919921875 34.7646484375 159.282226562 52.2255859375 142.729492188 64.0029296875 c 0
 133.407226562 70.634765625 117.752929688 78.6513671875 96.091796875 87.6337890625 c 0
 56.884765625 103.01171875 31.0986328125 125.358398438 20.400390625 155.291992188 c 0
 9.8251953125 184.883789062 10.9013671875 224.950195312 22.5185546875 275.268554688 c 0xe8
 44.6513671875 371.134765625 87.41796875 403.646484375 121.201171875 420.647460938 c 1
 106.193359375 431.359375 96.7431640625 446.434570312 93.40625 465.512695312 c 0
 89.24609375 489.298828125 91.2041015625 517.873046875 98.896484375 551.194335938 c 0
 115.115234375 621.446289062 161.215820312 710.119140625 290.61328125 710.119140625 c 0
 345.142578125 710.119140625 382.309570312 696.537109375 398.674804688 666.76171875 c 0
 414.650390625 637.694335938 414.8671875 593.725585938 401.446289062 535.59375 c 2
 399.420898438 526.819335938 l 1
 279.49609375 526.819335938 l 1
 281.521484375 535.59375 l 2
 287.872070312 563.098632812 289.961914062 582.154296875 288.643554688 591.530273438 c 0
 287.697265625 598.264648438 282.723632812 602.869140625 266.828125 602.869140625 c 0
 253.08203125 602.869140625 246.15625 598.794921875 241.631835938 592.327148438 c 0
 235.655273438 583.783203125 229.987304688 569.990234375 225.647460938 551.194335938 c 0
 214.111328125 501.224609375 225.278320312 484.538085938 283.2734375 462.944335938 c 0
 323.135742188 447.584960938 349.19921875 425.423828125 359.672851562 395.706054688 c 0
 370.000976562 366.401367188 368.704101562 326.201171875 356.9453125 275.268554688 c 0xd4
 335.229492188 181.20703125 294.83984375 148.1796875 258.311523438 130.458007812 c 1
 277.262695312 116.560546875 303.225585938 89.0361328125 282.293945312 -1.6298828125 c 0xc8
232.14453125 275.270507812 m 0xe4
 239.51953125 307.212890625 241.328125 329.842773438 238.645507812 342.401367188 c 0
 236.374023438 353.0390625 228.129882812 359.12109375 208.603515625 359.12109375 c 0
 189.143554688 359.12109375 178.352539062 352.9921875 171.357421875 342.126953125 c 0
 162.96484375 329.09375 154.545898438 306.5703125 147.319335938 275.270507812 c 0
 140.098632812 243.994140625 138.299804688 221.537109375 140.9453125 208.563476562 c 0
 143.211914062 197.450195312 151.21484375 191.420898438 169.887695312 191.420898438 c 0
 189.333007812 191.420898438 200.401367188 197.571289062 207.717773438 208.563476562 c 0
 216.354492188 221.537109375 224.923828125 243.994140625 232.14453125 275.270507812 c 0xe4
263.8359375 695.49609375 m 1024
EndSplineSet
EndChar

StartChar: dieresis
Encoding: 168 168 105
Width: 499
GlyphClass: 2
Flags: MW
HStem: 576.545 128.7<202.713 281.226 173 310.938 202.713 325.101 354.813 433.325>
VStem: 123.884 108.226 275.984 108.225
LayerCount: 2
Fore
SplineSet
202.712890625 705.245117188 m 1
 310.938476562 705.245117188 l 1
 281.225585938 576.544921875 l 1
 173 576.544921875 l 1
 202.712890625 705.245117188 l 1
354.813476562 705.245117188 m 1
 463.038085938 705.245117188 l 1
 433.325195312 576.544921875 l 1
 325.100585938 576.544921875 l 1
 354.813476562 705.245117188 l 1
EndSplineSet
EndChar

StartChar: copyright
Encoding: 169 169 106
Width: 698
GlyphClass: 2
Flags: MW
HStem: -5.53027 83.8506<250.633 318.071> 145.595 89.7002<320.001 329.218 320.001 356.162> 453.695 88.7236<376.251 387.239> 608.72 83.8506<380.23 447.635>
VStem: 39.0596 91.6484 229.183 98.4746 382.257 95.5508 576.283 91.6514
LayerCount: 2
Fore
SplineSet
34.3779296875 343.51953125 m 0
 59.46484375 452.18359375 106.333007812 538.073242188 175.748046875 599.9296875 c 0
 245.291015625 661.901367188 330.572265625 692.5703125 429.887695312 692.5703125 c 0
 529.225585938 692.5703125 600.134765625 661.551757812 640.575195312 598.899414062 c 0
 680.896484375 536.430664062 688.043945312 450.90234375 663.252929688 343.51953125 c 0
 638.458984375 236.126953125 591.647460938 150.586914062 522.1484375 88.12109375 c 0
 452.478515625 25.501953125 367.423828125 -5.5302734375 268.717773438 -5.5302734375 c 0
 169.377929688 -5.5302734375 98.3203125 25.4873046875 57.556640625 88.12109375 c 0
 16.8984375 150.586914062 9.583984375 236.126953125 34.3779296875 343.51953125 c 0
571.6015625 343.51953125 m 0
 591.575195312 430.034179688 587.4140625 495.435546875 560.629882812 540.75390625 c 0
 534 585.809570312 484.741210938 608.719726562 410.528320312 608.719726562 c 0
 335.658203125 608.719726562 275.474609375 585.643554688 227.979492188 540.2890625 c 0
 180.15625 494.620117188 145.845703125 429.368164062 126.026367188 343.51953125 c 0
 106.052734375 257.004882812 110.213867188 191.603515625 136.998046875 146.286132812 c 0
 163.616210938 101.25 213.189453125 78.3203125 288.076171875 78.3203125 c 0
 362.948242188 78.3203125 422.94921875 101.395507812 470.107421875 146.72265625 c 0
 517.62109375 192.390625 551.779296875 257.66015625 571.6015625 343.51953125 c 0
304.581054688 145.594726562 m 0
 184.790039062 145.594726562 201.422851562 243.556640625 211.670898438 287.944335938 c 2
 237.78125 401.043945312 l 2
 248.833007812 448.912109375 267.197265625 485.225585938 294.749023438 508.49609375 c 0
 321.994140625 531.505859375 356.307617188 542.418945312 396.1953125 542.418945312 c 0
 458.310546875 542.418945312 513.041015625 516.411132812 489.557617188 414.694335938 c 2
 484.380859375 392.268554688 l 1
 388.830078125 392.268554688 l 1
 393.556640625 412.744140625 l 2
 397.567382812 430.116210938 398.765625 453.6953125 375.711914062 453.6953125 c 0
 359.219726562 453.6953125 345.62890625 441.643554688 336.481445312 402.01953125 c 2
 309.919921875 286.969726562 l 2
 298.338867188 236.8046875 314.712890625 235.294921875 325.290039062 235.294921875 c 0
 333.146484375 235.294921875 352.62109375 235.430664062 362.268554688 277.219726562 c 2
 366.99609375 297.6953125 l 1
 462.546875 297.6953125 l 1
 457.819335938 277.219726562 l 2
 444.663085938 220.234375 407.7421875 145.594726562 304.581054688 145.594726562 c 0
EndSplineSet
EndChar

StartChar: ordfeminine
Encoding: 170 170 107
Width: 311
GlyphClass: 2
Flags: MW
HStem: 414.695 84.8252<128.47 192.114> 547.296 71.1738<192.191 239.231 218.756 222.8> 660.395 84.8252<230.047 236.117>
VStem: 38.085 92.625 180.436 91.6494
LayerCount: 2
Fore
SplineSet
246.067382812 745.219726562 m 0
 323.54296875 745.219726562 348.728515625 695.778320312 335.157226562 636.995117188 c 2
 284.9609375 419.5703125 l 1
 197.2109375 419.5703125 l 1
 200.165039062 432.364257812 l 1
 184.662109375 421.71875 170.22265625 414.6953125 145.385742188 414.6953125 c 0
 111.5546875 414.6953125 52.73828125 427.268554688 73.9208984375 519.01953125 c 0
 86.9560546875 575.481445312 132.650390625 618.469726562 218.755859375 618.469726562 c 2
 239.231445312 618.469726562 l 1
 244.408203125 640.89453125 l 2
 246.560546875 650.216796875 246.723632812 660.39453125 225.509765625 660.39453125 c 0
 218.291992188 660.39453125 201.725585938 658.732421875 198.283203125 643.8203125 c 2
 195.58203125 632.120117188 l 1
 108.807617188 632.120117188 l 1
 111.283203125 642.844726562 l 2
 118.891601562 675.797851562 135.145507812 702.181640625 160.512695312 719.807617188 c 0
 185.2109375 736.969726562 214.026367188 745.219726562 246.067382812 745.219726562 c 0
186.418945312 499.520507812 m 0
 197.80859375 499.520507812 213.015625 504.918945312 216.721679688 520.970703125 c 2
 222.799804688 547.295898438 l 1
 211.099609375 547.295898438 l 2
 173.283203125 547.295898438 168.970703125 529.522460938 167.221679688 521.946289062 c 0
 164.919921875 511.975585938 166.998046875 499.520507812 186.418945312 499.520507812 c 0
256.052734375 834.920898438 m 1024
EndSplineSet
EndChar

StartChar: guillemotleft
Encoding: 171 171 108
Width: 442
GlyphClass: 2
Flags: W
LayerCount: 2
Fore
SplineSet
249.42578125 481.037109375 m 1
 218.87890625 348.721679688 l 1
 119.537109375 266.495117188 l 1
 180.912109375 184.268554688 l 1
 150.364257812 51.953125 l 1
 -10.3125 266.495117188 l 1
 249.42578125 481.037109375 l 1
437.600585938 481.037109375 m 1
 407.046875 348.692382812 l 1
 306.807617188 266.495117188 l 1
 369.09375 184.297851562 l 1
 338.5390625 51.953125 l 1
 177.862304688 266.495117188 l 1
 437.600585938 481.037109375 l 1
EndSplineSet
EndChar

StartChar: logicalnot
Encoding: 172 172 109
Width: 420
GlyphClass: 2
Flags: MW
HStem: 151.445 217.425<213.309 343.959 213.309 213.309> 249.92 118.95<37.3047 236.043 9.84277 394.155>
VStem: 262.334 130.65
LayerCount: 2
Fore
SplineSet
236.04296875 249.919921875 m 1x60
 9.8427734375 249.919921875 l 1
 37.3046875 368.870117188 l 1x60
 394.155273438 368.870117188 l 1
 343.958984375 151.4453125 l 1
 213.30859375 151.4453125 l 1xa0
 236.04296875 249.919921875 l 1x60
EndSplineSet
EndChar

StartChar: uni00AD
Encoding: 173 173 110
Width: 354
GlyphClass: 2
Flags: MW
HStem: 284.045 124.8<49.459 306.322 20.6475 335.134>
VStem: 39.0596 285.675
LayerCount: 2
Fore
SplineSet
49.458984375 408.844726562 m 1
 335.133789062 408.844726562 l 1
 306.322265625 284.044921875 l 1
 20.6474609375 284.044921875 l 1
 49.458984375 408.844726562 l 1
EndSplineSet
EndChar

StartChar: registered
Encoding: 174 174 111
Width: 429
GlyphClass: 2
Flags: MW
HStem: 307.445 54.6006<177.889 230.005 171.649 233.026> 639.921 54.5986<267.88 322.4 267.88 331.381>
VStem: 42.9609 57.5254 155.086 60.4502 230.161 60.4502 336.436 59.4746
LayerCount: 2
Fore
SplineSet
74.7451171875 501.470703125 m 0
 88.4384765625 560.784179688 114.643554688 608.36328125 154.04296875 642.897460938 c 0
 193.477539062 677.463867188 240.946289062 694.51953125 294.813476562 694.51953125 c 0
 349.987304688 694.51953125 390.176757812 676.9609375 413.42578125 641.337890625 c 0
 436.528320312 605.936523438 440.956054688 558.913085938 427.694335938 501.469726562 c 0
 414.143554688 442.775390625 387.924804688 395.240234375 348.470703125 360.107421875 c 0
 308.83984375 324.818359375 260.6015625 307.4453125 205.450195312 307.4453125 c 0
 150.328125 307.4453125 110.358398438 324.634765625 87.5810546875 359.66015625 c 0
 64.9150390625 394.512695312 61.0595703125 442.19140625 74.7451171875 501.470703125 c 0
218.056640625 362.045898438 m 0
 241.954101562 362.045898438 336.201171875 362.784179688 368.219726562 501.470703125 c 0
 382.41015625 562.936523438 380.553710938 639.920898438 282.208984375 639.920898438 c 0
 242.420898438 639.920898438 211.061523438 627.870117188 186.208007812 604.5625 c 0
 161.072265625 580.991210938 142.778320312 546.986328125 132.270507812 501.470703125 c 0
 115.525390625 428.939453125 125.241210938 362.045898438 218.056640625 362.045898438 c 0
279.28125 614.571289062 m 2
 301.299804688 614.571289062 347.220703125 608.999023438 332.299804688 544.37109375 c 0
 326.875976562 520.877929688 315.244140625 501.422851562 297.274414062 487.825195312 c 1
 306.919921875 390.321289062 l 1
 294.784179688 390.321289062 l 1
 243.485351562 390.321289062 l 1
 237.74609375 459.998046875 l 1
 221.659179688 390.321289062 l 1
 161.208984375 390.321289062 l 1
 212.981445312 614.571289062 l 1
 279.28125 614.571289062 l 2
254.147460938 526.821289062 m 2
 261.639648438 526.821289062 265.034179688 528.654296875 265.77734375 529.306640625 c 0
 266.572265625 530.00390625 269.532226562 534.333984375 271.625 543.395507812 c 0
 273.4765625 551.41796875 272.771484375 555.454101562 272.525390625 555.8984375 c 0
 272.172851562 556.302734375 269.044921875 558.020507812 261.350585938 558.020507812 c 2
 260.375976562 558.020507812 l 1
 253.172851562 526.821289062 l 1
 254.147460938 526.821289062 l 2
EndSplineSet
EndChar

StartChar: macron
Encoding: 175 175 112
Width: 499
GlyphClass: 2
Flags: MW
HStem: 581.42 118.95<207.438 428.602 179.977 456.063>
VStem: 129.734 248.625
LayerCount: 2
Fore
SplineSet
207.438476562 700.370117188 m 1
 456.063476562 700.370117188 l 1
 428.6015625 581.419921875 l 1
 179.9765625 581.419921875 l 1
 207.438476562 700.370117188 l 1
EndSplineSet
EndChar

StartChar: degree
Encoding: 176 176 113
Width: 328
GlyphClass: 2
Flags: MW
HStem: 441.995 79.9502<190.857 205.342> 621.395 79.9502<228.411 235.285>
VStem: 39.0596 82.874 216.509 82.875
LayerCount: 2
Fore
SplineSet
87.05078125 571.669921875 m 0
 95.478515625 608.173828125 115.149414062 639.432617188 145.587890625 664.161132812 c 0
 176.025390625 688.889648438 210.158203125 701.344726562 246.663085938 701.344726562 c 0
 283.771484375 701.344726562 312.499023438 688.923828125 331.544921875 664.161132812 c 0
 350.564453125 639.432617188 355.802734375 608.173828125 347.375 571.669921875 c 0
 338.947265625 535.166015625 319.275390625 503.907226562 288.837890625 479.178710938 c 0
 258.358398438 454.416015625 223.896484375 441.995117188 186.788085938 441.995117188 c 0
 150.283203125 441.995117188 121.900390625 454.450195312 102.880859375 479.178710938 c 0
 83.8603515625 503.907226562 78.623046875 535.166015625 87.05078125 571.669921875 c 0
169.924804688 571.669921875 m 0
 163.369140625 543.2734375 176.46875 521.9453125 205.245117188 521.9453125 c 0
 219.404296875 521.9453125 231.3984375 526.512695312 242.623046875 535.854492188 c 0
 253.834960938 545.186523438 261.04296875 556.698242188 264.5 571.670898438 c 0
 267.95703125 586.643554688 266.063476562 598.153320312 259.16015625 607.485351562 c 0
 252.249023438 616.827148438 242.364257812 621.39453125 228.205078125 621.39453125 c 0
 199.40625 621.39453125 176.474609375 600.040039062 169.924804688 571.669921875 c 0
EndSplineSet
EndChar

StartChar: plusminus
Encoding: 177 177 114
Width: 420
GlyphClass: 2
Flags: MW
HStem: 9.09473 125.775<-19.6436 314.994 -48.6807 344.031> 281.12 125.774<43.1582 133.071 14.1211 162.108 287.884 377.796 43.1582 258.847>
VStem: 33.209 363.675 152.159 125.775
LayerCount: 2
Fore
SplineSet
258.846679688 281.120117188 m 1xd0
 231.384765625 162.169921875 l 1
 105.609375 162.169921875 l 1
 133.071289062 281.120117188 l 1xd0
 14.12109375 281.120117188 l 1
 43.158203125 406.89453125 l 1xe0
 162.108398438 406.89453125 l 1
 189.5703125 525.844726562 l 1
 315.345703125 525.844726562 l 1
 287.883789062 406.89453125 l 1xd0
 406.833007812 406.89453125 l 1
 377.795898438 281.120117188 l 1xe0
 258.846679688 281.120117188 l 1xd0
-19.6435546875 134.870117188 m 1xe0
 344.03125 134.870117188 l 1
 314.994140625 9.0947265625 l 1
 -48.6806640625 9.0947265625 l 1
 -19.6435546875 134.870117188 l 1xe0
EndSplineSet
EndChar

StartChar: uni00B2
Encoding: 178 178 115
Width: 287
GlyphClass: 2
Flags: MW
HStem: 419.57 89.6992<181.271 277.16> 759.846 89.7002<231.624 247.716>
VStem: 35.1592 95.5498 167.759 95.5508
LayerCount: 2
Fore
SplineSet
125.018554688 753.020507812 m 2
 139.037109375 813.743164062 194.6640625 849.545898438 262.352539062 849.545898438 c 0
 296.251953125 849.545898438 322.130859375 841.206054688 338.6015625 823.540039062 c 0
 355.145507812 805.796875 359.635742188 781.03125 352.71875 751.071289062 c 2
 345.740234375 720.845703125 l 2
 337.975585938 687.212890625 327.209960938 665.7734375 291.048828125 626.078125 c 2
 181.270507812 509.26953125 l 1
 297.869140625 509.26953125 l 1
 277.16015625 419.5703125 l 1
 45.1103515625 419.5703125 l 1
 63.0615234375 497.326171875 l 1
 65.0673828125 499.541992188 l 1
 65.0673828125 499.541992188 219.509765625 670.169921875 219.653320312 670.325195312 c 0
 241.318359375 693.453125 245.9453125 702.459960938 250.190429688 720.846679688 c 2
 255.142578125 742.296875 l 2
 257.016601562 750.41796875 255.73828125 759.845703125 239.693359375 759.845703125 c 0
 223.553710938 759.845703125 220.431640625 752.427734375 218.767578125 745.220703125 c 2
 209.763671875 706.220703125 l 1
 114.213867188 706.220703125 l 1
 125.018554688 753.020507812 l 2
EndSplineSet
EndChar

StartChar: uni00B3
Encoding: 179 179 116
Width: 282
GlyphClass: 2
Flags: MW
HStem: 413.72 89.7002<168.07 173.513> 592.145 89.7002<187.561 191.227 166.852 213.886> 758.87 90.6748<227.046 239.22>
VStem: 29.3096 95.5498 162.884 97.5
LayerCount: 2
Fore
SplineSet
289.439453125 640.327148438 m 1
 308.038085938 627.755859375 317.587890625 611.57421875 307.474609375 567.76953125 c 2
 297.120117188 522.919921875 l 2
 289.228515625 488.737304688 272.775390625 461.100585938 247.270507812 441.853515625 c 0
 221.965820312 422.758789062 191.140625 413.719726562 155.884765625 413.719726562 c 0
 120.154296875 413.719726562 93.4033203125 421.958007812 77.1513671875 439.776367188 c 0
 60.8720703125 457.625976562 56.8408203125 483.047851562 64.01953125 514.14453125 c 2
 73.0234375 553.14453125 l 1
 168.573242188 553.14453125 l 1
 161.145507812 520.969726562 l 2
 158.653320312 510.173828125 160.522460938 503.419921875 175.618164062 503.419921875 c 0
 185.819335938 503.419921875 190.807617188 505.854492188 192.24609375 507.17578125 c 0
 194.303710938 509.067382812 197.709960938 514.645507812 200.0703125 524.870117188 c 2
 208.848632812 562.89453125 l 2
 211.826171875 575.7890625 211.353515625 583.725585938 209.737304688 587.015625 c 0
 208.754882812 589.013671875 204.104492188 592.14453125 191.2265625 592.14453125 c 2
 166.8515625 592.14453125 l 1
 187.560546875 681.844726562 l 1
 213.885742188 681.844726562 l 2
 225.388671875 681.844726562 231.108398438 684.59765625 232.985351562 686.397460938 c 0
 235.791015625 689.0859375 239.444335938 695.416992188 241.938476562 706.219726562 c 2
 249.141601562 737.419921875 l 2
 251.299804688 746.76953125 250.484375 752.114257812 248.91015625 754.58984375 c 0
 247.641601562 756.5859375 243.846679688 758.870117188 234.59375 758.870117188 c 0
 219.498046875 758.870117188 214.509765625 752.1171875 212.017578125 741.3203125 c 2
 204.364257812 708.169921875 l 1
 108.814453125 708.169921875 l 1
 117.592773438 746.1953125 l 2
 132.430664062 810.463867188 184.481445312 849.544921875 256.502929688 849.544921875 c 0
 292.30078125 849.544921875 319.172851562 840.923828125 335.556640625 822.448242188 c 0
 351.951171875 803.959960938 355.995117188 777.936523438 348.666992188 746.1953125 c 2
 341.013671875 713.044921875 l 2
 331.3125 671.025390625 313.381835938 653.708007812 289.439453125 640.327148438 c 1
EndSplineSet
EndChar

StartChar: acute
Encoding: 180 180 117
Width: 499
GlyphClass: 2
Flags: MW
HStem: 575.57 150.149<177.961 466.081 177.961 466.081>
VStem: 129.069 253.455
LayerCount: 2
Fore
SplineSet
321.92578125 725.719726562 m 1
 466.081054688 725.719726562 l 1
 295.619140625 575.5703125 l 1
 177.9609375 575.5703125 l 1
 321.92578125 725.719726562 l 1
EndSplineSet
EndChar

StartChar: uni00B5
Encoding: 181 181 118
Width: 411
GlyphClass: 2
Flags: MW
HStem: -4.55469 116.024<106.315 160.937> 512.67 20G<80.9717 211.621 211.621 211.621 287.672 418.321 418.321 418.321>
VStem: 41.9844 130.649 248.685 130.649
LayerCount: 2
Fore
SplineSet
173.903320312 18.7685546875 m 1
 168.0625 14.0859375 142.870117188 -4.5546875 111.967773438 -4.5546875 c 0
 100.662109375 -4.5546875 90.560546875 -3.1201171875 81.791015625 -0.126953125 c 1
 46.3291015625 -153.73046875 l 1
 -77.49609375 -153.73046875 l 1
 80.9716796875 532.669921875 l 1
 211.62109375 532.669921875 l 1
 124.958984375 157.294921875 l 2
 121.232421875 141.154296875 122.685546875 130.124023438 127.807617188 122.80859375 c 0
 133.149414062 115.178710938 140.880859375 111.469726562 152.404296875 111.469726562 c 0
 169.469726562 111.469726562 192.657226562 121.116210938 201.009765625 157.294921875 c 2
 287.671875 532.669921875 l 1
 418.321289062 532.669921875 l 1
 295.418945312 0.3203125 l 1
 169.64453125 0.3203125 l 1
 173.903320312 18.7685546875 l 1
EndSplineSet
EndChar

StartChar: paragraph
Encoding: 182 182 119
Width: 551
GlyphClass: 2
Flags: MW
HStem: 670.62 20G<322.188 572.763 572.763 572.763>
VStem: 42.96 287.624 204.81 125.774 372.509 124.801
LayerCount: 2
Fore
SplineSet
68.216796875 473.1953125 m 0xd0
 95.4169921875 591.013671875 194.890625 690.620117188 322.1875 690.620117188 c 2
 572.762695312 690.620117188 l 1
 377.829101562 -153.73046875 l 1
 253.028320312 -153.73046875 l 1
 422.750976562 581.419921875 l 1
 380.826171875 581.419921875 l 1
 211.103515625 -153.73046875 l 1
 85.3291015625 -153.73046875 l 1
 179.80859375 255.5078125 l 1xb0
 88.0302734375 265.708984375 41.2392578125 356.342773438 68.216796875 473.1953125 c 0xd0
EndSplineSet
EndChar

StartChar: periodcentered
Encoding: 183 183 120
Width: 182
GlyphClass: 2
Flags: MW
HStem: 208.97 146.25<28.3037 126.164 -5.46094 159.929>
VStem: 30.2842 131.625
LayerCount: 2
Fore
SplineSet
28.3037109375 355.219726562 m 1
 159.928710938 355.219726562 l 1
 126.1640625 208.969726562 l 1
 -5.4609375 208.969726562 l 1
 28.3037109375 355.219726562 l 1
EndSplineSet
EndChar

StartChar: cedilla
Encoding: 184 184 121
Width: 499
GlyphClass: 2
Flags: MW
HStem: -153.73 181.351<28.0713 252.681 28.0713 252.681>
VStem: 147.552 182.741
LayerCount: 2
Fore
SplineSet
252.680664062 27.6201171875 m 1
 147.124023438 -153.73046875 l 1
 28.0712890625 -153.73046875 l 1
 148.741210938 27.6201171875 l 1
 252.680664062 27.6201171875 l 1
EndSplineSet
EndChar

StartChar: uni00B9
Encoding: 185 185 122
Width: 221
GlyphClass: 2
Flags: MW
VStem: 87.8096 98.4746
LayerCount: 2
Fore
SplineSet
99.0859375 682.928710938 m 1
 125.576171875 797.669921875 l 1
 204.704101562 843.6953125 l 1
 297.077148438 843.6953125 l 1
 199.16015625 419.5703125 l 1
 100.685546875 419.5703125 l 1
 171.166015625 724.853515625 l 1
 99.0859375 682.928710938 l 1
EndSplineSet
EndChar

StartChar: ordmasculine
Encoding: 186 186 123
Width: 314
GlyphClass: 2
Flags: MW
HStem: 414.695 85.7998<189.462 192.871> 659.42 85.8008<223.53 236.017>
VStem: 43.9346 92.625 186.284 93.5996
LayerCount: 2
Fore
SplineSet
174.634765625 414.6953125 m 0
 67.0703125 414.6953125 72.2216796875 486.321289062 83.3720703125 534.62109375 c 2
 104.305664062 625.295898438 l 2
 115.44921875 673.561523438 143.354492188 745.220703125 250.942382812 745.220703125 c 0
 287.4140625 745.220703125 314.612304688 736.254882812 330.844726562 717.03515625 c 0
 347.447265625 697.37890625 349.68359375 666.133789062 340.254882812 625.294921875 c 2
 319.321289062 534.620117188 l 2
 309.892578125 493.78125 293.229492188 462.536132812 267.551757812 442.880859375 c 0
 242.444335938 423.661132812 211.106445312 414.6953125 174.634765625 414.6953125 c 0
193.467773438 500.495117188 m 0
 205.180664062 500.495117188 218.588867188 503.724609375 226.396484375 537.544921875 c 2
 245.98046875 622.370117188 l 2
 253.788085938 656.1875 241.875 659.419921875 230.159179688 659.419921875 c 0
 216.900390625 659.419921875 203.650390625 654.399414062 196.255859375 622.370117188 c 2
 176.671875 537.544921875 l 2
 168.23828125 501.014648438 185.45703125 500.495117188 193.467773438 500.495117188 c 0
258.001953125 834.919921875 m 1024
EndSplineSet
EndChar

StartChar: guillemotright
Encoding: 187 187 124
Width: 442
GlyphClass: 2
Flags: W
LayerCount: 2
Fore
SplineSet
38.50390625 348.721679688 m 1
 69.05078125 481.037109375 l 1
 229.727539062 266.495117188 l 1
 -30.0107421875 51.953125 l 1
 0.537109375 184.268554688 l 1
 99.8779296875 266.495117188 l 1
 38.50390625 348.721679688 l 1
226.678710938 348.721679688 m 1
 257.225585938 481.037109375 l 1
 417.903320312 266.495117188 l 1
 158.1640625 51.953125 l 1
 188.711914062 184.268554688 l 1
 288.052734375 266.495117188 l 1
 226.678710938 348.721679688 l 1
EndSplineSet
EndChar

StartChar: onequarter
Encoding: 188 188 125
Width: 691
GlyphClass: 3
Flags: MW
HStem: 0.320312 21G<51.71 150.392 51.71 51.71 468.969 566.469 468.969 468.969> 62.7197 89.7002<471.286 483.374 601.583 609.149 471.286 580.874> 529.854 21G<63.7461 63.7461> 670.62 21G
VStem: 87.8096 98.4746 552.884 97.5
LayerCount: 2
Fore
SplineSet
63.74609375 529.853515625 m 1
 90.236328125 644.594726562 l 1
 169.364257812 690.620117188 l 1
 261.737304688 690.620117188 l 1
 163.8203125 266.495117188 l 1
 65.345703125 266.495117188 l 1
 135.825195312 571.778320312 l 1
 63.74609375 529.853515625 l 1
601.583007812 152.419921875 m 1
 629.858398438 152.419921875 l 1
 609.149414062 62.7197265625 l 1
 580.874023438 62.7197265625 l 1
 566.46875 0.3203125 l 1
 468.96875 0.3203125 l 1
 483.374023438 62.7197265625 l 1
 348.82421875 62.7197265625 l 1
 367.831054688 145.044921875 l 1
 523.466796875 424.4453125 l 1
 621.838867188 424.4453125 l 1
 471.286132812 152.419921875 l 1
 504.083007812 152.419921875 l 1
 522.31640625 231.39453125 l 1
 619.81640625 231.39453125 l 1
 601.583007812 152.419921875 l 1
571.59765625 698.419921875 m 1
 150.391601562 0.3203125 l 1
 51.7099609375 0.3203125 l 1
 472.916015625 698.419921875 l 1
 571.59765625 698.419921875 l 1
EndSplineSet
Ligature2: "'frac' Diagonal Fractions lookup 2 subtable" one slash four
EndChar

StartChar: onehalf
Encoding: 189 189 126
Width: 687
GlyphClass: 3
Flags: MW
HStem: 0.320312 89.6992<483.254 579.145> 340.596 89.7002<533.607 549.699> 529.854 21G<63.7461 63.7461> 670.62 21G
VStem: 87.8096 98.4746 433.935 95.5498 566.534 95.5498
LayerCount: 2
Fore
SplineSet
63.74609375 529.853515625 m 1
 90.236328125 644.594726562 l 1
 169.364257812 690.620117188 l 1
 261.737304688 690.620117188 l 1
 163.8203125 266.495117188 l 1
 65.345703125 266.495117188 l 1
 135.825195312 571.778320312 l 1
 63.74609375 529.853515625 l 1
427.001953125 333.770507812 m 2
 441.021484375 394.493164062 496.6484375 430.295898438 564.336914062 430.295898438 c 0
 598.236328125 430.295898438 624.11328125 421.956054688 640.5859375 404.290039062 c 0
 657.12890625 386.546875 661.618164062 361.78125 654.701171875 331.821289062 c 2
 647.723632812 301.595703125 l 2
 639.958984375 267.962890625 629.193359375 246.5234375 593.033203125 206.828125 c 2
 483.25390625 90.01953125 l 1
 599.852539062 90.01953125 l 1
 579.14453125 0.3203125 l 1
 347.09375 0.3203125 l 1
 365.044921875 78.076171875 l 1
 367.05078125 80.2919921875 l 1
 367.05078125 80.2919921875 521.493164062 250.918945312 521.635742188 251.07421875 c 0
 543.301757812 274.202148438 547.928710938 283.208984375 552.173828125 301.595703125 c 2
 557.125976562 323.045898438 l 2
 559.001953125 331.171875 557.719726562 340.595703125 541.677734375 340.595703125 c 0
 525.537109375 340.595703125 522.415039062 333.177734375 520.750976562 325.970703125 c 2
 511.747070312 286.970703125 l 1
 416.197265625 286.970703125 l 1
 427.001953125 333.770507812 l 2
571.59765625 698.421875 m 1
 150.391601562 0.322265625 l 1
 51.7099609375 0.322265625 l 1
 472.916015625 698.421875 l 1
 571.59765625 698.421875 l 1
EndSplineSet
Ligature2: "'frac' Diagonal Fractions lookup 2 subtable" one slash two
EndChar

StartChar: threequarters
Encoding: 190 190 127
Width: 752
GlyphClass: 3
Flags: MW
HStem: 0.320312 21G<113.135 211.816 113.135 113.135 530.395 627.895 530.395 530.395> 62.7197 89.7002<532.711 544.8 663.009 670.574 532.711 642.3> 260.645 89.7002<132.73 138.173> 439.07 89.6992<152.221 155.887 131.512 178.546> 605.795 90.6748<191.705 203.879>
VStem: 29.3096 95.5498 162.884 97.5 614.31 97.5
LayerCount: 2
Fore
SplineSet
254.099609375 487.251953125 m 1
 272.698242188 474.681640625 282.247070312 458.499023438 272.134765625 414.6953125 c 2
 261.780273438 369.844726562 l 2
 253.887695312 335.662109375 237.435546875 308.025390625 211.930664062 288.779296875 c 0
 186.625976562 269.68359375 155.80078125 260.64453125 120.544921875 260.64453125 c 0
 84.814453125 260.64453125 58.0625 268.8828125 41.8115234375 286.702148438 c 0
 25.53125 304.55078125 21.5 329.97265625 28.6796875 361.0703125 c 2
 37.68359375 400.0703125 l 1
 133.233398438 400.0703125 l 1
 125.8046875 367.89453125 l 2
 123.3125 357.098632812 125.182617188 350.344726562 140.278320312 350.344726562 c 0
 150.479492188 350.344726562 155.467773438 352.779296875 156.905273438 354.100585938 c 0
 158.963867188 355.9921875 162.369140625 361.5703125 164.73046875 371.794921875 c 2
 173.508789062 409.8203125 l 2
 176.485351562 422.713867188 176.013671875 430.650390625 174.396484375 433.940429688 c 0
 173.415039062 435.938476562 168.764648438 439.0703125 155.88671875 439.0703125 c 2
 131.51171875 439.0703125 l 1
 152.220703125 528.76953125 l 1
 178.545898438 528.76953125 l 2
 190.048828125 528.76953125 195.768554688 531.5234375 197.645507812 533.322265625 c 0
 200.451171875 536.010742188 204.103515625 542.341796875 206.59765625 553.14453125 c 2
 213.80078125 584.344726562 l 2
 215.959960938 593.694335938 215.143554688 599.0390625 213.5703125 601.515625 c 0
 212.30078125 603.510742188 208.505859375 605.794921875 199.252929688 605.794921875 c 0
 184.157226562 605.794921875 179.169921875 599.041992188 176.676757812 588.245117188 c 2
 169.0234375 555.094726562 l 1
 73.4736328125 555.094726562 l 1
 82.2529296875 593.120117188 l 2
 97.0908203125 657.388671875 149.141601562 696.469726562 221.163085938 696.469726562 c 0
 256.9609375 696.469726562 283.833007812 687.848632812 300.216796875 669.373046875 c 0
 316.611328125 650.884765625 320.655273438 624.862304688 313.327148438 593.120117188 c 2
 305.673828125 559.969726562 l 2
 295.97265625 517.950195312 278.041992188 500.6328125 254.099609375 487.251953125 c 1
663.008789062 152.419921875 m 1
 691.283203125 152.419921875 l 1
 670.57421875 62.7197265625 l 1
 642.299804688 62.7197265625 l 1
 627.89453125 0.3203125 l 1
 530.39453125 0.3203125 l 1
 544.799804688 62.7197265625 l 1
 410.249023438 62.7197265625 l 1
 429.255859375 145.044921875 l 1
 584.891601562 424.4453125 l 1
 683.263671875 424.4453125 l 1
 532.7109375 152.419921875 l 1
 565.508789062 152.419921875 l 1
 583.7421875 231.39453125 l 1
 681.2421875 231.39453125 l 1
 663.008789062 152.419921875 l 1
633.022460938 698.419921875 m 1
 211.81640625 0.3203125 l 1
 113.134765625 0.3203125 l 1
 534.340820312 698.419921875 l 1
 633.022460938 698.419921875 l 1
EndSplineSet
Ligature2: "'frac' Diagonal Fractions lookup 2 subtable" three slash four
EndChar

StartChar: questiondown
Encoding: 191 191 128
Width: 378
GlyphClass: 2
Flags: MW
HStem: -163.48 119.926<96.979 112.99 96.979 131.453> 391.295 141.375<174.571 265.758 141.933 298.396>
VStem: 27.3594 132.6 135.584 123.825 236.009 130.65
LayerCount: 2
Fore
SplineSet
174.571289062 532.669921875 m 1xd0
 298.396484375 532.669921875 l 1
 265.7578125 391.294921875 l 1
 141.932617188 391.294921875 l 1
 174.571289062 532.669921875 l 1xd0
292.647460938 43.2197265625 m 2xe8
 259.447265625 -100.58984375 187.626953125 -163.48046875 75.2783203125 -163.48046875 c 0
 24.1689453125 -163.48046875 -14.0908203125 -148.533203125 -37.888671875 -118.043945312 c 0
 -61.74609375 -87.4775390625 -67.0712890625 -45.224609375 -54.98046875 7.1435546875 c 0xe8
 -40.8076171875 68.533203125 -19.6728515625 101.876953125 21.732421875 146.727539062 c 2
 73.6435546875 202.388671875 l 2
 98.615234375 228.651367188 108.100585938 244.754882812 118.97265625 291.844726562 c 2
 130.001953125 339.620117188 l 1
 253.827148438 339.620117188 l 1
 242.797851562 291.844726562 l 2xd0
 235.803710938 261.549804688 228.396484375 237.796875 220.155273438 220.118164062 c 0
 211.626953125 201.82421875 195.25390625 179.340820312 171.032226562 151.618164062 c 0
 171.002929688 151.583984375 124.510742188 97.9736328125 124.510742188 97.9736328125 c 2
 96.87109375 66.2373046875 86.576171875 45.9404296875 78.0693359375 9.0947265625 c 0
 66.6064453125 -40.5556640625 90.0185546875 -43.5546875 103.939453125 -43.5546875 c 0
 122.041015625 -43.5546875 131.665039062 -37.85546875 137.91796875 -27.7216796875 c 0
 145.481445312 -15.46875 154 8.580078125 161.997070312 43.2197265625 c 2
 164.0234375 51.9951171875 l 1
 294.673828125 51.9951171875 l 1
 292.647460938 43.2197265625 l 2xe8
EndSplineSet
EndChar

StartChar: Agrave
Encoding: 192 192 129
Width: 484
GlyphClass: 2
Flags: MW
HStem: 0.320312 21G<-78.5928 -78.5928 -78.5928 64.6514 261.962 261.962 261.962 405.19> 130.97 124.8<176.999 264.824 122.113 268.538> 670.62 20G<257.853 388.481 388.481 388.481>
LayerCount: 2
Fore
SplineSet
-78.5927734375 0.3203125 m 1
 257.852539062 690.620117188 l 1
 388.481445312 690.620117188 l 1
 405.190429688 0.3203125 l 1
 261.961914062 0.3203125 l 1
 264.82421875 130.969726562 l 1
 122.11328125 130.969726562 l 1
 64.6513671875 0.3203125 l 1
 -78.5927734375 0.3203125 l 1
176.999023438 255.76953125 m 1
 268.538085938 255.76953125 l 1
 273.780273438 476.7265625 l 1
 176.999023438 255.76953125 l 1
210.490234375 883.669921875 m 1
 354.645507812 883.669921875 l 1
 429.282226562 733.51953125 l 1
 311.623046875 733.51953125 l 1
 210.490234375 883.669921875 l 1
EndSplineSet
EndChar

StartChar: Aacute
Encoding: 193 193 130
Width: 484
GlyphClass: 2
Flags: MW
HStem: 0.320312 21G<-78.5928 -78.5928 -78.5928 64.6514 261.962 261.962 261.962 405.19> 130.97 124.8<176.999 264.824 122.113 268.538> 670.62 20G<257.853 388.481 388.481 388.481>
LayerCount: 2
Fore
SplineSet
-78.5927734375 0.3203125 m 1
 257.852539062 690.620117188 l 1
 388.481445312 690.620117188 l 1
 405.190429688 0.3203125 l 1
 261.961914062 0.3203125 l 1
 264.82421875 130.969726562 l 1
 122.11328125 130.969726562 l 1
 64.6513671875 0.3203125 l 1
 -78.5927734375 0.3203125 l 1
176.999023438 255.76953125 m 1
 268.538085938 255.76953125 l 1
 273.780273438 476.7265625 l 1
 176.999023438 255.76953125 l 1
380.815429688 883.669921875 m 1
 524.970703125 883.669921875 l 1
 354.509765625 733.51953125 l 1
 236.8515625 733.51953125 l 1
 380.815429688 883.669921875 l 1
EndSplineSet
EndChar

StartChar: Acircumflex
Encoding: 194 194 131
Width: 484
GlyphClass: 2
Flags: MW
HStem: 0.320312 21G<-78.5928 -78.5928 -78.5928 64.6514 261.962 261.962 261.962 405.19> 130.97 124.8<176.999 264.824 122.113 268.538> 670.62 20G<257.853 388.481 388.481 388.481>
LayerCount: 2
Fore
SplineSet
-78.5927734375 0.3203125 m 1
 257.852539062 690.620117188 l 1
 388.481445312 690.620117188 l 1
 405.190429688 0.3203125 l 1
 261.961914062 0.3203125 l 1
 264.82421875 130.969726562 l 1
 122.11328125 130.969726562 l 1
 64.6513671875 0.3203125 l 1
 -78.5927734375 0.3203125 l 1
176.999023438 255.76953125 m 1
 268.538085938 255.76953125 l 1
 273.780273438 476.7265625 l 1
 176.999023438 255.76953125 l 1
412.6640625 889.51953125 m 1
 487.9375 727.669921875 l 1
 381.748046875 727.669921875 l 1
 348.173828125 799.235351562 l 1
 280.662109375 727.669921875 l 1
 174.705078125 727.669921875 l 1
 322.521484375 889.51953125 l 1
 412.6640625 889.51953125 l 1
EndSplineSet
EndChar

StartChar: Atilde
Encoding: 195 195 132
Width: 484
GlyphClass: 2
Flags: MW
HStem: 0.320312 21G<-78.5928 -78.5928 -78.5928 64.6514 261.962 261.962 261.962 405.19> 130.97 124.8<176.999 264.824 122.113 268.538> 670.62 20G<257.853 388.481 388.481 388.481> 736.444 105.3<389.639 394.854> 770.569 105.3<280.969 344.231>
LayerCount: 2
Fore
SplineSet
-78.5927734375 0.3203125 m 1xe0
 257.852539062 690.620117188 l 1
 388.481445312 690.620117188 l 1
 405.190429688 0.3203125 l 1
 261.961914062 0.3203125 l 1
 264.82421875 130.969726562 l 1
 122.11328125 130.969726562 l 1
 64.6513671875 0.3203125 l 1
 -78.5927734375 0.3203125 l 1xe0
176.999023438 255.76953125 m 1
 268.538085938 255.76953125 l 1
 273.780273438 476.7265625 l 1
 176.999023438 255.76953125 l 1
320.104492188 875.869140625 m 0xe8
 368.358398438 875.869140625 371.500976562 841.744140625 407.77734375 841.744140625 c 0
 427.072265625 841.744140625 434.141601562 847.689453125 487.821289062 892.83203125 c 1
 461.291015625 777.916015625 l 1
 427.57421875 748.2265625 410.142578125 736.444335938 379.56640625 736.444335938 c 0xf0
 360.294921875 736.444335938 350.947265625 739.52734375 327.045898438 756.165039062 c 0
 306.850585938 769.454101562 303.306640625 770.569335938 291.89453125 770.569335938 c 0
 270.04296875 770.569335938 257.994140625 760.0390625 210.6953125 718.704101562 c 1
 237.66015625 835.501953125 l 1
 269.915039062 862.76171875 288.920898438 875.869140625 320.104492188 875.869140625 c 0xe8
EndSplineSet
EndChar

StartChar: Adieresis
Encoding: 196 196 133
Width: 484
GlyphClass: 2
Flags: MW
HStem: 0.320312 21G<-78.5928 -78.5928 -78.5928 64.6514 261.962 261.962 261.962 405.19> 130.97 124.8<176.999 264.824 122.113 268.538> 670.62 20G<257.853 388.481 388.481 388.481> 734.495 128.7<232.354 310.866 202.642 340.579 232.354 354.741 384.454 462.966>
VStem: 117.06 108.225 269.159 108.225
LayerCount: 2
Fore
SplineSet
-78.5927734375 0.3203125 m 1
 257.852539062 690.620117188 l 1
 388.481445312 690.620117188 l 1
 405.190429688 0.3203125 l 1
 261.961914062 0.3203125 l 1
 264.82421875 130.969726562 l 1
 122.11328125 130.969726562 l 1
 64.6513671875 0.3203125 l 1
 -78.5927734375 0.3203125 l 1
176.999023438 255.76953125 m 1
 268.538085938 255.76953125 l 1
 273.780273438 476.7265625 l 1
 176.999023438 255.76953125 l 1
232.354492188 863.1953125 m 1
 340.579101562 863.1953125 l 1
 310.866210938 734.495117188 l 1
 202.641601562 734.495117188 l 1
 232.354492188 863.1953125 l 1
384.454101562 863.1953125 m 1
 492.678710938 863.1953125 l 1
 462.965820312 734.495117188 l 1
 354.741210938 734.495117188 l 1
 384.454101562 863.1953125 l 1
EndSplineSet
EndChar

StartChar: Aring
Encoding: 197 197 134
Width: 484
GlyphClass: 2
Flags: MW
HStem: 0.321289 21G<-78.5928 64.6514 -78.5928 -78.5928> 130.971 124.8<122.114 268.536> 789.096 65.3262<346.941 355.962>
VStem: 147.284 65.3232 281.833 66.3008
LayerCount: 2
Fore
SplineSet
437.993164062 753.021484375 m 0
 434.341796875 737.204101562 422.97265625 704.5625 388.768554688 678.752929688 c 1
 405.190429688 0.3203125 l 1
 261.961914062 0.3203125 l 1
 264.82421875 130.969726562 l 1
 217.25390625 130.969726562 169.684570312 130.970703125 122.114257812 130.970703125 c 1
 64.6513671875 0.3212890625 l 1
 -78.5927734375 0.3212890625 l 1
 252.071289062 678.759765625 l 1
 247.044921875 684.58203125 227.017578125 709.163085938 237.143554688 753.021484375 c 0
 243.760742188 781.684570312 259.103515625 806.291015625 282.779296875 825.525390625 c 0
 306.3984375 844.71484375 332.904296875 854.421875 360.978515625 854.421875 c 0
 389.052734375 854.421875 411.076171875 844.71484375 425.8359375 825.525390625 c 0
 440.629882812 806.291015625 444.610351562 781.684570312 437.993164062 753.021484375 c 0
345.895507812 789.095703125 m 0
 323.411132812 789.095703125 307.143554688 773.27734375 302.466796875 753.020507812 c 0
 297.813476562 732.865234375 309.307617188 717.919921875 329.463867188 717.919921875 c 0
 350.372070312 717.919921875 367.23046875 733.6953125 371.692382812 753.020507812 c 0
 376.635742188 774.431640625 366.028320312 789.095703125 345.895507812 789.095703125 c 0
176.997070312 255.770507812 m 1
 268.536132812 255.770507812 l 1
 273.779296875 476.727539062 l 1
 176.997070312 255.770507812 l 1
341.7578125 661.37109375 m 1024
EndSplineSet
EndChar

StartChar: AE
Encoding: 198 198 135
Width: 674
GlyphClass: 2
Flags: MW
HStem: 0.320312 124.8<421.73 573.294> 129.995 124.8<215.59 285.382 141.352 314.194> 288.92 124.8<488.359 615.547 459.547 644.359> 564.845 125.775<523.249 703.624 523.249 523.249>
VStem: 339.359 137.475
LayerCount: 2
Fore
SplineSet
-79.966796875 0.3203125 m 1
 339.514648438 690.620117188 l 1
 732.662109375 690.620117188 l 1
 703.624023438 564.844726562 l 1
 523.249023438 564.844726562 l 1
 488.359375 413.719726562 l 1
 644.359375 413.719726562 l 1
 615.546875 288.919921875 l 1
 459.546875 288.919921875 l 1
 421.73046875 125.120117188 l 1
 602.10546875 125.120117188 l 1
 573.293945312 0.3203125 l 1
 255.444335938 0.3203125 l 1
 285.381835938 129.995117188 l 1
 141.3515625 129.995117188 l 1
 63.6396484375 0.3203125 l 1
 -79.966796875 0.3203125 l 1
314.194335938 254.794921875 m 1
 376.565429688 524.955078125 l 1
 215.58984375 254.794921875 l 1
 314.194335938 254.794921875 l 1
EndSplineSet
EndChar

StartChar: Ccedilla
Encoding: 199 199 136
Width: 468
GlyphClass: 2
Flags: MW
HStem: 574.595 125.775<290.46 319.227>
VStem: 39.0605 137.475 301.334 137.476
LayerCount: 2
Fore
SplineSet
331.317382812 493.669921875 m 2
 335.10546875 510.076171875 349.877929688 574.594726562 288.576171875 574.594726562 c 0
 263.3984375 574.594726562 223.780273438 568.439453125 202.916992188 478.0703125 c 2
 140.565429688 207.995117188 l 2
 121.49609375 125.399414062 159.142578125 118.294921875 183.231445312 118.294921875 c 0
 212.286132812 118.294921875 248.338867188 134.247070312 263.114257812 198.245117188 c 2
 269.19140625 224.5703125 l 1
 405.69140625 224.5703125 l 1
 399.388671875 197.26953125 l 2
 386.931640625 143.309570312 364.404296875 99.162109375 331.142578125 65.6923828125 c 0
 299.400390625 33.7509765625 261.530273438 12.048828125 218.43359375 0.830078125 c 1
 128.60546875 -153.73046875 l 1
 9.5517578125 -153.73046875 l 1
 109.157226562 -3.9638671875 l 1
 65.0869140625 3.041015625 32.3447265625 22.150390625 12.0205078125 53.51953125 c 0
 -10.1640625 87.759765625 -13.736328125 135.108398438 -0.060546875 194.344726562 c 2
 69.9443359375 497.5703125 l 2
 85.0205078125 562.874023438 115.256835938 613.916015625 161.331054688 648.822265625 c 0
 206.9296875 683.366210938 260.380859375 700.370117188 320.5390625 700.370117188 c 0
 378.168945312 700.370117188 421.88671875 683.466796875 450.274414062 649.227539062 c 0
 479.047851562 614.525390625 484.65625 562.379882812 469.017578125 494.64453125 c 2
 462.264648438 465.39453125 l 1
 324.7890625 465.39453125 l 1
 331.317382812 493.669921875 l 2
EndSplineSet
EndChar

StartChar: Egrave
Encoding: 200 200 137
Width: 377
GlyphClass: 2
Flags: MW
HStem: 0.320312 124.8<124.355 276.895> 288.92 124.8<190.984 318.172 162.172 346.984> 564.845 125.775<225.874 407.225 225.874 225.874>
VStem: 42.959 136.5 42.959 317.851
LayerCount: 2
Fore
SplineSet
124.35546875 125.120117188 m 1xf0
 305.706054688 125.120117188 l 1
 276.89453125 0.3203125 l 1
 -40.9560546875 0.3203125 l 1
 118.412109375 690.620117188 l 1
 436.262695312 690.620117188 l 1
 407.224609375 564.844726562 l 1xe8
 225.874023438 564.844726562 l 1
 190.984375 413.719726562 l 1
 346.984375 413.719726562 l 1
 318.171875 288.919921875 l 1
 162.171875 288.919921875 l 1
 124.35546875 125.120117188 l 1xf0
168.565429688 883.669921875 m 1
 312.720703125 883.669921875 l 1
 387.356445312 733.51953125 l 1
 269.698242188 733.51953125 l 1
 168.565429688 883.669921875 l 1
EndSplineSet
EndChar

StartChar: Eacute
Encoding: 201 201 138
Width: 377
GlyphClass: 2
Flags: MW
HStem: 0.320312 124.8<124.355 276.895> 288.92 124.8<190.984 318.172 162.172 346.984> 564.845 125.775<225.874 407.225 225.874 225.874>
VStem: 42.959 136.5 42.959 317.851
LayerCount: 2
Fore
SplineSet
124.35546875 125.120117188 m 1xf0
 305.706054688 125.120117188 l 1
 276.89453125 0.3203125 l 1
 -40.9560546875 0.3203125 l 1
 118.412109375 690.620117188 l 1
 436.262695312 690.620117188 l 1
 407.224609375 564.844726562 l 1xe8
 225.874023438 564.844726562 l 1
 190.984375 413.719726562 l 1
 346.984375 413.719726562 l 1
 318.171875 288.919921875 l 1
 162.171875 288.919921875 l 1
 124.35546875 125.120117188 l 1xf0
338.890625 883.669921875 m 1
 483.045898438 883.669921875 l 1
 312.584960938 733.51953125 l 1
 194.926757812 733.51953125 l 1
 338.890625 883.669921875 l 1
EndSplineSet
EndChar

StartChar: Ecircumflex
Encoding: 202 202 139
Width: 377
GlyphClass: 2
Flags: MW
HStem: 0.320312 124.8<124.355 276.895> 288.92 124.8<190.984 318.172 162.172 346.984> 564.845 125.775<225.874 407.225 225.874 225.874>
VStem: 42.959 136.5 42.959 317.851
LayerCount: 2
Fore
SplineSet
124.35546875 125.120117188 m 1xf0
 305.706054688 125.120117188 l 1
 276.89453125 0.3203125 l 1
 -40.9560546875 0.3203125 l 1
 118.412109375 690.620117188 l 1
 436.262695312 690.620117188 l 1
 407.224609375 564.844726562 l 1xe8
 225.874023438 564.844726562 l 1
 190.984375 413.719726562 l 1
 346.984375 413.719726562 l 1
 318.171875 288.919921875 l 1
 162.171875 288.919921875 l 1
 124.35546875 125.120117188 l 1xf0
280.596679688 889.51953125 m 1
 370.739257812 889.51953125 l 1
 446.012695312 727.669921875 l 1
 339.823242188 727.669921875 l 1
 306.249023438 799.235351562 l 1
 238.737304688 727.669921875 l 1
 132.780273438 727.669921875 l 1
 280.596679688 889.51953125 l 1
EndSplineSet
EndChar

StartChar: Edieresis
Encoding: 203 203 140
Width: 377
GlyphClass: 2
Flags: MW
HStem: 0.320312 124.8<124.355 276.895> 288.92 124.8<190.984 318.172 162.172 346.984> 564.845 125.775<225.874 407.225 225.874 225.874> 734.495 128.7<190.429 268.941 160.716 298.654 190.429 312.816 342.529 421.041>
VStem: 42.959 136.5 42.959 317.851 75.1338 108.226 227.234 108.225
LayerCount: 2
Fore
SplineSet
124.35546875 125.120117188 m 1xf9
 305.706054688 125.120117188 l 1
 276.89453125 0.3203125 l 1
 -40.9560546875 0.3203125 l 1
 118.412109375 690.620117188 l 1
 436.262695312 690.620117188 l 1
 407.224609375 564.844726562 l 1xf4
 225.874023438 564.844726562 l 1
 190.984375 413.719726562 l 1
 346.984375 413.719726562 l 1
 318.171875 288.919921875 l 1
 162.171875 288.919921875 l 1
 124.35546875 125.120117188 l 1xf9
190.428710938 863.1953125 m 1xf2
 298.654296875 863.1953125 l 1
 268.94140625 734.495117188 l 1
 160.715820312 734.495117188 l 1
 190.428710938 863.1953125 l 1xf2
342.529296875 863.1953125 m 1xf1
 450.75390625 863.1953125 l 1
 421.041015625 734.495117188 l 1
 312.81640625 734.495117188 l 1
 342.529296875 863.1953125 l 1xf1
EndSplineSet
EndChar

StartChar: Igrave
Encoding: 204 204 141
Width: 220
GlyphClass: 2
Flags: MW
HStem: 0.320312 21G<-37.0557 99.4443 -37.0557 -37.0557> 670.62 20G<122.312 258.812 258.812 258.812>
VStem: 46.8594 136.5
LayerCount: 2
Fore
SplineSet
122.3125 690.620117188 m 1
 258.8125 690.620117188 l 1
 99.4443359375 0.3203125 l 1
 -37.0556640625 0.3203125 l 1
 122.3125 690.620117188 l 1
77.8896484375 883.669921875 m 1
 222.045898438 883.669921875 l 1
 296.681640625 733.51953125 l 1
 179.0234375 733.51953125 l 1
 77.8896484375 883.669921875 l 1
EndSplineSet
EndChar

StartChar: Iacute
Encoding: 205 205 142
Width: 220
GlyphClass: 2
Flags: MW
HStem: 0.320312 21G<-37.0557 99.4443 -37.0557 -37.0557> 670.62 20G<122.312 258.812 258.812 258.812>
VStem: 46.8594 136.5
LayerCount: 2
Fore
SplineSet
122.3125 690.620117188 m 1
 258.8125 690.620117188 l 1
 99.4443359375 0.3203125 l 1
 -37.0556640625 0.3203125 l 1
 122.3125 690.620117188 l 1
248.215820312 883.669921875 m 1
 392.37109375 883.669921875 l 1
 221.909179688 733.51953125 l 1
 104.250976562 733.51953125 l 1
 248.215820312 883.669921875 l 1
EndSplineSet
EndChar

StartChar: Icircumflex
Encoding: 206 206 143
Width: 220
GlyphClass: 2
Flags: MW
HStem: 0.320312 21G<-37.0557 99.4443 -37.0557 -37.0557> 670.62 20G<122.312 258.812 258.812 258.812>
VStem: 46.8594 136.5
LayerCount: 2
Fore
SplineSet
122.3125 690.620117188 m 1
 258.8125 690.620117188 l 1
 99.4443359375 0.3203125 l 1
 -37.0556640625 0.3203125 l 1
 122.3125 690.620117188 l 1
189.921875 889.51953125 m 1
 280.064453125 889.51953125 l 1
 355.337890625 727.669921875 l 1
 249.1484375 727.669921875 l 1
 215.57421875 799.235351562 l 1
 148.0625 727.669921875 l 1
 42.1044921875 727.669921875 l 1
 189.921875 889.51953125 l 1
EndSplineSet
EndChar

StartChar: Idieresis
Encoding: 207 207 144
Width: 220
GlyphClass: 2
Flags: MW
HStem: 0.320312 21G<-37.0557 99.4443 -37.0557 -37.0557> 670.62 20G<122.312 258.812 258.812 258.812> 734.495 128.7<99.7539 178.267 70.041 207.979 99.7539 222.142 251.854 330.366>
VStem: -15.541 108.226 46.8594 136.5 136.56 108.225
LayerCount: 2
Fore
SplineSet
122.3125 690.620117188 m 1xe8
 258.8125 690.620117188 l 1
 99.4443359375 0.3203125 l 1
 -37.0556640625 0.3203125 l 1
 122.3125 690.620117188 l 1xe8
99.75390625 863.1953125 m 1xf0
 207.979492188 863.1953125 l 1
 178.266601562 734.495117188 l 1
 70.041015625 734.495117188 l 1
 99.75390625 863.1953125 l 1xf0
251.854492188 863.1953125 m 1xe4
 360.079101562 863.1953125 l 1
 330.366210938 734.495117188 l 1
 222.141601562 734.495117188 l 1
 251.854492188 863.1953125 l 1xe4
EndSplineSet
EndChar

StartChar: Eth
Encoding: 208 208 145
Width: 482
GlyphClass: 2
Flags: MW
HStem: 0.320312 124.801<143.856 167.694> 292.821 124.8<211.385 266.423 182.572 295.235> 564.846 125.774<245.375 300.95 245.375 245.375>
VStem: 62.459 136.5 315.959 137.476
LayerCount: 2
Fore
SplineSet
482.29296875 488.795898438 m 2
 416.114257812 202.145507812 l 2
 401.181640625 137.466796875 370.999023438 86.75390625 324.951171875 51.8681640625 c 0
 279.403320312 17.361328125 226.600585938 0.3203125 167.694335938 0.3203125 c 2
 -21.4560546875 0.3203125 l 1
 46.072265625 292.8203125 l 1
 5.1220703125 292.8203125 l 1
 33.9345703125 417.620117188 l 1
 74.884765625 417.620117188 l 1
 137.912109375 690.620117188 l 1
 332.912109375 690.620117188 l 2
 391.1640625 690.620117188 435.073242188 673.736328125 463.16015625 639.44921875 c 0
 491.528320312 604.81640625 497.34765625 554.004882812 482.29296875 488.795898438 c 2
340.08984375 468.321289062 m 2
 362.174804688 563.981445312 315.9609375 564.845703125 300.950195312 564.845703125 c 2
 245.375 564.845703125 l 1
 211.384765625 417.62109375 l 1
 295.235351562 417.62109375 l 1
 266.422851562 292.821289062 l 1
 182.572265625 292.821289062 l 1
 143.856445312 125.12109375 l 1
 199.431640625 125.12109375 l 2
 219.74609375 125.12109375 235.662109375 132.467773438 249.544921875 147.622070312 c 0
 263.756835938 163.13671875 274.8359375 185.672851562 281.790039062 215.795898438 c 2
 340.08984375 468.321289062 l 2
EndSplineSet
EndChar

StartChar: Ntilde
Encoding: 209 209 146
Width: 473
GlyphClass: 2
Flags: MW
HStem: 0.320312 21G<-40.9561 96.5195 -40.9561 -40.9561 222.153 356.844 222.153 222.153> 670.62 20G<118.412 253.195 253.195 253.195 378.737 516.212 516.212 516.212> 736.444 105.3<383.789 389.006> 770.569 105.3<275.119 338.382>
VStem: 42.959 137.476 303.284 137.475
LayerCount: 2
Fore
SplineSet
516.211914062 690.620117188 m 1xcc
 356.84375 0.3203125 l 1
 222.153320312 0.3203125 l 1
 170.642578125 321.384765625 l 1
 96.51953125 0.3203125 l 1
 -40.9560546875 0.3203125 l 1
 118.412109375 690.620117188 l 1
 253.1953125 690.620117188 l 1
 301.447265625 355.840820312 l 1
 378.737304688 690.620117188 l 1
 516.211914062 690.620117188 l 1xcc
314.254882812 875.869140625 m 0xdc
 362.508789062 875.869140625 365.650390625 841.744140625 401.926757812 841.744140625 c 0
 421.219726562 841.744140625 428.283203125 847.68359375 481.970703125 892.831054688 c 1
 455.440429688 777.916015625 l 1
 421.725585938 748.229492188 404.295898438 736.444335938 373.716796875 736.444335938 c 0xec
 354.444335938 736.444335938 345.09765625 739.52734375 321.1953125 756.165039062 c 0
 301.000976562 769.454101562 297.45703125 770.569335938 286.043945312 770.569335938 c 0
 264.193359375 770.569335938 252.143554688 760.0390625 204.845703125 718.704101562 c 1
 231.810546875 835.501953125 l 1
 264.064453125 862.76171875 283.071289062 875.869140625 314.254882812 875.869140625 c 0xdc
EndSplineSet
EndChar

StartChar: Ograve
Encoding: 210 210 147
Width: 468
GlyphClass: 2
Flags: MW
HStem: -7.48047 125.774<171.186 179.756> 574.594 125.776<290.459 296.08>
VStem: 39.0596 137.475 301.334 137.476
LayerCount: 2
Fore
SplineSet
-0.0615234375 194.344726562 m 2
 69.943359375 497.5703125 l 2
 85.01953125 562.874023438 115.255859375 613.916015625 161.330078125 648.822265625 c 0
 206.928710938 683.366210938 260.379882812 700.370117188 320.538085938 700.370117188 c 0
 378.809570312 700.370117188 422.6953125 683.306640625 450.698242188 648.681640625 c 0
 478.959960938 613.735351562 484.749023438 562.783203125 469.693359375 497.5703125 c 2
 399.688476562 194.344726562 l 2
 384.895507812 130.268554688 354.548828125 79.7294921875 308.153320312 44.5576171875 c 0
 262.2265625 9.7412109375 209.220703125 -7.48046875 150.291992188 -7.48046875 c 0
 90.7744140625 -7.48046875 46.3623046875 9.541015625 18.646484375 44.23828125 c 0
 -9.259765625 79.171875 -14.96875 129.775390625 -0.0615234375 194.344726562 c 2
140.564453125 207.994140625 m 2
 121.495117188 125.3984375 159.141601562 118.293945312 183.23046875 118.293945312 c 0
 203.604492188 118.293945312 219.512695312 125.541015625 233.2890625 140.37109375 c 0
 247.36328125 155.521484375 258.408203125 177.865234375 265.364257812 207.995117188 c 2
 327.715820312 478.0703125 l 2
 349.80078125 573.73046875 303.584960938 574.59375 288.575195312 574.59375 c 0
 263.397460938 574.59375 223.779296875 568.438476562 202.916015625 478.069335938 c 2
 140.564453125 207.994140625 l 2
201.71484375 883.669921875 m 1
 345.870117188 883.669921875 l 1
 420.506835938 733.51953125 l 1
 302.848632812 733.51953125 l 1
 201.71484375 883.669921875 l 1
EndSplineSet
EndChar

StartChar: Oacute
Encoding: 211 211 148
Width: 468
GlyphClass: 2
Flags: MW
HStem: -7.48047 125.774<171.186 179.756> 574.594 125.776<290.459 296.08>
VStem: 39.0596 137.475 301.334 137.476
LayerCount: 2
Fore
SplineSet
-0.0615234375 194.344726562 m 2
 69.943359375 497.5703125 l 2
 85.01953125 562.874023438 115.255859375 613.916015625 161.330078125 648.822265625 c 0
 206.928710938 683.366210938 260.379882812 700.370117188 320.538085938 700.370117188 c 0
 378.809570312 700.370117188 422.6953125 683.306640625 450.698242188 648.681640625 c 0
 478.959960938 613.735351562 484.749023438 562.783203125 469.693359375 497.5703125 c 2
 399.688476562 194.344726562 l 2
 384.895507812 130.268554688 354.548828125 79.7294921875 308.153320312 44.5576171875 c 0
 262.2265625 9.7412109375 209.220703125 -7.48046875 150.291992188 -7.48046875 c 0
 90.7744140625 -7.48046875 46.3623046875 9.541015625 18.646484375 44.23828125 c 0
 -9.259765625 79.171875 -14.96875 129.775390625 -0.0615234375 194.344726562 c 2
140.564453125 207.994140625 m 2
 121.495117188 125.3984375 159.141601562 118.293945312 183.23046875 118.293945312 c 0
 203.604492188 118.293945312 219.512695312 125.541015625 233.2890625 140.37109375 c 0
 247.36328125 155.521484375 258.408203125 177.865234375 265.364257812 207.995117188 c 2
 327.715820312 478.0703125 l 2
 349.80078125 573.73046875 303.584960938 574.59375 288.575195312 574.59375 c 0
 263.397460938 574.59375 223.779296875 568.438476562 202.916015625 478.069335938 c 2
 140.564453125 207.994140625 l 2
372.041015625 883.669921875 m 1
 516.196289062 883.669921875 l 1
 345.734375 733.51953125 l 1
 228.076171875 733.51953125 l 1
 372.041015625 883.669921875 l 1
EndSplineSet
EndChar

StartChar: Ocircumflex
Encoding: 212 212 149
Width: 468
GlyphClass: 2
Flags: MW
HStem: -7.48047 125.774<171.186 179.756> 574.594 125.776<290.459 296.08>
VStem: 39.0596 137.475 301.334 137.476
LayerCount: 2
Fore
SplineSet
-0.0615234375 194.344726562 m 2
 69.943359375 497.5703125 l 2
 85.01953125 562.874023438 115.255859375 613.916015625 161.330078125 648.822265625 c 0
 206.928710938 683.366210938 260.379882812 700.370117188 320.538085938 700.370117188 c 0
 378.809570312 700.370117188 422.6953125 683.306640625 450.698242188 648.681640625 c 0
 478.959960938 613.735351562 484.749023438 562.783203125 469.693359375 497.5703125 c 2
 399.688476562 194.344726562 l 2
 384.895507812 130.268554688 354.548828125 79.7294921875 308.153320312 44.5576171875 c 0
 262.2265625 9.7412109375 209.220703125 -7.48046875 150.291992188 -7.48046875 c 0
 90.7744140625 -7.48046875 46.3623046875 9.541015625 18.646484375 44.23828125 c 0
 -9.259765625 79.171875 -14.96875 129.775390625 -0.0615234375 194.344726562 c 2
140.564453125 207.994140625 m 2
 121.495117188 125.3984375 159.141601562 118.293945312 183.23046875 118.293945312 c 0
 203.604492188 118.293945312 219.512695312 125.541015625 233.2890625 140.37109375 c 0
 247.36328125 155.521484375 258.408203125 177.865234375 265.364257812 207.995117188 c 2
 327.715820312 478.0703125 l 2
 349.80078125 573.73046875 303.584960938 574.59375 288.575195312 574.59375 c 0
 263.397460938 574.59375 223.779296875 568.438476562 202.916015625 478.069335938 c 2
 140.564453125 207.994140625 l 2
403.889648438 889.51953125 m 1
 479.163085938 727.669921875 l 1
 372.973632812 727.669921875 l 1
 339.399414062 799.235351562 l 1
 271.887695312 727.669921875 l 1
 165.9296875 727.669921875 l 1
 313.747070312 889.51953125 l 1
 403.889648438 889.51953125 l 1
EndSplineSet
EndChar

StartChar: Otilde
Encoding: 213 213 150
Width: 468
GlyphClass: 2
Flags: MW
HStem: -7.48047 125.774<171.186 179.756> 574.594 125.776<290.459 296.08> 736.444 105.3<380.864 386.08> 770.569 105.3<272.194 335.457>
VStem: 39.0596 137.475 301.334 137.476
LayerCount: 2
Fore
SplineSet
-0.0615234375 194.344726562 m 2xcc
 69.943359375 497.5703125 l 2
 85.01953125 562.874023438 115.255859375 613.916015625 161.330078125 648.822265625 c 0
 206.928710938 683.366210938 260.379882812 700.370117188 320.538085938 700.370117188 c 0
 378.809570312 700.370117188 422.6953125 683.306640625 450.698242188 648.681640625 c 0
 478.959960938 613.735351562 484.749023438 562.783203125 469.693359375 497.5703125 c 2
 399.688476562 194.344726562 l 2
 384.895507812 130.268554688 354.548828125 79.7294921875 308.153320312 44.5576171875 c 0
 262.2265625 9.7412109375 209.220703125 -7.48046875 150.291992188 -7.48046875 c 0
 90.7744140625 -7.48046875 46.3623046875 9.541015625 18.646484375 44.23828125 c 0
 -9.259765625 79.171875 -14.96875 129.775390625 -0.0615234375 194.344726562 c 2xcc
140.564453125 207.994140625 m 2
 121.495117188 125.3984375 159.141601562 118.293945312 183.23046875 118.293945312 c 0
 203.604492188 118.293945312 219.512695312 125.541015625 233.2890625 140.37109375 c 0
 247.36328125 155.521484375 258.408203125 177.865234375 265.364257812 207.995117188 c 2
 327.715820312 478.0703125 l 2
 349.80078125 573.73046875 303.584960938 574.59375 288.575195312 574.59375 c 0
 263.397460938 574.59375 223.779296875 568.438476562 202.916015625 478.069335938 c 2
 140.564453125 207.994140625 l 2
311.330078125 875.869140625 m 0xdc
 359.583984375 875.869140625 362.725585938 841.744140625 399.001953125 841.744140625 c 0
 418.296875 841.744140625 425.366210938 847.689453125 479.045898438 892.83203125 c 1
 452.515625 777.916015625 l 1
 418.798828125 748.2265625 401.368164062 736.444335938 370.791015625 736.444335938 c 0xec
 351.51953125 736.444335938 342.172851562 739.52734375 318.270507812 756.165039062 c 0
 298.075195312 769.454101562 294.53125 770.569335938 283.119140625 770.569335938 c 0
 261.268554688 770.569335938 249.21875 760.0390625 201.920898438 718.704101562 c 1
 228.885742188 835.501953125 l 1
 261.139648438 862.76171875 280.145507812 875.869140625 311.330078125 875.869140625 c 0xdc
EndSplineSet
EndChar

StartChar: Odieresis
Encoding: 214 214 151
Width: 468
GlyphClass: 2
Flags: MW
HStem: -7.48047 125.774<171.186 179.756> 574.594 125.776<290.459 296.08> 734.495 128.7<223.579 302.091 193.866 331.804 223.579 345.966 375.679 454.191>
VStem: 39.0596 137.475 108.284 108.225 260.384 108.226 301.334 137.476
LayerCount: 2
Fore
SplineSet
-0.0615234375 194.344726562 m 2xf2
 69.943359375 497.5703125 l 2
 85.01953125 562.874023438 115.255859375 613.916015625 161.330078125 648.822265625 c 0
 206.928710938 683.366210938 260.379882812 700.370117188 320.538085938 700.370117188 c 0
 378.809570312 700.370117188 422.6953125 683.306640625 450.698242188 648.681640625 c 0
 478.959960938 613.735351562 484.749023438 562.783203125 469.693359375 497.5703125 c 2
 399.688476562 194.344726562 l 2
 384.895507812 130.268554688 354.548828125 79.7294921875 308.153320312 44.5576171875 c 0
 262.2265625 9.7412109375 209.220703125 -7.48046875 150.291992188 -7.48046875 c 0
 90.7744140625 -7.48046875 46.3623046875 9.541015625 18.646484375 44.23828125 c 0
 -9.259765625 79.171875 -14.96875 129.775390625 -0.0615234375 194.344726562 c 2xf2
140.564453125 207.994140625 m 2
 121.495117188 125.3984375 159.141601562 118.293945312 183.23046875 118.293945312 c 0
 203.604492188 118.293945312 219.512695312 125.541015625 233.2890625 140.37109375 c 0
 247.36328125 155.521484375 258.408203125 177.865234375 265.364257812 207.995117188 c 2
 327.715820312 478.0703125 l 2
 349.80078125 573.73046875 303.584960938 574.59375 288.575195312 574.59375 c 0
 263.397460938 574.59375 223.779296875 568.438476562 202.916015625 478.069335938 c 2
 140.564453125 207.994140625 l 2
223.579101562 863.1953125 m 1xe8
 331.803710938 863.1953125 l 1
 302.090820312 734.495117188 l 1
 193.866210938 734.495117188 l 1
 223.579101562 863.1953125 l 1xe8
375.678710938 863.1953125 m 1xe4
 483.904296875 863.1953125 l 1
 454.19140625 734.495117188 l 1
 345.965820312 734.495117188 l 1
 375.678710938 863.1953125 l 1xe4
EndSplineSet
EndChar

StartChar: multiply
Encoding: 215 215 152
Width: 420
GlyphClass: 2
Flags: W
LayerCount: 2
Fore
SplineSet
176.43359375 194.580078125 m 1
 62.4658203125 101.987304688 l 1
 -1.8203125 185.5703125 l 1
 112.1484375 278.162109375 l 1
 40.6826171875 369.8125 l 1
 143.560546875 453.39453125 l 1
 215.026367188 361.744140625 l 1
 327.876953125 453.426757812 l 1
 392.163085938 369.844726562 l 1
 279.313476562 278.162109375 l 1
 349.579101562 185.537109375 l 1
 246.700195312 101.955078125 l 1
 176.43359375 194.580078125 l 1
EndSplineSet
EndChar

StartChar: Oslash
Encoding: 216 216 153
Width: 468
GlyphClass: 2
Flags: MW
HStem: -7.48047 125.775<170.102 179.755> 574.595 125.775<290.459 300.708>
VStem: 39.0596 137.474 301.333 137.476
LayerCount: 2
Fore
SplineSet
448.573242188 717.919921875 m 1
 525.326171875 717.919921875 l 1
 463.893554688 627.302734375 l 1
 479.991210938 592.931640625 481.668945312 549.446289062 469.692382812 497.5703125 c 2
 399.6875 194.344726562 l 2
 384.89453125 130.268554688 354.547851562 79.7294921875 308.15234375 44.5576171875 c 0
 262.225585938 9.7412109375 209.219726562 -7.48046875 150.291015625 -7.48046875 c 0
 108.79296875 -7.48046875 74.525390625 0.892578125 47.9833984375 17.96484375 c 1
 22.6044921875 -19.1796875 l 1
 -54.0869140625 -19.1796875 l 1
 4.494140625 67.5673828125 l 1
 -10.630859375 100.735351562 -11.8642578125 143.224609375 -0.0615234375 194.344726562 c 2
 69.943359375 497.5703125 l 2
 85.01953125 562.874023438 115.255859375 613.916015625 161.330078125 648.822265625 c 0
 206.928710938 683.366210938 260.379882812 700.370117188 320.538085938 700.370117188 c 0
 361.237304688 700.370117188 394.602539062 692.356445312 420.125976562 675.942382812 c 1
 448.573242188 717.919921875 l 1
288.57421875 574.594726562 m 0
 263.396484375 574.594726562 223.778320312 568.439453125 202.915039062 478.0703125 c 2
 161.009765625 296.55859375 l 1
 330.732421875 545.401367188 l 1
 326.02734375 565.294921875 312.842773438 574.594726562 288.57421875 574.594726562 c 0
183.229492188 118.294921875 m 0
 203.603515625 118.294921875 219.512695312 125.541992188 233.288085938 140.372070312 c 0
 247.362304688 155.522460938 258.407226562 177.865234375 265.36328125 207.995117188 c 2
 310.20703125 402.234375 l 1
 137.633789062 149.451171875 l 1
 142.689453125 128.30078125 156.974609375 118.294921875 183.229492188 118.294921875 c 0
EndSplineSet
EndChar

StartChar: Ugrave
Encoding: 217 217 154
Width: 460
GlyphClass: 2
Flags: MW
HStem: -7.48047 125.776<162.415 189.909 162.415 204.091> 670.621 20G<118.412 255.888 255.888 255.888 365.087 502.562 502.562 502.562>
VStem: 42.959 137.476 289.634 137.476
LayerCount: 2
Fore
SplineSet
149.317382812 -7.48046875 m 0
 37.2607421875 -7.48046875 -24.541015625 71.4228515625 1.8125 185.571289062 c 2
 118.412109375 690.62109375 l 1
 255.887695312 690.62109375 l 1
 139.962890625 188.49609375 l 2
 126.932617188 132.056640625 146.474609375 118.295898438 178.35546875 118.295898438 c 0
 201.462890625 118.295898438 234.62109375 125.510742188 249.162109375 188.49609375 c 2
 365.086914062 690.62109375 l 1
 502.5625 690.62109375 l 1
 385.962890625 185.571289062 l 2
 358.66796875 67.345703125 258.864257812 -7.48046875 149.317382812 -7.48046875 c 0
197.814453125 883.669921875 m 1
 341.969726562 883.669921875 l 1
 416.60546875 733.51953125 l 1
 298.947265625 733.51953125 l 1
 197.814453125 883.669921875 l 1
EndSplineSet
EndChar

StartChar: Uacute
Encoding: 218 218 155
Width: 460
GlyphClass: 2
Flags: MW
HStem: -7.48047 125.776<162.415 189.909 162.415 204.091> 670.621 20G<118.412 255.888 255.888 255.888 365.087 502.562 502.562 502.562>
VStem: 42.959 137.476 289.634 137.476
LayerCount: 2
Fore
SplineSet
149.317382812 -7.48046875 m 0
 37.2607421875 -7.48046875 -24.541015625 71.4228515625 1.8125 185.571289062 c 2
 118.412109375 690.62109375 l 1
 255.887695312 690.62109375 l 1
 139.962890625 188.49609375 l 2
 126.932617188 132.056640625 146.474609375 118.295898438 178.35546875 118.295898438 c 0
 201.462890625 118.295898438 234.62109375 125.510742188 249.162109375 188.49609375 c 2
 365.086914062 690.62109375 l 1
 502.5625 690.62109375 l 1
 385.962890625 185.571289062 l 2
 358.66796875 67.345703125 258.864257812 -7.48046875 149.317382812 -7.48046875 c 0
368.139648438 883.669921875 m 1
 512.294921875 883.669921875 l 1
 341.833984375 733.51953125 l 1
 224.17578125 733.51953125 l 1
 368.139648438 883.669921875 l 1
EndSplineSet
EndChar

StartChar: Ucircumflex
Encoding: 219 219 156
Width: 460
GlyphClass: 2
Flags: MW
HStem: -7.48047 125.776<162.415 189.909 162.415 204.091> 670.621 20G<118.412 255.888 255.888 255.888 365.087 502.562 502.562 502.562>
VStem: 42.959 137.476 289.634 137.476
LayerCount: 2
Fore
SplineSet
149.317382812 -7.48046875 m 0
 37.2607421875 -7.48046875 -24.541015625 71.4228515625 1.8125 185.571289062 c 2
 118.412109375 690.62109375 l 1
 255.887695312 690.62109375 l 1
 139.962890625 188.49609375 l 2
 126.932617188 132.056640625 146.474609375 118.295898438 178.35546875 118.295898438 c 0
 201.462890625 118.295898438 234.62109375 125.510742188 249.162109375 188.49609375 c 2
 365.086914062 690.62109375 l 1
 502.5625 690.62109375 l 1
 385.962890625 185.571289062 l 2
 358.66796875 67.345703125 258.864257812 -7.48046875 149.317382812 -7.48046875 c 0
309.845703125 889.51953125 m 1
 399.98828125 889.51953125 l 1
 475.26171875 727.669921875 l 1
 369.072265625 727.669921875 l 1
 335.498046875 799.235351562 l 1
 267.986328125 727.669921875 l 1
 162.029296875 727.669921875 l 1
 309.845703125 889.51953125 l 1
EndSplineSet
EndChar

StartChar: Udieresis
Encoding: 220 220 157
Width: 460
GlyphClass: 2
Flags: MW
HStem: -7.48047 125.776<162.415 189.909 162.415 204.091> 670.621 20G<118.412 255.888 255.888 255.888 365.087 502.562 502.562 502.562> 734.495 128.7<219.678 298.19 189.965 327.903 219.678 342.065 371.778 450.29>
VStem: 42.959 137.476 104.383 108.226 256.483 108.225 289.634 137.476
LayerCount: 2
Fore
SplineSet
149.317382812 -7.48046875 m 0xf2
 37.2607421875 -7.48046875 -24.541015625 71.4228515625 1.8125 185.571289062 c 2
 118.412109375 690.62109375 l 1
 255.887695312 690.62109375 l 1
 139.962890625 188.49609375 l 2
 126.932617188 132.056640625 146.474609375 118.295898438 178.35546875 118.295898438 c 0
 201.462890625 118.295898438 234.62109375 125.510742188 249.162109375 188.49609375 c 2
 365.086914062 690.62109375 l 1
 502.5625 690.62109375 l 1
 385.962890625 185.571289062 l 2
 358.66796875 67.345703125 258.864257812 -7.48046875 149.317382812 -7.48046875 c 0xf2
219.677734375 863.1953125 m 1xe8
 327.903320312 863.1953125 l 1
 298.190429688 734.495117188 l 1
 189.96484375 734.495117188 l 1
 219.677734375 863.1953125 l 1xe8
371.778320312 863.1953125 m 1xe4
 480.002929688 863.1953125 l 1
 450.290039062 734.495117188 l 1
 342.065429688 734.495117188 l 1
 371.778320312 863.1953125 l 1xe4
EndSplineSet
EndChar

StartChar: Yacute
Encoding: 221 221 158
Width: 416
GlyphClass: 2
Flags: MW
HStem: 0.320312 21G<60.4443 197.919 60.4443 60.4443> 670.62 20G<79.9014 230.565 230.565 230.565 345.56 497.18 497.18 497.18>
VStem: 144.359 137.475
LayerCount: 2
Fore
SplineSet
345.559570312 690.620117188 m 1
 497.1796875 690.620117188 l 1
 260.166015625 269.943359375 l 1
 197.918945312 0.3203125 l 1
 60.4443359375 0.3203125 l 1
 123.140625 271.887695312 l 1
 79.9013671875 690.620117188 l 1
 230.565429688 690.620117188 l 1
 234.96484375 460.631835938 l 1
 345.559570312 690.620117188 l 1
345.715820312 883.669921875 m 1
 489.87109375 883.669921875 l 1
 319.409179688 733.51953125 l 1
 201.750976562 733.51953125 l 1
 345.715820312 883.669921875 l 1
EndSplineSet
EndChar

StartChar: Thorn
Encoding: 222 222 159
Width: 434
GlyphClass: 2
Flags: MW
HStem: 0.320312 21G<-40.9561 95.5439 -40.9561 -40.9561> 140.72 124.8<156.771 181.582 127.957 206.496> 456.62 125.774<229.926 250.615 200.89 283.551> 670.62 20G<118.412 254.912 254.912 254.912>
VStem: 42.959 136.501 288.66 137.475
LayerCount: 2
Fore
SplineSet
425.73046875 362.044921875 m 0
 408.975585938 289.473632812 381.61328125 233.987304688 342.139648438 196.5703125 c 0
 302.228515625 158.73828125 248.041015625 140.719726562 181.58203125 140.719726562 c 2
 127.95703125 140.719726562 l 1
 95.5439453125 0.3203125 l 1
 -40.9560546875 0.3203125 l 1
 118.412109375 690.620117188 l 1
 254.912109375 690.620117188 l 1
 229.92578125 582.39453125 l 1
 283.55078125 582.39453125 l 2
 351.24609375 582.39453125 397.522460938 564.431640625 419.338867188 526.46875 c 0
 440.83203125 489.068359375 442.33203125 433.956054688 425.73046875 362.044921875 c 0
288.255859375 362.044921875 m 0
 296.182617188 396.381835938 296.703125 420.8984375 291.346679688 435.560546875 c 0
 286.35546875 449.2265625 274.030273438 456.620117188 250.615234375 456.620117188 c 2
 200.889648438 456.620117188 l 1
 156.770507812 265.51953125 l 1
 206.49609375 265.51953125 l 2
 229.852539062 265.51953125 245.59765625 273.008789062 257.012695312 287.002929688 c 0
 269.251953125 302.006835938 280.17578125 327.045898438 288.255859375 362.044921875 c 0
EndSplineSet
EndChar

StartChar: germandbls
Encoding: 223 223 160
Width: 421
GlyphClass: 2
Flags: MW
HStem: -4.55469 113.1<149.779 157.793 123.668 174.152> 581.42 118.95<259.538 273.238>
VStem: 41.9824 130.649 261.356 130.651
LayerCount: 2
Fore
SplineSet
350.615234375 406.432617188 m 1
 387.034179688 374.953125 386.747070312 341.012695312 360.764648438 228.469726562 c 0
 346.888671875 168.36328125 333.564453125 123.155273438 320.374023438 92.228515625 c 0
 306.967773438 60.798828125 287.43359375 36.12109375 261.765625 19.634765625 c 0
 235.673828125 2.876953125 200.953125 -4.5546875 157.79296875 -4.5546875 c 2
 123.66796875 -4.5546875 l 1
 149.779296875 108.544921875 l 1
 174.15234375 108.544921875 l 2
 198.69921875 108.544921875 206.502929688 126.203125 230.11328125 228.469726562 c 0
 251.455078125 320.912109375 252.47265625 341.5703125 227.950195312 341.5703125 c 2
 201.625 341.5703125 l 1
 227.51171875 453.6953125 l 1
 251.88671875 453.6953125 l 2
 264.37890625 453.6953125 270.1796875 457.584960938 274.500976562 465.243164062 c 0
 280.077148438 475.127929688 286.638671875 494.418945312 292.993164062 521.9453125 c 0
 306.028320312 578.40625 280.702148438 581.419921875 265.774414062 581.419921875 c 0
 253.301757812 581.419921875 222.4140625 579.426757812 210.943359375 529.745117188 c 2
 88.716796875 0.3203125 l 1
 -41.9326171875 0.3203125 l 1
 76.91796875 515.120117188 l 2
 99.783203125 614.16015625 158.41015625 700.370117188 293.236328125 700.370117188 c 0
 346.181640625 700.370117188 385.331054688 685.680664062 408.952148438 655.421875 c 0
 432.537109375 625.208007812 437.916992188 583.7734375 426.119140625 532.669921875 c 0
 410.03515625 463.00390625 391.498046875 434.704101562 350.615234375 406.432617188 c 1
EndSplineSet
EndChar

StartChar: agrave
Encoding: 224 224 161
Width: 406
GlyphClass: 2
Flags: MW
HStem: -7.48145 116.024<61.5732 155.152> 0.319336 21G<167.695 290.545 167.695 167.695> 223.594 96.5254<163.833 233.727 199.602 211.441> 423.47 117<224.923 226.217>
VStem: 31.2607 130.65 44.9102 121.875 243.811 130.65
LayerCount: 2
Fore
SplineSet
218.586914062 423.469726562 m 0xba
 208.100585938 423.469726562 179.719726562 419.825195312 170.8828125 381.544921875 c 2
 167.055664062 364.969726562 l 1
 45.1806640625 364.969726562 l 1
 48.1064453125 377.64453125 l 2
 60.1845703125 429.958007812 84.572265625 471.108398438 121.943359375 499.188476562 c 0
 158.752929688 526.84765625 201.323242188 540.469726562 248.5234375 540.469726562 c 0
 300.307617188 540.469726562 338.287109375 524.995117188 360.561523438 493.319335938 c 0
 382.713867188 461.817382812 387.334960938 419.561523438 375.40625 367.893554688 c 2
 290.544921875 0.3193359375 l 1
 167.6953125 0.3193359375 l 1x76
 174.149414062 28.2724609375 l 1
 145.463867188 4.0732421875 121.48046875 -7.4814453125 83.994140625 -7.4814453125 c 0
 39.15234375 -7.4814453125 7.1884765625 7.421875 -9.482421875 37.8330078125 c 0
 -25.94140625 67.857421875 -27.576171875 108.94921875 -15.7392578125 160.21875 c 0
 -4.2197265625 210.114257812 20.3876953125 250.111328125 58.32421875 278.379882812 c 0
 96.2236328125 306.62109375 143.65234375 320.119140625 199.6015625 320.119140625 c 2
 233.7265625 320.119140625 l 1
 246.782226562 376.668945312 l 2
 256.584960938 419.131835938 233.84765625 423.469726562 218.586914062 423.469726562 c 0xba
143.930664062 108.54296875 m 0xba
 166.374023438 108.54296875 189.133789062 126.96484375 197.486328125 163.143554688 c 2
 211.44140625 223.59375 l 1
 190.966796875 223.59375 l 2
 136.698242188 223.59375 122.552734375 193.31640625 116.036132812 165.092773438 c 0
 103.418945312 110.44140625 131.986328125 108.54296875 143.930664062 108.54296875 c 0xba
134.05078125 725.71875 m 1
 278.206054688 725.71875 l 1
 352.842773438 575.569335938 l 1
 235.184570312 575.569335938 l 1
 134.05078125 725.71875 l 1
EndSplineSet
EndChar

StartChar: aacute
Encoding: 225 225 162
Width: 406
GlyphClass: 2
Flags: MW
HStem: -7.48145 116.024<61.5732 155.152> 0.319336 21G<167.695 290.545 167.695 167.695> 223.594 96.5254<163.833 233.727 199.602 211.441> 423.47 117<224.923 226.217>
VStem: 31.2607 130.65 44.9102 121.875 243.811 130.65
LayerCount: 2
Fore
SplineSet
218.586914062 423.469726562 m 0xba
 208.100585938 423.469726562 179.719726562 419.825195312 170.8828125 381.544921875 c 2
 167.055664062 364.969726562 l 1
 45.1806640625 364.969726562 l 1
 48.1064453125 377.64453125 l 2
 60.1845703125 429.958007812 84.572265625 471.108398438 121.943359375 499.188476562 c 0
 158.752929688 526.84765625 201.323242188 540.469726562 248.5234375 540.469726562 c 0
 300.307617188 540.469726562 338.287109375 524.995117188 360.561523438 493.319335938 c 0
 382.713867188 461.817382812 387.334960938 419.561523438 375.40625 367.893554688 c 2
 290.544921875 0.3193359375 l 1
 167.6953125 0.3193359375 l 1x76
 174.149414062 28.2724609375 l 1
 145.463867188 4.0732421875 121.48046875 -7.4814453125 83.994140625 -7.4814453125 c 0
 39.15234375 -7.4814453125 7.1884765625 7.421875 -9.482421875 37.8330078125 c 0
 -25.94140625 67.857421875 -27.576171875 108.94921875 -15.7392578125 160.21875 c 0
 -4.2197265625 210.114257812 20.3876953125 250.111328125 58.32421875 278.379882812 c 0
 96.2236328125 306.62109375 143.65234375 320.119140625 199.6015625 320.119140625 c 2
 233.7265625 320.119140625 l 1
 246.782226562 376.668945312 l 2
 256.584960938 419.131835938 233.84765625 423.469726562 218.586914062 423.469726562 c 0xba
143.930664062 108.54296875 m 0xba
 166.374023438 108.54296875 189.133789062 126.96484375 197.486328125 163.143554688 c 2
 211.44140625 223.59375 l 1
 190.966796875 223.59375 l 2
 136.698242188 223.59375 122.552734375 193.31640625 116.036132812 165.092773438 c 0
 103.418945312 110.44140625 131.986328125 108.54296875 143.930664062 108.54296875 c 0xba
304.376953125 725.71875 m 1
 448.532226562 725.71875 l 1
 278.0703125 575.569335938 l 1
 160.412109375 575.569335938 l 1
 304.376953125 725.71875 l 1
EndSplineSet
EndChar

StartChar: acircumflex
Encoding: 226 226 163
Width: 406
GlyphClass: 2
Flags: MW
HStem: -7.48145 116.024<61.5732 155.152> 0.319336 21G<167.695 290.545 167.695 167.695> 223.594 96.5254<163.833 233.727 199.602 211.441> 423.47 117<224.923 226.217>
VStem: 31.2607 130.65 44.9102 121.875 243.811 130.65
LayerCount: 2
Fore
SplineSet
218.586914062 423.469726562 m 0xba
 208.100585938 423.469726562 179.719726562 419.825195312 170.8828125 381.544921875 c 2
 167.055664062 364.969726562 l 1
 45.1806640625 364.969726562 l 1
 48.1064453125 377.64453125 l 2
 60.1845703125 429.958007812 84.572265625 471.108398438 121.943359375 499.188476562 c 0
 158.752929688 526.84765625 201.323242188 540.469726562 248.5234375 540.469726562 c 0
 300.307617188 540.469726562 338.287109375 524.995117188 360.561523438 493.319335938 c 0
 382.713867188 461.817382812 387.334960938 419.561523438 375.40625 367.893554688 c 2
 290.544921875 0.3193359375 l 1
 167.6953125 0.3193359375 l 1x76
 174.149414062 28.2724609375 l 1
 145.463867188 4.0732421875 121.48046875 -7.4814453125 83.994140625 -7.4814453125 c 0
 39.15234375 -7.4814453125 7.1884765625 7.421875 -9.482421875 37.8330078125 c 0
 -25.94140625 67.857421875 -27.576171875 108.94921875 -15.7392578125 160.21875 c 0
 -4.2197265625 210.114257812 20.3876953125 250.111328125 58.32421875 278.379882812 c 0
 96.2236328125 306.62109375 143.65234375 320.119140625 199.6015625 320.119140625 c 2
 233.7265625 320.119140625 l 1
 246.782226562 376.668945312 l 2
 256.584960938 419.131835938 233.84765625 423.469726562 218.586914062 423.469726562 c 0xba
143.930664062 108.54296875 m 0xba
 166.374023438 108.54296875 189.133789062 126.96484375 197.486328125 163.143554688 c 2
 211.44140625 223.59375 l 1
 190.966796875 223.59375 l 2
 136.698242188 223.59375 122.552734375 193.31640625 116.036132812 165.092773438 c 0
 103.418945312 110.44140625 131.986328125 108.54296875 143.930664062 108.54296875 c 0xba
246.083007812 731.569335938 m 1
 336.225585938 731.569335938 l 1
 411.499023438 569.71875 l 1
 305.309570312 569.71875 l 1
 271.735351562 641.284179688 l 1
 204.223632812 569.71875 l 1
 98.265625 569.71875 l 1
 246.083007812 731.569335938 l 1
EndSplineSet
EndChar

StartChar: atilde
Encoding: 227 227 164
Width: 406
GlyphClass: 2
Flags: MW
HStem: -7.48145 116.024<61.5732 155.152> 0.319336 21G<167.695 290.545 167.695 167.695> 223.594 96.5254<163.833 233.727 199.602 211.441> 423.47 117<224.923 226.217> 578.494 105.3<313.202 318.417> 612.619 105.3<204.529 267.795>
VStem: 31.2607 130.65 44.9102 121.875 243.811 130.65
LayerCount: 2
Fore
SplineSet
218.586914062 423.469726562 m 0xb280
 208.100585938 423.469726562 179.719726562 419.825195312 170.8828125 381.544921875 c 2
 167.055664062 364.969726562 l 1
 45.1806640625 364.969726562 l 1
 48.1064453125 377.64453125 l 2
 60.1845703125 429.958007812 84.572265625 471.108398438 121.943359375 499.188476562 c 0
 158.752929688 526.84765625 201.323242188 540.469726562 248.5234375 540.469726562 c 0
 300.307617188 540.469726562 338.287109375 524.995117188 360.561523438 493.319335938 c 0
 382.713867188 461.817382812 387.334960938 419.561523438 375.40625 367.893554688 c 2
 290.544921875 0.3193359375 l 1
 167.6953125 0.3193359375 l 1x7180
 174.149414062 28.2724609375 l 1
 145.463867188 4.0732421875 121.48046875 -7.4814453125 83.994140625 -7.4814453125 c 0
 39.15234375 -7.4814453125 7.1884765625 7.421875 -9.482421875 37.8330078125 c 0
 -25.94140625 67.857421875 -27.576171875 108.94921875 -15.7392578125 160.21875 c 0
 -4.2197265625 210.114257812 20.3876953125 250.111328125 58.32421875 278.379882812 c 0
 96.2236328125 306.62109375 143.65234375 320.119140625 199.6015625 320.119140625 c 2
 233.7265625 320.119140625 l 1
 246.782226562 376.668945312 l 2
 256.584960938 419.131835938 233.84765625 423.469726562 218.586914062 423.469726562 c 0xb280
143.930664062 108.54296875 m 0xb280
 166.374023438 108.54296875 189.133789062 126.96484375 197.486328125 163.143554688 c 2
 211.44140625 223.59375 l 1
 190.966796875 223.59375 l 2
 136.698242188 223.59375 122.552734375 193.31640625 116.036132812 165.092773438 c 0
 103.418945312 110.44140625 131.986328125 108.54296875 143.930664062 108.54296875 c 0xb280
243.66796875 717.918945312 m 0x3480
 291.921875 717.918945312 295.063476562 683.793945312 331.33984375 683.793945312 c 0
 350.633789062 683.793945312 357.701171875 689.736328125 411.383789062 734.881835938 c 1
 384.852539062 619.965820312 l 1
 351.13671875 590.276367188 333.705078125 578.494140625 303.127929688 578.494140625 c 0x3880
 283.856445312 578.494140625 274.509765625 581.577148438 250.607421875 598.215820312 c 0
 230.412109375 611.50390625 226.869140625 612.619140625 215.456054688 612.619140625 c 0
 193.6015625 612.619140625 181.546875 602.083007812 134.255859375 560.750976562 c 1
 161.221679688 677.551757812 l 1
 193.477539062 704.811523438 212.485351562 717.918945312 243.66796875 717.918945312 c 0x3480
EndSplineSet
EndChar

StartChar: adieresis
Encoding: 228 228 165
Width: 406
GlyphClass: 2
Flags: MW
HStem: -7.48145 116.024<61.5732 155.152> 0.319336 21G<167.695 290.545 167.695 167.695> 223.594 96.5254<163.833 233.727 199.602 211.441> 423.47 117<224.923 226.217> 576.544 128.7<155.915 234.427 126.202 264.14 155.915 278.302 308.015 386.527>
VStem: 31.2607 130.65 44.9102 121.875 77.0859 108.225 229.186 108.226 243.811 130.65
LayerCount: 2
Fore
SplineSet
218.586914062 423.469726562 m 0xbc40
 208.100585938 423.469726562 179.719726562 419.825195312 170.8828125 381.544921875 c 2
 167.055664062 364.969726562 l 1
 45.1806640625 364.969726562 l 1
 48.1064453125 377.64453125 l 2
 60.1845703125 429.958007812 84.572265625 471.108398438 121.943359375 499.188476562 c 0
 158.752929688 526.84765625 201.323242188 540.469726562 248.5234375 540.469726562 c 0
 300.307617188 540.469726562 338.287109375 524.995117188 360.561523438 493.319335938 c 0
 382.713867188 461.817382812 387.334960938 419.561523438 375.40625 367.893554688 c 2
 290.544921875 0.3193359375 l 1
 167.6953125 0.3193359375 l 1x7a40
 174.149414062 28.2724609375 l 1
 145.463867188 4.0732421875 121.48046875 -7.4814453125 83.994140625 -7.4814453125 c 0
 39.15234375 -7.4814453125 7.1884765625 7.421875 -9.482421875 37.8330078125 c 0
 -25.94140625 67.857421875 -27.576171875 108.94921875 -15.7392578125 160.21875 c 0
 -4.2197265625 210.114257812 20.3876953125 250.111328125 58.32421875 278.379882812 c 0
 96.2236328125 306.62109375 143.65234375 320.119140625 199.6015625 320.119140625 c 2
 233.7265625 320.119140625 l 1
 246.782226562 376.668945312 l 2
 256.584960938 419.131835938 233.84765625 423.469726562 218.586914062 423.469726562 c 0xbc40
143.930664062 108.54296875 m 0xbc40
 166.374023438 108.54296875 189.133789062 126.96484375 197.486328125 163.143554688 c 2
 211.44140625 223.59375 l 1
 190.966796875 223.59375 l 2
 136.698242188 223.59375 122.552734375 193.31640625 116.036132812 165.092773438 c 0
 103.418945312 110.44140625 131.986328125 108.54296875 143.930664062 108.54296875 c 0xbc40
155.915039062 705.244140625 m 1x39
 264.139648438 705.244140625 l 1
 234.426757812 576.543945312 l 1
 126.202148438 576.543945312 l 1
 155.915039062 705.244140625 l 1x39
308.014648438 705.244140625 m 1x3880
 416.240234375 705.244140625 l 1
 386.52734375 576.543945312 l 1
 278.301757812 576.543945312 l 1
 308.014648438 705.244140625 l 1x3880
EndSplineSet
EndChar

StartChar: aring
Encoding: 229 229 166
Width: 406
GlyphClass: 2
Flags: MW
HStem: -7.48145 116.024<61.5732 155.152> 0.319336 21G<167.695 290.545 167.695 167.695> 223.594 96.5254<163.833 233.727 199.602 211.441> 523.894 16.5762<230.66 258.734> 660.395 65.3242<277.255 286.278>
VStem: 31.2607 130.65 44.9102 121.875 107.311 65.3262 241.862 66.2988 243.811 130.65
LayerCount: 2
Fore
SplineSet
218.586914062 423.469726562 m 0xbc40
 208.100585938 423.469726562 179.719726562 419.825195312 170.8828125 381.544921875 c 2
 167.055664062 364.969726562 l 1
 45.1806640625 364.969726562 l 1
 48.1064453125 377.64453125 l 2
 60.1845703125 429.958007812 84.572265625 471.108398438 121.943359375 499.188476562 c 0
 158.752929688 526.84765625 201.323242188 540.469726562 248.5234375 540.469726562 c 0
 300.307617188 540.469726562 338.287109375 524.995117188 360.561523438 493.319335938 c 0
 382.713867188 461.817382812 387.334960938 419.561523438 375.40625 367.893554688 c 2
 290.544921875 0.3193359375 l 1
 167.6953125 0.3193359375 l 1x7a40
 174.149414062 28.2724609375 l 1
 145.463867188 4.0732421875 121.48046875 -7.4814453125 83.994140625 -7.4814453125 c 0
 39.15234375 -7.4814453125 7.1884765625 7.421875 -9.482421875 37.8330078125 c 0
 -25.94140625 67.857421875 -27.576171875 108.94921875 -15.7392578125 160.21875 c 0
 -4.2197265625 210.114257812 20.3876953125 250.111328125 58.32421875 278.379882812 c 0
 96.2236328125 306.62109375 143.65234375 320.119140625 199.6015625 320.119140625 c 2
 233.7265625 320.119140625 l 1
 246.782226562 376.668945312 l 2
 256.584960938 419.131835938 233.84765625 423.469726562 218.586914062 423.469726562 c 0xbc40
143.930664062 108.54296875 m 0xbc40
 166.374023438 108.54296875 189.133789062 126.96484375 197.486328125 163.143554688 c 2
 211.44140625 223.59375 l 1
 190.966796875 223.59375 l 2
 136.698242188 223.59375 122.552734375 193.31640625 116.036132812 165.092773438 c 0
 103.418945312 110.44140625 131.986328125 108.54296875 143.930664062 108.54296875 c 0xbc40
167.45703125 624.319335938 m 0x3980
 174.07421875 652.981445312 189.416992188 677.587890625 213.091796875 696.822265625 c 0
 236.711914062 716.01171875 263.217773438 725.71875 291.291992188 725.71875 c 0
 319.365234375 725.71875 341.390625 716.01171875 356.149414062 696.822265625 c 0
 370.943359375 677.587890625 374.924804688 652.981445312 368.307617188 624.319335938 c 0
 361.826171875 596.245117188 346.516601562 571.979492188 322.896484375 552.790039062 c 0
 299.27734375 533.600585938 272.770507812 523.893554688 244.697265625 523.893554688 c 0
 216.623046875 523.893554688 194.598632812 533.600585938 179.838867188 552.790039062 c 0
 165.080078125 571.979492188 160.975585938 596.245117188 167.45703125 624.319335938 c 0x3980
259.779296875 589.21875 m 0
 280.697265625 589.21875 297.549804688 605.0078125 302.008789062 624.3203125 c 0
 306.951171875 645.73046875 296.34375 660.39453125 276.211914062 660.39453125 c 0
 253.732421875 660.39453125 237.461914062 644.5859375 232.783203125 624.3203125 c 0
 228.577148438 606.104492188 236.561523438 589.21875 259.779296875 589.21875 c 0
EndSplineSet
EndChar

StartChar: ae
Encoding: 230 230 167
Width: 618
GlyphClass: 2
Flags: MW
HStem: -7.48145 116.024<84.3613 155.152> 217.745 99.4482<363.701 446.576 363.701 554.266 340.74 446.576> 423.47 117<224.922 226.217>
VStem: 31.2598 130.651 44.9092 121.875 243.811 130.648 457.336 130.648
LayerCount: 2
Fore
SplineSet
218.586914062 423.469726562 m 0xf6
 208.099609375 423.469726562 179.71875 419.825195312 170.881835938 381.544921875 c 2
 167.0546875 364.969726562 l 1
 45.1796875 364.969726562 l 1
 48.10546875 377.64453125 l 2xee
 60.18359375 429.958007812 84.5712890625 471.108398438 121.942382812 499.188476562 c 0
 158.751953125 526.84765625 201.322265625 540.469726562 248.522460938 540.469726562 c 0
 288.342773438 540.469726562 320.440429688 530.918945312 344.029296875 511.463867188 c 1
 375.25390625 531.055664062 412.216796875 540.469726562 454.247070312 540.469726562 c 0
 508.750976562 540.469726562 548.379882812 523.252929688 571.140625 488.254882812 c 0
 594.036132812 453.046875 596.233398438 399.526367188 579.926757812 328.89453125 c 2
 554.265625 217.745117188 l 1
 340.740234375 217.745117188 l 1
 331.9609375 179.719726562 l 2
 315.971679688 110.461914062 346.046875 109.517578125 357.6796875 109.517578125 c 0
 372.85546875 109.517578125 399.439453125 113.0234375 411.685546875 166.068359375 c 2
 414.836914062 179.717773438 l 1
 542.5625 179.717773438 l 1
 539.185546875 165.092773438 l 2
 526.400390625 109.713867188 502.158203125 66.314453125 465.495117188 36.5283203125 c 0
 428.979492188 6.8623046875 383.91015625 -7.4814453125 331.643554688 -7.4814453125 c 0
 284.151367188 -7.4814453125 248.536132812 3.9443359375 226.286132812 27.7978515625 c 1
 189.876953125 4.2724609375 150.311523438 -7.4814453125 108.368164062 -7.4814453125 c 0
 60.3544921875 -7.4814453125 24.0576171875 7.595703125 0.998046875 38.0263671875 c 0
 -22.1201171875 68.533203125 -27.390625 109.755859375 -15.740234375 160.21875 c 0
 -4.220703125 210.114257812 20.38671875 250.111328125 58.3232421875 278.379882812 c 0
 96.22265625 306.62109375 143.651367188 320.119140625 199.6015625 320.119140625 c 2
 233.7265625 320.119140625 l 1
 246.782226562 376.668945312 l 2
 256.584960938 419.131835938 233.846679688 423.469726562 218.586914062 423.469726562 c 0xf6
429.709960938 421.517578125 m 0
 411.72265625 421.517578125 386.23828125 414.8125 370.454101562 346.443359375 c 2
 363.701171875 317.193359375 l 1
 446.576171875 317.193359375 l 1
 453.329101562 346.443359375 l 2
 469.04296875 414.505859375 446.796875 421.517578125 429.709960938 421.517578125 c 0
143.930664062 108.54296875 m 0
 166.373046875 108.54296875 189.133789062 126.96484375 197.485351562 163.142578125 c 2
 211.44140625 223.59375 l 1
 190.966796875 223.59375 l 2
 136.698242188 223.59375 122.551757812 193.315429688 116.036132812 165.092773438 c 0xf6
 103.418945312 110.44140625 131.986328125 108.54296875 143.930664062 108.54296875 c 0
EndSplineSet
EndChar

StartChar: ccedilla
Encoding: 231 231 168
Width: 408
GlyphClass: 2
Flags: MW
HStem: 421.52 118.95<224.989 240.874>
VStem: 39.0586 130.648 252.585 126.749
LayerCount: 2
Fore
SplineSet
252.180664062 362.044921875 m 2
 259.513671875 393.810546875 256.7890625 421.51953125 224.958007812 421.51953125 c 0
 206.982421875 421.51953125 181.48828125 414.826171875 165.701171875 346.4453125 c 2
 128.78515625 186.544921875 l 2
 113.069335938 118.47265625 135.32421875 111.469726562 152.40234375 111.469726562 c 0
 169.8125 111.469726562 195.870117188 118.150390625 208.283203125 171.919921875 c 2
 214.135742188 197.26953125 l 1
 340.885742188 197.26953125 l 1
 335.033203125 171.919921875 l 2
 314.409179688 82.5849609375 267.71484375 23.984375 195.365234375 2.0234375 c 1
 104.203125 -153.73046875 l 1
 -14.826171875 -153.73046875 l 1
 84.791015625 -3.947265625 l 1
 -30.638671875 15.099609375 -16.6103515625 122.670898438 -1.638671875 187.51953125 c 2
 34.8271484375 345.469726562 l 2
 50.232421875 412.1953125 75.818359375 462.165039062 113.446289062 493.879882812 c 0
 150.734375 525.30859375 197.555664062 540.469726562 252.421875 540.469726562 c 0
 325.530273438 540.469726562 413.524414062 511.893554688 379.379882812 363.995117188 c 2
 372.8515625 335.719726562 l 1
 246.102539062 335.719726562 l 1
 252.180664062 362.044921875 l 2
EndSplineSet
EndChar

